<svg width="254" height="258" viewBox="0 0 254 258" fill="none" xmlns="http://www.w3.org/2000/svg">
<path d="M4.66718 221.952C-11.0644 180.696 18.7716 146.497 18.7716 146.497C28.536 129.669 26.3664 122.612 16.6017 110.127C8.78998 100.139 4.66725 90.7657 3.58235 87.3277C-6.83314 54.7572 7.92214 29.6056 16.6017 21.101C58.2637 -17.115 96.5261 5.17769 110.45 21.101C124.554 35.7578 135.946 29.7865 143.54 21.101C149.616 14.1527 158.73 8.43478 162.527 6.44435C193.448 -8.21235 229.794 2.6444 248.238 39.0147C262.993 68.111 245.799 100.186 236.846 111.213C229.794 119.898 218.836 130.103 235.761 147.04C252.686 163.977 255.833 185.582 252.578 203.495C243.356 243.666 220.86 255.852 194.533 257.78C172.292 259.408 152.22 246.199 144.083 238.237C139.02 232.447 124.988 224.341 109.365 238.237C93.7414 252.134 75.7313 257.056 68.6791 257.78C54.0324 259.046 19.4225 255.825 4.66718 221.952Z" fill="#DDEAFF"/>
</svg>
