<svg width="20" height="19" viewBox="0 0 20 19" fill="none" xmlns="http://www.w3.org/2000/svg">
<path d="M18.1477 2.75H4.33514L3.15497 0.634597C3.0225 0.397154 2.7719 0.25 2.5 0.25H1C0.585786 0.25 0.25 0.585786 0.25 1C0.25 1.41421 0.585786 1.75 1 1.75H2.0596L3.22429 3.83765L5.91037 9.78088L5.91312 9.78695L6.14971 10.3104L3.45287 13.187C3.25895 13.3939 3.19825 13.6924 3.29599 13.9585C3.39372 14.2247 3.63317 14.413 3.91486 14.4452L6.37299 14.7261C9.44767 15.0775 12.5524 15.0775 15.627 14.7261L18.0852 14.4452C18.4967 14.3981 18.7922 14.0264 18.7452 13.6148C18.6981 13.2033 18.3264 12.9078 17.9149 12.9549L15.4567 13.2358C12.4952 13.5742 9.50481 13.5742 6.54331 13.2358L5.56779 13.1243L7.54717 11.013C7.56632 10.9925 7.5841 10.9713 7.60052 10.9494L8.35334 11.0474C9.40826 11.1847 10.4746 11.2116 11.5351 11.1277C14.0086 10.9321 16.301 9.75509 17.9015 7.85907L18.4795 7.17425C18.499 7.15125 18.517 7.12711 18.5335 7.10194L19.6109 5.46009C20.3745 4.29633 19.5397 2.75 18.1477 2.75Z" fill="#30578E"/>
<path d="M5.5 16C4.67157 16 4 16.6716 4 17.5C4 18.3284 4.67157 19 5.5 19C6.32843 19 7 18.3284 7 17.5C7 16.6716 6.32843 16 5.5 16Z" fill="#30578E"/>
<path d="M15 17.5C15 16.6716 15.6716 16 16.5 16C17.3284 16 18 16.6716 18 17.5C18 18.3284 17.3284 19 16.5 19C15.6716 19 15 18.3284 15 17.5Z" fill="#30578E"/>
</svg>
