<svg width="16" height="17" viewBox="0 0 16 17" fill="none" xmlns="http://www.w3.org/2000/svg">
<path d="M8 0.25C5.92893 0.25 4.25 1.92893 4.25 4C4.25 6.07107 5.92893 7.75 8 7.75C10.0711 7.75 11.75 6.07107 11.75 4C11.75 1.92893 10.0711 0.25 8 0.25Z" fill="#30578E"/>
<path d="M4 9.75C1.92893 9.75 0.25 11.4289 0.25 13.5V14.6883C0.25 15.4415 0.795884 16.0837 1.53927 16.2051C5.8181 16.9037 10.1819 16.9037 14.4607 16.2051C15.2041 16.0837 15.75 15.4415 15.75 14.6883V13.5C15.75 11.4289 14.0711 9.75 12 9.75H11.6591C11.4746 9.75 11.2913 9.77917 11.1159 9.83644L10.2504 10.1191C8.78813 10.5965 7.21187 10.5965 5.74959 10.1191L4.88407 9.83644C4.70869 9.77917 4.52536 9.75 4.34087 9.75H4Z" fill="#30578E"/>
</svg>
