<svg width="18" height="16" viewBox="0 0 18 16" fill="none" xmlns="http://www.w3.org/2000/svg">
<path d="M5.4 0.75C2.61914 0.75 0.25 2.8293 0.25 5.5298C0.25 7.39275 1.12235 8.96118 2.27849 10.2604C3.43066 11.5552 4.91714 12.642 6.26097 13.5516L8.57959 15.1211C8.83351 15.293 9.16649 15.293 9.42041 15.1211L11.739 13.5516C13.0829 12.642 14.5693 11.5552 15.7215 10.2604C16.8777 8.96118 17.75 7.39275 17.75 5.5298C17.75 2.8293 15.3809 0.75 12.6 0.75C11.1665 0.75 9.90516 1.42214 9 2.29183C8.09484 1.42214 6.83347 0.75 5.4 0.75Z" fill="#30578E"/>
</svg>
