<svg width="132" height="13" viewBox="0 0 132 13" fill="none" xmlns="http://www.w3.org/2000/svg">
<path d="M4.064 12C3.95733 12 3.888 11.9467 3.856 11.84L0.496 1.024L0.48 0.959999C0.48 0.853333 0.538667 0.799999 0.656 0.799999H2.24C2.35733 0.799999 2.432 0.853333 2.464 0.959999L4.864 9.312C4.87467 9.344 4.89067 9.36 4.912 9.36C4.93333 9.36 4.94933 9.344 4.96 9.312L7.344 0.959999C7.376 0.853333 7.45067 0.799999 7.568 0.799999H9.12C9.184 0.799999 9.232 0.821333 9.264 0.863999C9.296 0.906666 9.30133 0.959999 9.28 1.024L5.872 11.84C5.84 11.9467 5.77067 12 5.664 12H4.064ZM11.7656 12C11.7123 12 11.6643 11.984 11.6216 11.952C11.5896 11.9093 11.5736 11.8613 11.5736 11.808V0.992C11.5736 0.938666 11.5896 0.896 11.6216 0.863999C11.6643 0.821333 11.7123 0.799999 11.7656 0.799999H13.2376C13.291 0.799999 13.3336 0.821333 13.3656 0.863999C13.4083 0.896 13.4296 0.938666 13.4296 0.992V11.808C13.4296 11.8613 13.4083 11.9093 13.3656 11.952C13.3336 11.984 13.291 12 13.2376 12H11.7656ZM23.9851 2.208C23.9851 2.26133 23.9638 2.30933 23.9211 2.352C23.8891 2.384 23.8465 2.4 23.7931 2.4H18.3371C18.2838 2.4 18.2571 2.42667 18.2571 2.48V5.472C18.2571 5.52533 18.2838 5.552 18.3371 5.552H22.0011C22.0545 5.552 22.0971 5.57333 22.1291 5.616C22.1718 5.648 22.1931 5.69067 22.1931 5.744V6.96C22.1931 7.01333 22.1718 7.06133 22.1291 7.104C22.0971 7.136 22.0545 7.152 22.0011 7.152H18.3371C18.2838 7.152 18.2571 7.17867 18.2571 7.232V10.32C18.2571 10.3733 18.2838 10.4 18.3371 10.4H23.7931C23.8465 10.4 23.8891 10.4213 23.9211 10.464C23.9638 10.496 23.9851 10.5387 23.9851 10.592V11.808C23.9851 11.8613 23.9638 11.9093 23.9211 11.952C23.8891 11.984 23.8465 12 23.7931 12H16.5931C16.5398 12 16.4918 11.984 16.4491 11.952C16.4171 11.9093 16.4011 11.8613 16.4011 11.808V0.992C16.4011 0.938666 16.4171 0.896 16.4491 0.863999C16.4918 0.821333 16.5398 0.799999 16.5931 0.799999H23.7931C23.8465 0.799999 23.8891 0.821333 23.9211 0.863999C23.9638 0.896 23.9851 0.938666 23.9851 0.992V2.208ZM29.0345 12C28.9172 12 28.8425 11.9467 28.8105 11.84L25.8985 1.008L25.8825 0.943999C25.8825 0.847999 25.9412 0.799999 26.0585 0.799999H27.6265C27.7438 0.799999 27.8185 0.853333 27.8505 0.959999L29.6745 8.256C29.6852 8.288 29.7012 8.304 29.7225 8.304C29.7438 8.304 29.7598 8.288 29.7705 8.256L31.5145 0.959999C31.5465 0.853333 31.6158 0.799999 31.7225 0.799999H33.2585C33.3758 0.799999 33.4505 0.853333 33.4825 0.959999L35.3385 8.272C35.3492 8.304 35.3652 8.32 35.3865 8.32C35.4078 8.32 35.4238 8.304 35.4345 8.272L37.2265 0.959999C37.2585 0.853333 37.3332 0.799999 37.4505 0.799999H38.9385C39.0878 0.799999 39.1465 0.869333 39.1145 1.008L36.3465 11.84C36.3145 11.9467 36.2398 12 36.1225 12H34.6345C34.5172 12 34.4425 11.9467 34.4105 11.84L32.5385 4.208C32.5278 4.176 32.5118 4.16 32.4905 4.16C32.4692 4.14933 32.4532 4.16533 32.4425 4.208L30.6505 11.84C30.6185 11.9467 30.5492 12 30.4425 12H29.0345ZM52.3965 0.927999C52.4498 0.842666 52.5245 0.799999 52.6205 0.799999H54.0925C54.1458 0.799999 54.1885 0.821333 54.2205 0.863999C54.2632 0.896 54.2845 0.938666 54.2845 0.992V11.808C54.2845 11.8613 54.2632 11.9093 54.2205 11.952C54.1885 11.984 54.1458 12 54.0925 12H52.6205C52.5672 12 52.5192 11.984 52.4765 11.952C52.4445 11.9093 52.4285 11.8613 52.4285 11.808V4.176C52.4285 4.144 52.4125 4.12267 52.3805 4.112C52.3592 4.10133 52.3432 4.112 52.3325 4.144L50.3325 7.216C50.2792 7.30133 50.2045 7.344 50.1085 7.344H49.3725C49.2765 7.344 49.2018 7.30133 49.1485 7.216L47.1325 4.16C47.1218 4.128 47.1005 4.11733 47.0685 4.128C47.0472 4.13867 47.0365 4.16 47.0365 4.192V11.808C47.0365 11.8613 47.0152 11.9093 46.9725 11.952C46.9405 11.984 46.8978 12 46.8445 12H45.3725C45.3192 12 45.2712 11.984 45.2285 11.952C45.1965 11.9093 45.1805 11.8613 45.1805 11.808V0.992C45.1805 0.938666 45.1965 0.896 45.2285 0.863999C45.2712 0.821333 45.3192 0.799999 45.3725 0.799999H46.8445C46.9405 0.799999 47.0152 0.842666 47.0685 0.927999L49.6765 4.88C49.6978 4.90133 49.7192 4.912 49.7405 4.912C49.7618 4.912 49.7778 4.90133 49.7885 4.88L52.3965 0.927999ZM60.138 11.984C60.0847 11.984 60.0367 11.968 59.994 11.936C59.962 11.8933 59.946 11.8453 59.946 11.792V7.504C59.946 7.46133 59.9407 7.42933 59.93 7.408L56.634 1.024C56.6127 0.981332 56.602 0.949333 56.602 0.927999C56.602 0.842666 56.6607 0.799999 56.778 0.799999H58.362C58.4687 0.799999 58.5433 0.847999 58.586 0.943999L60.826 5.408C60.858 5.45067 60.89 5.45067 60.922 5.408L63.178 0.943999C63.2313 0.847999 63.306 0.799999 63.402 0.799999H65.002C65.0767 0.799999 65.1247 0.821333 65.146 0.863999C65.178 0.906666 65.178 0.959999 65.146 1.024L61.834 7.408C61.8127 7.45067 61.802 7.48267 61.802 7.504V11.792C61.802 11.8453 61.7807 11.8933 61.738 11.936C61.706 11.968 61.6633 11.984 61.61 11.984H60.138ZM75.1113 12.16C74.3113 12.16 73.6019 12 72.9833 11.68C72.3646 11.3493 71.8846 10.8853 71.5433 10.288C71.2126 9.69067 71.0473 9.00267 71.0473 8.224V4.576C71.0473 3.808 71.2179 3.13067 71.5593 2.544C71.9006 1.94667 72.3753 1.488 72.9833 1.168C73.6019 0.837333 74.3113 0.672 75.1113 0.672C75.9219 0.672 76.6313 0.837333 77.2393 1.168C77.8579 1.488 78.3379 1.94667 78.6793 2.544C79.0206 3.13067 79.1913 3.808 79.1913 4.576V8.224C79.1913 9.00267 79.0206 9.69067 78.6793 10.288C78.3379 10.8853 77.8579 11.3493 77.2393 11.68C76.6313 12 75.9219 12.16 75.1113 12.16ZM75.1113 10.56C75.7833 10.56 76.3219 10.352 76.7273 9.936C77.1326 9.52 77.3353 8.97067 77.3353 8.288V4.56C77.3353 3.86667 77.1326 3.312 76.7273 2.896C76.3219 2.48 75.7833 2.272 75.1113 2.272C74.4499 2.272 73.9166 2.48 73.5113 2.896C73.1059 3.312 72.9033 3.86667 72.9033 4.56V8.288C72.9033 8.97067 73.1059 9.52 73.5113 9.936C73.9166 10.352 74.4499 10.56 75.1113 10.56ZM88.1848 12C88.0781 12 88.0034 11.952 87.9608 11.856L85.8488 7.248C85.8274 7.20533 85.7954 7.184 85.7528 7.184H83.8328C83.7794 7.184 83.7528 7.21067 83.7528 7.264V11.808C83.7528 11.8613 83.7314 11.9093 83.6888 11.952C83.6568 11.984 83.6141 12 83.5608 12H82.0888C82.0354 12 81.9874 11.984 81.9448 11.952C81.9128 11.9093 81.8968 11.8613 81.8968 11.808V0.992C81.8968 0.938666 81.9128 0.896 81.9448 0.863999C81.9874 0.821333 82.0354 0.799999 82.0888 0.799999H86.4888C87.1394 0.799999 87.7154 0.938666 88.2168 1.216C88.7181 1.48267 89.1074 1.86667 89.3848 2.368C89.6621 2.85867 89.8008 3.424 89.8008 4.064C89.8008 4.8 89.6088 5.42933 89.2248 5.952C88.8514 6.464 88.3288 6.82133 87.6568 7.024C87.6354 7.024 87.6194 7.03467 87.6088 7.056C87.5981 7.07733 87.5981 7.09867 87.6088 7.12L89.8648 11.776C89.8861 11.8187 89.8968 11.8507 89.8968 11.872C89.8968 11.9573 89.8381 12 89.7208 12H88.1848ZM83.8328 2.4C83.7794 2.4 83.7528 2.42667 83.7528 2.48V5.664C83.7528 5.71733 83.7794 5.744 83.8328 5.744H86.2328C86.7448 5.744 87.1554 5.59467 87.4648 5.296C87.7848 4.98667 87.9448 4.58133 87.9448 4.08C87.9448 3.57867 87.7848 3.17333 87.4648 2.864C87.1554 2.55467 86.7448 2.4 86.2328 2.4H83.8328ZM92.5413 12C92.4879 12 92.4399 11.984 92.3973 11.952C92.3653 11.9093 92.3493 11.8613 92.3493 11.808V0.992C92.3493 0.938666 92.3653 0.896 92.3973 0.863999C92.4399 0.821333 92.4879 0.799999 92.5413 0.799999H96.4453C97.2026 0.799999 97.8693 0.933333 98.4453 1.2C99.0213 1.46667 99.4639 1.85067 99.7733 2.352C100.093 2.84267 100.253 3.41867 100.253 4.08V8.72C100.253 9.38133 100.093 9.96267 99.7733 10.464C99.4639 10.9547 99.0213 11.3333 98.4453 11.6C97.8693 11.8667 97.2026 12 96.4453 12H92.5413ZM94.2053 10.32C94.2053 10.3733 94.2319 10.4 94.2853 10.4H96.5253C97.0906 10.4 97.5386 10.224 97.8693 9.872C98.2106 9.50933 98.3866 9.02933 98.3973 8.432V4.384C98.3973 3.776 98.2266 3.296 97.8853 2.944C97.5439 2.58133 97.0853 2.4 96.5093 2.4H94.2853C94.2319 2.4 94.2053 2.42667 94.2053 2.48V10.32ZM110.464 2.208C110.464 2.26133 110.443 2.30933 110.4 2.352C110.368 2.384 110.325 2.4 110.272 2.4H104.816C104.763 2.4 104.736 2.42667 104.736 2.48V5.472C104.736 5.52533 104.763 5.552 104.816 5.552H108.48C108.533 5.552 108.576 5.57333 108.608 5.616C108.651 5.648 108.672 5.69067 108.672 5.744V6.96C108.672 7.01333 108.651 7.06133 108.608 7.104C108.576 7.136 108.533 7.152 108.48 7.152H104.816C104.763 7.152 104.736 7.17867 104.736 7.232V10.32C104.736 10.3733 104.763 10.4 104.816 10.4H110.272C110.325 10.4 110.368 10.4213 110.4 10.464C110.443 10.496 110.464 10.5387 110.464 10.592V11.808C110.464 11.8613 110.443 11.9093 110.4 11.952C110.368 11.984 110.325 12 110.272 12H103.072C103.019 12 102.971 11.984 102.928 11.952C102.896 11.9093 102.88 11.8613 102.88 11.808V0.992C102.88 0.938666 102.896 0.896 102.928 0.863999C102.971 0.821333 103.019 0.799999 103.072 0.799999H110.272C110.325 0.799999 110.368 0.821333 110.4 0.863999C110.443 0.896 110.464 0.938666 110.464 0.992V2.208ZM119.277 12C119.17 12 119.095 11.952 119.053 11.856L116.941 7.248C116.919 7.20533 116.887 7.184 116.845 7.184H114.925C114.871 7.184 114.845 7.21067 114.845 7.264V11.808C114.845 11.8613 114.823 11.9093 114.781 11.952C114.749 11.984 114.706 12 114.653 12H113.181C113.127 12 113.079 11.984 113.037 11.952C113.005 11.9093 112.989 11.8613 112.989 11.808V0.992C112.989 0.938666 113.005 0.896 113.037 0.863999C113.079 0.821333 113.127 0.799999 113.181 0.799999H117.581C118.231 0.799999 118.807 0.938666 119.309 1.216C119.81 1.48267 120.199 1.86667 120.477 2.368C120.754 2.85867 120.893 3.424 120.893 4.064C120.893 4.8 120.701 5.42933 120.317 5.952C119.943 6.464 119.421 6.82133 118.749 7.024C118.727 7.024 118.711 7.03467 118.701 7.056C118.69 7.07733 118.69 7.09867 118.701 7.12L120.957 11.776C120.978 11.8187 120.989 11.8507 120.989 11.872C120.989 11.9573 120.93 12 120.813 12H119.277ZM114.925 2.4C114.871 2.4 114.845 2.42667 114.845 2.48V5.664C114.845 5.71733 114.871 5.744 114.925 5.744H117.325C117.837 5.744 118.247 5.59467 118.557 5.296C118.877 4.98667 119.037 4.58133 119.037 4.08C119.037 3.57867 118.877 3.17333 118.557 2.864C118.247 2.55467 117.837 2.4 117.325 2.4H114.925ZM127.057 12.128C126.225 12.128 125.5 11.9947 124.881 11.728C124.262 11.4613 123.782 11.088 123.441 10.608C123.11 10.128 122.945 9.56267 122.945 8.912V8.512C122.945 8.45867 122.961 8.416 122.993 8.384C123.036 8.34133 123.084 8.32 123.137 8.32H124.561C124.614 8.32 124.657 8.34133 124.689 8.384C124.732 8.416 124.753 8.45867 124.753 8.512V8.816C124.753 9.30667 124.972 9.71733 125.409 10.048C125.846 10.368 126.444 10.528 127.201 10.528C127.852 10.528 128.342 10.3893 128.673 10.112C129.004 9.83467 129.169 9.47733 129.169 9.04C129.169 8.74133 129.078 8.49067 128.897 8.288C128.716 8.07467 128.454 7.88267 128.113 7.712C127.782 7.54133 127.281 7.328 126.609 7.072C125.852 6.79467 125.238 6.53333 124.769 6.288C124.3 6.04267 123.905 5.712 123.585 5.296C123.276 4.86933 123.121 4.34133 123.121 3.712C123.121 2.77333 123.462 2.032 124.145 1.488C124.828 0.944 125.74 0.672 126.881 0.672C127.681 0.672 128.385 0.810666 128.993 1.088C129.612 1.36533 130.092 1.75467 130.433 2.256C130.774 2.74667 130.945 3.31733 130.945 3.968V4.24C130.945 4.29333 130.924 4.34133 130.881 4.384C130.849 4.416 130.806 4.432 130.753 4.432H129.313C129.26 4.432 129.212 4.416 129.169 4.384C129.137 4.34133 129.121 4.29333 129.121 4.24V4.064C129.121 3.56267 128.913 3.14133 128.497 2.8C128.092 2.448 127.526 2.272 126.801 2.272C126.214 2.272 125.756 2.39467 125.425 2.64C125.105 2.88533 124.945 3.232 124.945 3.68C124.945 4 125.03 4.26133 125.201 4.464C125.372 4.66667 125.628 4.85333 125.969 5.024C126.31 5.184 126.838 5.392 127.553 5.648C128.31 5.936 128.913 6.19733 129.361 6.432C129.82 6.66667 130.209 6.99733 130.529 7.424C130.86 7.84 131.025 8.36267 131.025 8.992C131.025 9.952 130.668 10.7147 129.953 11.28C129.249 11.8453 128.284 12.128 127.057 12.128Z" fill="white"/>
</svg>
