<svg width="119" height="32" viewBox="0 0 119 32" fill="none" xmlns="http://www.w3.org/2000/svg">
<rect x="0.5" y="0.5" width="118" height="31" rx="15.5" fill="white"/>
<rect x="0.5" y="0.5" width="118" height="31" rx="15.5" stroke="#F46856"/>
<path d="M20.552 13.656C20.552 13.696 20.536 13.732 20.504 13.764C20.48 13.788 20.448 13.8 20.408 13.8H16.328C16.288 13.8 16.268 13.82 16.268 13.86V16.104C16.268 16.144 16.288 16.164 16.328 16.164H19.076C19.116 16.164 19.148 16.18 19.172 16.212C19.204 16.236 19.22 16.268 19.22 16.308V17.22C19.22 17.26 19.204 17.296 19.172 17.328C19.148 17.352 19.116 17.364 19.076 17.364H16.328C16.288 17.364 16.268 17.384 16.268 17.424V20.856C16.268 20.896 16.252 20.932 16.22 20.964C16.196 20.988 16.164 21 16.124 21H15.02C14.98 21 14.944 20.988 14.912 20.964C14.888 20.932 14.876 20.896 14.876 20.856V12.744C14.876 12.704 14.888 12.672 14.912 12.648C14.944 12.616 14.98 12.6 15.02 12.6H20.408C20.448 12.6 20.48 12.616 20.504 12.648C20.536 12.672 20.552 12.704 20.552 12.744V13.656ZM26.5366 17.244C26.5686 17.444 26.5846 17.668 26.5846 17.916L26.5726 18.288C26.5726 18.384 26.5246 18.432 26.4286 18.432H22.6726C22.6326 18.432 22.6126 18.452 22.6126 18.492C22.6366 18.756 22.6726 18.936 22.7206 19.032C22.9126 19.608 23.3806 19.9 24.1246 19.908C24.6686 19.908 25.1006 19.684 25.4206 19.236C25.4526 19.188 25.4926 19.164 25.5406 19.164C25.5726 19.164 25.6006 19.176 25.6246 19.2L26.3686 19.812C26.4406 19.868 26.4526 19.932 26.4046 20.004C26.1566 20.356 25.8246 20.628 25.4086 20.82C25.0006 21.012 24.5446 21.108 24.0406 21.108C23.4166 21.108 22.8846 20.968 22.4446 20.688C22.0126 20.408 21.6966 20.016 21.4966 19.512C21.3126 19.08 21.2206 18.48 21.2206 17.712C21.2206 17.248 21.2686 16.872 21.3646 16.584C21.5246 16.024 21.8246 15.584 22.2646 15.264C22.7126 14.936 23.2486 14.772 23.8726 14.772C25.4486 14.772 26.3366 15.596 26.5366 17.244ZM23.8726 15.972C23.5766 15.972 23.3286 16.048 23.1286 16.2C22.9366 16.344 22.8006 16.548 22.7206 16.812C22.6726 16.948 22.6406 17.124 22.6246 17.34C22.6086 17.38 22.6246 17.4 22.6726 17.4H25.1086C25.1486 17.4 25.1686 17.38 25.1686 17.34C25.1526 17.14 25.1286 16.988 25.0966 16.884C25.0246 16.596 24.8806 16.372 24.6646 16.212C24.4566 16.052 24.1926 15.972 23.8726 15.972ZM29.5193 21C29.4313 21 29.3753 20.96 29.3513 20.88L27.6353 15.024L27.6233 14.976C27.6233 14.896 27.6673 14.856 27.7553 14.856H28.8953C28.9833 14.856 29.0393 14.896 29.0633 14.976L30.0593 18.984C30.0673 19.008 30.0793 19.02 30.0953 19.02C30.1113 19.02 30.1233 19.008 30.1313 18.984L31.1753 14.976C31.1993 14.896 31.2553 14.856 31.3433 14.856H32.3393C32.4273 14.856 32.4833 14.896 32.5073 14.976L33.5753 18.984C33.5833 19.008 33.5953 19.02 33.6113 19.02C33.6273 19.02 33.6393 19.008 33.6473 18.984L34.7153 14.976C34.7393 14.896 34.7953 14.856 34.8833 14.856L36.0113 14.88C36.0593 14.88 36.0913 14.896 36.1073 14.928C36.1313 14.952 36.1393 14.988 36.1313 15.036L34.4033 20.88C34.3793 20.96 34.3273 21 34.2473 21H33.0953C33.0073 21 32.9513 20.96 32.9273 20.88L31.8713 17.22C31.8633 17.196 31.8513 17.184 31.8353 17.184C31.8193 17.184 31.8073 17.196 31.7993 17.22L30.8273 20.88C30.8033 20.96 30.7473 21 30.6593 21H29.5193ZM44.0625 12.588C44.5665 12.588 45.0105 12.692 45.3945 12.9C45.7785 13.108 46.0745 13.404 46.2825 13.788C46.4985 14.164 46.6065 14.6 46.6065 15.096C46.6065 15.584 46.4985 16.016 46.2825 16.392C46.0665 16.768 45.7585 17.06 45.3585 17.268C44.9665 17.468 44.5105 17.568 43.9905 17.568H42.0705C42.0305 17.568 42.0105 17.588 42.0105 17.628V20.856C42.0105 20.896 41.9945 20.932 41.9625 20.964C41.9385 20.988 41.9065 21 41.8665 21H40.7625C40.7225 21 40.6865 20.988 40.6545 20.964C40.6305 20.932 40.6185 20.896 40.6185 20.856V12.732C40.6185 12.692 40.6305 12.66 40.6545 12.636C40.6865 12.604 40.7225 12.588 40.7625 12.588H44.0625ZM43.8585 16.44C44.2665 16.44 44.5945 16.32 44.8425 16.08C45.0905 15.84 45.2145 15.524 45.2145 15.132C45.2145 14.732 45.0905 14.408 44.8425 14.16C44.5945 13.912 44.2665 13.788 43.8585 13.788H42.0705C42.0305 13.788 42.0105 13.808 42.0105 13.848V16.38C42.0105 16.42 42.0305 16.44 42.0705 16.44H43.8585ZM48.9673 14.028C48.7193 14.028 48.5153 13.948 48.3553 13.788C48.1953 13.628 48.1153 13.424 48.1153 13.176C48.1153 12.928 48.1953 12.724 48.3553 12.564C48.5153 12.404 48.7193 12.324 48.9673 12.324C49.2153 12.324 49.4193 12.404 49.5793 12.564C49.7393 12.724 49.8193 12.928 49.8193 13.176C49.8193 13.424 49.7393 13.628 49.5793 13.788C49.4193 13.948 49.2153 14.028 48.9673 14.028ZM48.3913 21C48.3513 21 48.3153 20.988 48.2833 20.964C48.2593 20.932 48.2473 20.896 48.2473 20.856V15C48.2473 14.96 48.2593 14.928 48.2833 14.904C48.3153 14.872 48.3513 14.856 48.3913 14.856H49.4953C49.5353 14.856 49.5673 14.872 49.5913 14.904C49.6233 14.928 49.6393 14.96 49.6393 15V20.856C49.6393 20.896 49.6233 20.932 49.5913 20.964C49.5673 20.988 49.5353 21 49.4953 21H48.3913ZM56.8858 17.244C56.9178 17.444 56.9338 17.668 56.9338 17.916L56.9218 18.288C56.9218 18.384 56.8738 18.432 56.7778 18.432H53.0218C52.9818 18.432 52.9618 18.452 52.9618 18.492C52.9858 18.756 53.0218 18.936 53.0698 19.032C53.2618 19.608 53.7298 19.9 54.4738 19.908C55.0178 19.908 55.4498 19.684 55.7698 19.236C55.8018 19.188 55.8418 19.164 55.8898 19.164C55.9218 19.164 55.9498 19.176 55.9738 19.2L56.7178 19.812C56.7898 19.868 56.8018 19.932 56.7538 20.004C56.5058 20.356 56.1738 20.628 55.7578 20.82C55.3498 21.012 54.8938 21.108 54.3898 21.108C53.7658 21.108 53.2338 20.968 52.7938 20.688C52.3618 20.408 52.0458 20.016 51.8458 19.512C51.6618 19.08 51.5698 18.48 51.5698 17.712C51.5698 17.248 51.6178 16.872 51.7138 16.584C51.8738 16.024 52.1738 15.584 52.6138 15.264C53.0618 14.936 53.5978 14.772 54.2218 14.772C55.7978 14.772 56.6858 15.596 56.8858 17.244ZM54.2218 15.972C53.9258 15.972 53.6778 16.048 53.4778 16.2C53.2858 16.344 53.1498 16.548 53.0698 16.812C53.0218 16.948 52.9898 17.124 52.9738 17.34C52.9578 17.38 52.9738 17.4 53.0218 17.4H55.4578C55.4978 17.4 55.5178 17.38 55.5178 17.34C55.5018 17.14 55.4778 16.988 55.4458 16.884C55.3738 16.596 55.2298 16.372 55.0138 16.212C54.8058 16.052 54.5418 15.972 54.2218 15.972ZM61.242 21.096C60.626 21.096 60.094 20.94 59.646 20.628C59.198 20.308 58.886 19.88 58.71 19.344C58.582 18.984 58.518 18.504 58.518 17.904C58.518 17.328 58.582 16.856 58.71 16.488C58.878 15.96 59.186 15.544 59.634 15.24C60.09 14.928 60.626 14.772 61.242 14.772C61.866 14.772 62.41 14.928 62.874 15.24C63.338 15.552 63.646 15.944 63.798 16.416C63.838 16.544 63.866 16.672 63.882 16.8V16.824C63.882 16.904 63.838 16.952 63.75 16.968L62.67 17.124H62.646C62.574 17.124 62.526 17.084 62.502 17.004C62.502 16.964 62.498 16.932 62.49 16.908C62.474 16.844 62.458 16.788 62.442 16.74C62.37 16.516 62.226 16.332 62.01 16.188C61.794 16.044 61.538 15.972 61.242 15.972C60.938 15.972 60.678 16.052 60.462 16.212C60.254 16.364 60.114 16.576 60.042 16.848C59.962 17.104 59.922 17.46 59.922 17.916C59.922 18.356 59.958 18.712 60.03 18.984C60.11 19.264 60.254 19.488 60.462 19.656C60.67 19.816 60.93 19.896 61.242 19.896C61.546 19.896 61.806 19.82 62.022 19.668C62.246 19.508 62.39 19.296 62.454 19.032C62.462 19.016 62.466 18.996 62.466 18.972C62.474 18.964 62.478 18.952 62.478 18.936C62.502 18.84 62.558 18.8 62.646 18.816L63.726 18.984C63.766 18.992 63.798 19.012 63.822 19.044C63.854 19.068 63.866 19.104 63.858 19.152C63.834 19.28 63.814 19.372 63.798 19.428C63.646 19.94 63.338 20.348 62.874 20.652C62.41 20.948 61.866 21.096 61.242 21.096ZM70.6544 17.244C70.6864 17.444 70.7024 17.668 70.7024 17.916L70.6904 18.288C70.6904 18.384 70.6424 18.432 70.5464 18.432H66.7904C66.7504 18.432 66.7304 18.452 66.7304 18.492C66.7544 18.756 66.7904 18.936 66.8384 19.032C67.0304 19.608 67.4984 19.9 68.2424 19.908C68.7864 19.908 69.2184 19.684 69.5384 19.236C69.5704 19.188 69.6104 19.164 69.6584 19.164C69.6904 19.164 69.7184 19.176 69.7424 19.2L70.4864 19.812C70.5584 19.868 70.5704 19.932 70.5224 20.004C70.2744 20.356 69.9424 20.628 69.5264 20.82C69.1184 21.012 68.6624 21.108 68.1584 21.108C67.5344 21.108 67.0024 20.968 66.5624 20.688C66.1304 20.408 65.8144 20.016 65.6144 19.512C65.4304 19.08 65.3384 18.48 65.3384 17.712C65.3384 17.248 65.3864 16.872 65.4824 16.584C65.6424 16.024 65.9424 15.584 66.3824 15.264C66.8304 14.936 67.3664 14.772 67.9904 14.772C69.5664 14.772 70.4544 15.596 70.6544 17.244ZM67.9904 15.972C67.6944 15.972 67.4464 16.048 67.2464 16.2C67.0544 16.344 66.9184 16.548 66.8384 16.812C66.7904 16.948 66.7584 17.124 66.7424 17.34C66.7264 17.38 66.7424 17.4 66.7904 17.4H69.2264C69.2664 17.4 69.2864 17.38 69.2864 17.34C69.2704 17.14 69.2464 16.988 69.2144 16.884C69.1424 16.596 68.9984 16.372 68.7824 16.212C68.5744 16.052 68.3104 15.972 67.9904 15.972ZM74.6409 21.072C74.1369 21.072 73.6929 21 73.3089 20.856C72.9329 20.704 72.6409 20.5 72.4329 20.244C72.2249 19.98 72.1209 19.688 72.1209 19.368V19.26C72.1209 19.22 72.1329 19.188 72.1569 19.164C72.1889 19.132 72.2249 19.116 72.2649 19.116H73.3209C73.3609 19.116 73.3929 19.132 73.4169 19.164C73.4489 19.188 73.4649 19.22 73.4649 19.26V19.284C73.4649 19.484 73.5729 19.66 73.7889 19.812C74.0129 19.956 74.2929 20.028 74.6289 20.028C74.9489 20.028 75.2089 19.964 75.4089 19.836C75.6089 19.7 75.7089 19.532 75.7089 19.332C75.7089 19.148 75.6249 19.012 75.4569 18.924C75.2969 18.828 75.0329 18.728 74.6649 18.624L74.2089 18.48C73.8009 18.36 73.4569 18.232 73.1769 18.096C72.8969 17.96 72.6609 17.776 72.4689 17.544C72.2769 17.304 72.1809 17 72.1809 16.632C72.1809 16.072 72.4009 15.628 72.8409 15.3C73.2809 14.964 73.8609 14.796 74.5809 14.796C75.0689 14.796 75.4969 14.876 75.8649 15.036C76.2329 15.188 76.5169 15.404 76.7169 15.684C76.9169 15.956 77.0169 16.268 77.0169 16.62C77.0169 16.66 77.0009 16.696 76.9689 16.728C76.9449 16.752 76.9129 16.764 76.8729 16.764H75.8529C75.8129 16.764 75.7769 16.752 75.7449 16.728C75.7209 16.696 75.7089 16.66 75.7089 16.62C75.7089 16.412 75.6049 16.24 75.3969 16.104C75.1969 15.96 74.9209 15.888 74.5689 15.888C74.2569 15.888 74.0009 15.948 73.8009 16.068C73.6089 16.18 73.5129 16.34 73.5129 16.548C73.5129 16.74 73.6049 16.888 73.7889 16.992C73.9809 17.088 74.2969 17.196 74.7369 17.316L75.0009 17.388C75.4249 17.516 75.7809 17.648 76.0689 17.784C76.3569 17.912 76.6009 18.096 76.8009 18.336C77.0009 18.568 77.1009 18.872 77.1009 19.248C77.1009 19.816 76.8769 20.264 76.4289 20.592C75.9809 20.912 75.3849 21.072 74.6409 21.072ZM81.9172 21C81.8772 21 81.8412 20.988 81.8092 20.964C81.7852 20.932 81.7732 20.896 81.7732 20.856V12.744C81.7732 12.704 81.7852 12.672 81.8092 12.648C81.8412 12.616 81.8772 12.6 81.9172 12.6H83.0212C83.0612 12.6 83.0932 12.616 83.1172 12.648C83.1492 12.672 83.1652 12.704 83.1652 12.744V19.74C83.1652 19.78 83.1852 19.8 83.2252 19.8H87.2452C87.2852 19.8 87.3172 19.816 87.3412 19.848C87.3732 19.872 87.3892 19.904 87.3892 19.944V20.856C87.3892 20.896 87.3732 20.932 87.3412 20.964C87.3172 20.988 87.2852 21 87.2452 21H81.9172ZM94.1487 17.244C94.1807 17.444 94.1967 17.668 94.1967 17.916L94.1847 18.288C94.1847 18.384 94.1367 18.432 94.0407 18.432H90.2847C90.2447 18.432 90.2247 18.452 90.2247 18.492C90.2487 18.756 90.2847 18.936 90.3327 19.032C90.5247 19.608 90.9927 19.9 91.7367 19.908C92.2807 19.908 92.7127 19.684 93.0327 19.236C93.0647 19.188 93.1047 19.164 93.1527 19.164C93.1847 19.164 93.2127 19.176 93.2367 19.2L93.9807 19.812C94.0527 19.868 94.0647 19.932 94.0167 20.004C93.7687 20.356 93.4367 20.628 93.0207 20.82C92.6127 21.012 92.1567 21.108 91.6527 21.108C91.0287 21.108 90.4967 20.968 90.0567 20.688C89.6247 20.408 89.3087 20.016 89.1087 19.512C88.9247 19.08 88.8327 18.48 88.8327 17.712C88.8327 17.248 88.8807 16.872 88.9767 16.584C89.1367 16.024 89.4367 15.584 89.8767 15.264C90.3247 14.936 90.8607 14.772 91.4847 14.772C93.0607 14.772 93.9487 15.596 94.1487 17.244ZM91.4847 15.972C91.1887 15.972 90.9407 16.048 90.7407 16.2C90.5487 16.344 90.4127 16.548 90.3327 16.812C90.2847 16.948 90.2527 17.124 90.2367 17.34C90.2207 17.38 90.2367 17.4 90.2847 17.4H92.7207C92.7607 17.4 92.7807 17.38 92.7807 17.34C92.7647 17.14 92.7407 16.988 92.7087 16.884C92.6367 16.596 92.4927 16.372 92.2767 16.212C92.0687 16.052 91.8047 15.972 91.4847 15.972ZM99.0237 14.856C99.0637 14.856 99.0957 14.872 99.1197 14.904C99.1517 14.928 99.1677 14.96 99.1677 15V15.948C99.1677 15.988 99.1517 16.024 99.1197 16.056C99.0957 16.08 99.0637 16.092 99.0237 16.092H97.8357C97.7957 16.092 97.7757 16.112 97.7757 16.152V20.856C97.7757 20.896 97.7597 20.932 97.7277 20.964C97.7037 20.988 97.6717 21 97.6317 21H96.5277C96.4877 21 96.4517 20.988 96.4197 20.964C96.3957 20.932 96.3837 20.896 96.3837 20.856V16.152C96.3837 16.112 96.3637 16.092 96.3237 16.092H95.5797C95.5397 16.092 95.5037 16.08 95.4717 16.056C95.4477 16.024 95.4357 15.988 95.4357 15.948V15C95.4357 14.96 95.4477 14.928 95.4717 14.904C95.5037 14.872 95.5397 14.856 95.5797 14.856H96.3237C96.3637 14.856 96.3837 14.836 96.3837 14.796V14.58C96.3837 14.06 96.4517 13.66 96.5877 13.38C96.7237 13.092 96.9477 12.888 97.2597 12.768C97.5717 12.648 98.0117 12.592 98.5797 12.6H98.9997C99.0397 12.6 99.0717 12.616 99.0957 12.648C99.1277 12.672 99.1437 12.704 99.1437 12.744V13.584C99.1437 13.624 99.1277 13.66 99.0957 13.692C99.0717 13.716 99.0397 13.728 98.9997 13.728H98.6877C98.3437 13.728 98.1037 13.796 97.9677 13.932C97.8397 14.068 97.7757 14.316 97.7757 14.676V14.796C97.7757 14.836 97.7957 14.856 97.8357 14.856H99.0237ZM104.075 15.852C104.075 15.892 104.059 15.928 104.027 15.96C104.003 15.984 103.971 15.996 103.931 15.996H102.707C102.667 15.996 102.647 16.016 102.647 16.056V18.948C102.647 19.252 102.711 19.472 102.839 19.608C102.975 19.744 103.187 19.812 103.475 19.812H103.835C103.875 19.812 103.907 19.828 103.931 19.86C103.963 19.884 103.979 19.916 103.979 19.956V20.856C103.979 20.944 103.931 20.996 103.835 21.012L103.211 21.024C102.579 21.024 102.107 20.916 101.795 20.7C101.483 20.484 101.323 20.076 101.315 19.476V16.056C101.315 16.016 101.295 15.996 101.255 15.996H100.571C100.531 15.996 100.495 15.984 100.463 15.96C100.439 15.928 100.427 15.892 100.427 15.852V15.012C100.427 14.972 100.439 14.94 100.463 14.916C100.495 14.884 100.531 14.868 100.571 14.868H101.255C101.295 14.868 101.315 14.848 101.315 14.808V13.404C101.315 13.364 101.327 13.332 101.351 13.308C101.383 13.276 101.419 13.26 101.459 13.26H102.503C102.543 13.26 102.575 13.276 102.599 13.308C102.631 13.332 102.647 13.364 102.647 13.404V14.808C102.647 14.848 102.667 14.868 102.707 14.868H103.931C103.971 14.868 104.003 14.884 104.027 14.916C104.059 14.94 104.075 14.972 104.075 15.012V15.852Z" fill="#F46856"/>
</svg>
