<svg width="149" height="32" viewBox="0 0 149 32" fill="none" xmlns="http://www.w3.org/2000/svg">
<rect x="0.5" y="0.5" width="148" height="31" rx="15.5" fill="white"/>
<rect x="0.5" y="0.5" width="148" height="31" rx="15.5" stroke="#F46856"/>
<path d="M22.736 12.708C22.736 12.7613 22.7147 12.8093 22.672 12.852C22.64 12.884 22.5973 12.9 22.544 12.9H17.104C17.0507 12.9 17.024 12.9267 17.024 12.98V15.972C17.024 16.0253 17.0507 16.052 17.104 16.052H20.768C20.8213 16.052 20.864 16.0733 20.896 16.116C20.9387 16.148 20.96 16.1907 20.96 16.244V17.46C20.96 17.5133 20.9387 17.5613 20.896 17.604C20.864 17.636 20.8213 17.652 20.768 17.652H17.104C17.0507 17.652 17.024 17.6787 17.024 17.732V22.308C17.024 22.3613 17.0027 22.4093 16.96 22.452C16.928 22.484 16.8853 22.5 16.832 22.5H15.36C15.3067 22.5 15.2587 22.484 15.216 22.452C15.184 22.4093 15.168 22.3613 15.168 22.308V11.492C15.168 11.4387 15.184 11.396 15.216 11.364C15.2587 11.3213 15.3067 11.3 15.36 11.3H22.544C22.5973 11.3 22.64 11.3213 22.672 11.364C22.7147 11.396 22.736 11.4387 22.736 11.492V12.708ZM30.7155 17.492C30.7582 17.7587 30.7795 18.0573 30.7795 18.388L30.7635 18.884C30.7635 19.012 30.6995 19.076 30.5715 19.076H25.5635C25.5102 19.076 25.4835 19.1027 25.4835 19.156C25.5155 19.508 25.5635 19.748 25.6275 19.876C25.8835 20.644 26.5075 21.0333 27.4995 21.044C28.2248 21.044 28.8008 20.7453 29.2275 20.148C29.2702 20.084 29.3235 20.052 29.3875 20.052C29.4302 20.052 29.4675 20.068 29.4995 20.1L30.4915 20.916C30.5875 20.9907 30.6035 21.076 30.5395 21.172C30.2088 21.6413 29.7662 22.004 29.2115 22.26C28.6675 22.516 28.0595 22.644 27.3875 22.644C26.5555 22.644 25.8462 22.4573 25.2595 22.084C24.6835 21.7107 24.2622 21.188 23.9955 20.516C23.7502 19.94 23.6275 19.14 23.6275 18.116C23.6275 17.4973 23.6915 16.996 23.8195 16.612C24.0328 15.8653 24.4328 15.2787 25.0195 14.852C25.6168 14.4147 26.3315 14.196 27.1635 14.196C29.2648 14.196 30.4488 15.2947 30.7155 17.492ZM27.1635 15.796C26.7688 15.796 26.4382 15.8973 26.1715 16.1C25.9155 16.292 25.7342 16.564 25.6275 16.916C25.5635 17.0973 25.5208 17.332 25.4995 17.62C25.4782 17.6733 25.4995 17.7 25.5635 17.7H28.8115C28.8648 17.7 28.8915 17.6733 28.8915 17.62C28.8702 17.3533 28.8382 17.1507 28.7955 17.012C28.6995 16.628 28.5075 16.3293 28.2195 16.116C27.9422 15.9027 27.5902 15.796 27.1635 15.796ZM34.6924 22.5C34.575 22.5 34.5004 22.4467 34.4684 22.34L32.1804 14.532L32.1644 14.468C32.1644 14.3613 32.223 14.308 32.3404 14.308H33.8604C33.9777 14.308 34.0524 14.3613 34.0844 14.468L35.4124 19.812C35.423 19.844 35.439 19.86 35.4604 19.86C35.4817 19.86 35.4977 19.844 35.5084 19.812L36.9004 14.468C36.9324 14.3613 37.007 14.308 37.1244 14.308H38.4524C38.5697 14.308 38.6444 14.3613 38.6764 14.468L40.1004 19.812C40.111 19.844 40.127 19.86 40.1484 19.86C40.1697 19.86 40.1857 19.844 40.1964 19.812L41.6204 14.468C41.6524 14.3613 41.727 14.308 41.8444 14.308L43.3484 14.34C43.4124 14.34 43.455 14.3613 43.4764 14.404C43.5084 14.436 43.519 14.484 43.5084 14.548L41.2044 22.34C41.1724 22.4467 41.103 22.5 40.9964 22.5H39.4604C39.343 22.5 39.2684 22.4467 39.2364 22.34L37.8284 17.46C37.8177 17.428 37.8017 17.412 37.7804 17.412C37.759 17.412 37.743 17.428 37.7324 17.46L36.4364 22.34C36.4044 22.4467 36.3297 22.5 36.2124 22.5H34.6924ZM54.0834 11.284C54.7554 11.284 55.3474 11.4227 55.8594 11.7C56.3714 11.9773 56.766 12.372 57.0434 12.884C57.3314 13.3853 57.4754 13.9667 57.4754 14.628C57.4754 15.2787 57.3314 15.8547 57.0434 16.356C56.7554 16.8573 56.3447 17.2467 55.8114 17.524C55.2887 17.7907 54.6807 17.924 53.9874 17.924H51.4274C51.374 17.924 51.3474 17.9507 51.3474 18.004V22.308C51.3474 22.3613 51.326 22.4093 51.2834 22.452C51.2514 22.484 51.2087 22.5 51.1554 22.5H49.6834C49.63 22.5 49.582 22.484 49.5394 22.452C49.5074 22.4093 49.4914 22.3613 49.4914 22.308V11.476C49.4914 11.4227 49.5074 11.38 49.5394 11.348C49.582 11.3053 49.63 11.284 49.6834 11.284H54.0834ZM53.8114 16.42C54.3554 16.42 54.7927 16.26 55.1234 15.94C55.454 15.62 55.6194 15.1987 55.6194 14.676C55.6194 14.1427 55.454 13.7107 55.1234 13.38C54.7927 13.0493 54.3554 12.884 53.8114 12.884H51.4274C51.374 12.884 51.3474 12.9107 51.3474 12.964V16.34C51.3474 16.3933 51.374 16.42 51.4274 16.42H53.8114ZM60.623 13.204C60.2923 13.204 60.0203 13.0973 59.807 12.884C59.5937 12.6707 59.487 12.3987 59.487 12.068C59.487 11.7373 59.5937 11.4653 59.807 11.252C60.0203 11.0387 60.2923 10.932 60.623 10.932C60.9537 10.932 61.2257 11.0387 61.439 11.252C61.6523 11.4653 61.759 11.7373 61.759 12.068C61.759 12.3987 61.6523 12.6707 61.439 12.884C61.2257 13.0973 60.9537 13.204 60.623 13.204ZM59.855 22.5C59.8017 22.5 59.7537 22.484 59.711 22.452C59.679 22.4093 59.663 22.3613 59.663 22.308V14.5C59.663 14.4467 59.679 14.404 59.711 14.372C59.7537 14.3293 59.8017 14.308 59.855 14.308H61.327C61.3803 14.308 61.423 14.3293 61.455 14.372C61.4977 14.404 61.519 14.4467 61.519 14.5V22.308C61.519 22.3613 61.4977 22.4093 61.455 22.452C61.423 22.484 61.3803 22.5 61.327 22.5H59.855ZM71.1811 17.492C71.2238 17.7587 71.2451 18.0573 71.2451 18.388L71.2291 18.884C71.2291 19.012 71.1651 19.076 71.0371 19.076H66.0291C65.9758 19.076 65.9491 19.1027 65.9491 19.156C65.9811 19.508 66.0291 19.748 66.0931 19.876C66.3491 20.644 66.9731 21.0333 67.9651 21.044C68.6905 21.044 69.2665 20.7453 69.6931 20.148C69.7358 20.084 69.7891 20.052 69.8531 20.052C69.8958 20.052 69.9331 20.068 69.9651 20.1L70.9571 20.916C71.0531 20.9907 71.0691 21.076 71.0051 21.172C70.6745 21.6413 70.2318 22.004 69.6771 22.26C69.1331 22.516 68.5251 22.644 67.8531 22.644C67.0211 22.644 66.3118 22.4573 65.7251 22.084C65.1491 21.7107 64.7278 21.188 64.4611 20.516C64.2158 19.94 64.0931 19.14 64.0931 18.116C64.0931 17.4973 64.1571 16.996 64.2851 16.612C64.4985 15.8653 64.8985 15.2787 65.4851 14.852C66.0825 14.4147 66.7971 14.196 67.6291 14.196C69.7305 14.196 70.9145 15.2947 71.1811 17.492ZM67.6291 15.796C67.2345 15.796 66.9038 15.8973 66.6371 16.1C66.3811 16.292 66.1998 16.564 66.0931 16.916C66.0291 17.0973 65.9865 17.332 65.9651 17.62C65.9438 17.6733 65.9651 17.7 66.0291 17.7H69.2771C69.3305 17.7 69.3571 17.6733 69.3571 17.62C69.3358 17.3533 69.3038 17.1507 69.2611 17.012C69.1651 16.628 68.9731 16.3293 68.6851 16.116C68.4078 15.9027 68.0558 15.796 67.6291 15.796ZM76.9894 22.628C76.168 22.628 75.4587 22.42 74.8614 22.004C74.264 21.5773 73.848 21.0067 73.6134 20.292C73.4427 19.812 73.3574 19.172 73.3574 18.372C73.3574 17.604 73.4427 16.9747 73.6134 16.484C73.8374 15.78 74.248 15.2253 74.8454 14.82C75.4534 14.404 76.168 14.196 76.9894 14.196C77.8214 14.196 78.5467 14.404 79.1654 14.82C79.784 15.236 80.1947 15.7587 80.3974 16.388C80.4507 16.5587 80.488 16.7293 80.5094 16.9V16.932C80.5094 17.0387 80.4507 17.1027 80.3334 17.124L78.8934 17.332H78.8614C78.7654 17.332 78.7014 17.2787 78.6694 17.172C78.6694 17.1187 78.664 17.076 78.6534 17.044C78.632 16.9587 78.6107 16.884 78.5894 16.82C78.4934 16.5213 78.3014 16.276 78.0134 16.084C77.7254 15.892 77.384 15.796 76.9894 15.796C76.584 15.796 76.2374 15.9027 75.9494 16.116C75.672 16.3187 75.4854 16.6013 75.3894 16.964C75.2827 17.3053 75.2294 17.78 75.2294 18.388C75.2294 18.9747 75.2774 19.4493 75.3734 19.812C75.48 20.1853 75.672 20.484 75.9494 20.708C76.2267 20.9213 76.5734 21.028 76.9894 21.028C77.3947 21.028 77.7414 20.9267 78.0294 20.724C78.328 20.5107 78.52 20.228 78.6054 19.876C78.616 19.8547 78.6214 19.828 78.6214 19.796C78.632 19.7853 78.6374 19.7693 78.6374 19.748C78.6694 19.62 78.744 19.5667 78.8614 19.588L80.3014 19.812C80.3547 19.8227 80.3974 19.8493 80.4294 19.892C80.472 19.924 80.488 19.972 80.4774 20.036C80.4454 20.2067 80.4187 20.3293 80.3974 20.404C80.1947 21.0867 79.784 21.6307 79.1654 22.036C78.5467 22.4307 77.8214 22.628 76.9894 22.628ZM89.5393 17.492C89.5819 17.7587 89.6033 18.0573 89.6033 18.388L89.5873 18.884C89.5873 19.012 89.5233 19.076 89.3953 19.076H84.3873C84.3339 19.076 84.3073 19.1027 84.3073 19.156C84.3393 19.508 84.3873 19.748 84.4513 19.876C84.7073 20.644 85.3313 21.0333 86.3233 21.044C87.0486 21.044 87.6246 20.7453 88.0513 20.148C88.0939 20.084 88.1473 20.052 88.2113 20.052C88.2539 20.052 88.2913 20.068 88.3233 20.1L89.3153 20.916C89.4113 20.9907 89.4273 21.076 89.3633 21.172C89.0326 21.6413 88.5899 22.004 88.0353 22.26C87.4913 22.516 86.8833 22.644 86.2113 22.644C85.3793 22.644 84.6699 22.4573 84.0833 22.084C83.5073 21.7107 83.0859 21.188 82.8193 20.516C82.5739 19.94 82.4513 19.14 82.4513 18.116C82.4513 17.4973 82.5153 16.996 82.6433 16.612C82.8566 15.8653 83.2566 15.2787 83.8433 14.852C84.4406 14.4147 85.1553 14.196 85.9873 14.196C88.0886 14.196 89.2726 15.2947 89.5393 17.492ZM85.9873 15.796C85.5926 15.796 85.2619 15.8973 84.9953 16.1C84.7393 16.292 84.5579 16.564 84.4513 16.916C84.3873 17.0973 84.3446 17.332 84.3233 17.62C84.3019 17.6733 84.3233 17.7 84.3873 17.7H87.6353C87.6886 17.7 87.7153 17.6733 87.7153 17.62C87.6939 17.3533 87.6619 17.1507 87.6193 17.012C87.5233 16.628 87.3313 16.3293 87.0433 16.116C86.7659 15.9027 86.4139 15.796 85.9873 15.796ZM94.8545 22.596C94.1825 22.596 93.5905 22.5 93.0785 22.308C92.5772 22.1053 92.1878 21.8333 91.9105 21.492C91.6332 21.14 91.4945 20.7507 91.4945 20.324V20.18C91.4945 20.1267 91.5105 20.084 91.5425 20.052C91.5852 20.0093 91.6332 19.988 91.6865 19.988H93.0945C93.1478 19.988 93.1905 20.0093 93.2225 20.052C93.2652 20.084 93.2865 20.1267 93.2865 20.18V20.212C93.2865 20.4787 93.4305 20.7133 93.7185 20.916C94.0172 21.108 94.3905 21.204 94.8385 21.204C95.2652 21.204 95.6118 21.1187 95.8785 20.948C96.1452 20.7667 96.2785 20.5427 96.2785 20.276C96.2785 20.0307 96.1665 19.8493 95.9425 19.732C95.7292 19.604 95.3772 19.4707 94.8865 19.332L94.2785 19.14C93.7345 18.98 93.2758 18.8093 92.9025 18.628C92.5292 18.4467 92.2145 18.2013 91.9585 17.892C91.7025 17.572 91.5745 17.1667 91.5745 16.676C91.5745 15.9293 91.8678 15.3373 92.4545 14.9C93.0412 14.452 93.8145 14.228 94.7745 14.228C95.4252 14.228 95.9958 14.3347 96.4865 14.548C96.9772 14.7507 97.3558 15.0387 97.6225 15.412C97.8892 15.7747 98.0225 16.1907 98.0225 16.66C98.0225 16.7133 98.0012 16.7613 97.9585 16.804C97.9265 16.836 97.8838 16.852 97.8305 16.852H96.4705C96.4172 16.852 96.3692 16.836 96.3265 16.804C96.2945 16.7613 96.2785 16.7133 96.2785 16.66C96.2785 16.3827 96.1398 16.1533 95.8625 15.972C95.5958 15.78 95.2278 15.684 94.7585 15.684C94.3425 15.684 94.0012 15.764 93.7345 15.924C93.4785 16.0733 93.3505 16.2867 93.3505 16.564C93.3505 16.82 93.4732 17.0173 93.7185 17.156C93.9745 17.284 94.3958 17.428 94.9825 17.588L95.3345 17.684C95.8998 17.8547 96.3745 18.0307 96.7585 18.212C97.1425 18.3827 97.4678 18.628 97.7345 18.948C98.0012 19.2573 98.1345 19.6627 98.1345 20.164C98.1345 20.9213 97.8358 21.5187 97.2385 21.956C96.6412 22.3827 95.8465 22.596 94.8545 22.596ZM104.556 22.5C104.503 22.5 104.455 22.484 104.412 22.452C104.38 22.4093 104.364 22.3613 104.364 22.308V11.492C104.364 11.4387 104.38 11.396 104.412 11.364C104.455 11.3213 104.503 11.3 104.556 11.3H106.028C106.082 11.3 106.124 11.3213 106.156 11.364C106.199 11.396 106.22 11.4387 106.22 11.492V20.82C106.22 20.8733 106.247 20.9 106.3 20.9H111.66C111.714 20.9 111.756 20.9213 111.788 20.964C111.831 20.996 111.852 21.0387 111.852 21.092V22.308C111.852 22.3613 111.831 22.4093 111.788 22.452C111.756 22.484 111.714 22.5 111.66 22.5H104.556ZM120.865 17.492C120.908 17.7587 120.929 18.0573 120.929 18.388L120.913 18.884C120.913 19.012 120.849 19.076 120.721 19.076H115.713C115.66 19.076 115.633 19.1027 115.633 19.156C115.665 19.508 115.713 19.748 115.777 19.876C116.033 20.644 116.657 21.0333 117.649 21.044C118.374 21.044 118.95 20.7453 119.377 20.148C119.42 20.084 119.473 20.052 119.537 20.052C119.58 20.052 119.617 20.068 119.649 20.1L120.641 20.916C120.737 20.9907 120.753 21.076 120.689 21.172C120.358 21.6413 119.916 22.004 119.361 22.26C118.817 22.516 118.209 22.644 117.537 22.644C116.705 22.644 115.996 22.4573 115.409 22.084C114.833 21.7107 114.412 21.188 114.145 20.516C113.9 19.94 113.777 19.14 113.777 18.116C113.777 17.4973 113.841 16.996 113.969 16.612C114.182 15.8653 114.582 15.2787 115.169 14.852C115.766 14.4147 116.481 14.196 117.313 14.196C119.414 14.196 120.598 15.2947 120.865 17.492ZM117.313 15.796C116.918 15.796 116.588 15.8973 116.321 16.1C116.065 16.292 115.884 16.564 115.777 16.916C115.713 17.0973 115.67 17.332 115.649 17.62C115.628 17.6733 115.649 17.7 115.713 17.7H118.961C119.014 17.7 119.041 17.6733 119.041 17.62C119.02 17.3533 118.988 17.1507 118.945 17.012C118.849 16.628 118.657 16.3293 118.369 16.116C118.092 15.9027 117.74 15.796 117.313 15.796ZM127.365 14.308C127.418 14.308 127.461 14.3293 127.493 14.372C127.536 14.404 127.557 14.4467 127.557 14.5V15.764C127.557 15.8173 127.536 15.8653 127.493 15.908C127.461 15.94 127.418 15.956 127.365 15.956H125.781C125.728 15.956 125.701 15.9827 125.701 16.036V22.308C125.701 22.3613 125.68 22.4093 125.637 22.452C125.605 22.484 125.562 22.5 125.509 22.5H124.037C123.984 22.5 123.936 22.484 123.893 22.452C123.861 22.4093 123.845 22.3613 123.845 22.308V16.036C123.845 15.9827 123.818 15.956 123.765 15.956H122.773C122.72 15.956 122.672 15.94 122.629 15.908C122.597 15.8653 122.581 15.8173 122.581 15.764V14.5C122.581 14.4467 122.597 14.404 122.629 14.372C122.672 14.3293 122.72 14.308 122.773 14.308H123.765C123.818 14.308 123.845 14.2813 123.845 14.228V13.94C123.845 13.2467 123.936 12.7133 124.117 12.34C124.298 11.956 124.597 11.684 125.013 11.524C125.429 11.364 126.016 11.2893 126.773 11.3H127.333C127.386 11.3 127.429 11.3213 127.461 11.364C127.504 11.396 127.525 11.4387 127.525 11.492V12.612C127.525 12.6653 127.504 12.7133 127.461 12.756C127.429 12.788 127.386 12.804 127.333 12.804H126.917C126.458 12.804 126.138 12.8947 125.957 13.076C125.786 13.2573 125.701 13.588 125.701 14.068V14.228C125.701 14.2813 125.728 14.308 125.781 14.308H127.365ZM134.1 15.636C134.1 15.6893 134.079 15.7373 134.036 15.78C134.004 15.812 133.962 15.828 133.908 15.828H132.276C132.223 15.828 132.196 15.8547 132.196 15.908V19.764C132.196 20.1693 132.282 20.4627 132.452 20.644C132.634 20.8253 132.916 20.916 133.3 20.916H133.78C133.834 20.916 133.876 20.9373 133.908 20.98C133.951 21.012 133.972 21.0547 133.972 21.108V22.308C133.972 22.4253 133.908 22.4947 133.78 22.516L132.948 22.532C132.106 22.532 131.476 22.388 131.06 22.1C130.644 21.812 130.431 21.268 130.42 20.468V15.908C130.42 15.8547 130.394 15.828 130.34 15.828H129.428C129.375 15.828 129.327 15.812 129.284 15.78C129.252 15.7373 129.236 15.6893 129.236 15.636V14.516C129.236 14.4627 129.252 14.42 129.284 14.388C129.327 14.3453 129.375 14.324 129.428 14.324H130.34C130.394 14.324 130.42 14.2973 130.42 14.244V12.372C130.42 12.3187 130.436 12.276 130.468 12.244C130.511 12.2013 130.559 12.18 130.612 12.18H132.004C132.058 12.18 132.1 12.2013 132.132 12.244C132.175 12.276 132.196 12.3187 132.196 12.372V14.244C132.196 14.2973 132.223 14.324 132.276 14.324H133.908C133.962 14.324 134.004 14.3453 134.036 14.388C134.079 14.42 134.1 14.4627 134.1 14.516V15.636Z" fill="#F46856"/>
</svg>
