<svg width="24" height="20" viewBox="0 0 24 20" fill="none" xmlns="http://www.w3.org/2000/svg">
<path fill-rule="evenodd" clip-rule="evenodd" d="M0.366211 6.37306C0.366211 2.7724 3.52507 0 7.23288 0C9.14417 0 10.826 0.896185 12.0329 2.05578C13.2398 0.896185 14.9216 0 16.8329 0C20.5407 0 23.6995 2.7724 23.6995 6.37306C23.6995 8.83956 22.6477 11.0086 21.1905 12.8421C19.7357 14.6723 17.8328 16.2257 16.0108 17.488C15.3149 17.9701 14.6109 18.4148 13.9666 18.743C13.3616 19.0511 12.6659 19.3333 12.0329 19.3333C11.3999 19.3333 10.7042 19.0511 10.0992 18.743C9.45485 18.4148 8.75083 17.9701 8.05492 17.488C6.23294 16.2257 4.33004 14.6723 2.8753 12.8421C1.41805 11.0086 0.366211 8.83956 0.366211 6.37306ZM7.23288 2C4.46055 2 2.36621 4.0388 2.36621 6.37306C2.36621 8.24439 3.16059 9.98667 4.441 11.5976C5.72392 13.2117 7.45011 14.6359 9.19387 15.8439C9.8537 16.3011 10.4752 16.69 11.0068 16.9608C11.5777 17.2515 11.9084 17.3333 12.0329 17.3333C12.1573 17.3333 12.488 17.2515 13.0589 16.9608C13.5906 16.69 14.2121 16.3011 14.8719 15.8439C16.6156 14.6359 18.3418 13.2117 19.6248 11.5976C20.9052 9.98666 21.6995 8.24439 21.6995 6.37306C21.6995 4.0388 19.6052 2 16.8329 2C15.2407 2 13.7539 2.95123 12.8256 4.15856C12.6363 4.40475 12.3434 4.54902 12.0329 4.54902C11.7223 4.54902 11.4294 4.40475 11.2401 4.15856C10.3118 2.95123 8.82508 2 7.23288 2Z" fill="#3E5B84"/>
</svg>
