<svg width="60" height="60" viewBox="0 0 60 60" fill="none" xmlns="http://www.w3.org/2000/svg">
<path d="M29.5166 1C45.2651 1.00006 58.0332 13.7759 58.0332 29.5371C58.0331 45.2982 45.2651 58.0742 29.5166 58.0742C13.7681 58.0742 1.00006 45.2983 1 29.5371C1 13.7759 13.768 1 29.5166 1Z" fill="#FFF4F4" stroke="#F46856" stroke-width="2"/>
<path d="M17.6056 24.2584C18.5399 22.0415 20.0953 20.1426 22.0841 18.7909C24.0728 17.4391 26.4099 16.6922 28.8134 16.6402C31.2168 16.5883 33.584 17.2334 35.6292 18.4979C37.6745 19.7624 39.3104 21.5922 40.3396 23.7666" stroke="#F46856" stroke-width="2"/>
<path d="M40.5595 33.9469C39.6251 36.1638 38.0697 38.0627 36.0809 39.4145C34.0922 40.7662 31.7551 41.5131 29.3517 41.5651C26.9482 41.6171 24.5811 40.9719 22.5358 39.7074C20.4906 38.443 18.8546 36.6131 17.8254 34.4387" stroke="#F46856" stroke-width="2"/>
<path d="M3.88617 23.9805C3.82856 23.925 3.8043 23.8651 3.81338 23.8009L3.91463 23.0852C3.92761 22.9935 3.97989 22.9545 4.07147 22.9682L13.4124 24.3691C13.504 24.3829 13.5433 24.4356 13.5303 24.5273L13.431 25.2292C13.418 25.321 13.3658 25.36 13.2742 25.3463L5.63658 24.2008C5.6091 24.1967 5.58949 24.2031 5.57773 24.2201C5.56598 24.2371 5.57319 24.2522 5.59937 24.2655L8.71617 27.0238C8.77378 27.0793 8.79804 27.1392 8.78896 27.2034L8.73833 27.5612C8.72925 27.6255 8.69399 27.6764 8.63255 27.714L4.90847 29.4464C4.8797 29.4514 4.8686 29.4638 4.87516 29.4836C4.88172 29.5033 4.89874 29.5152 4.92621 29.5193L12.5226 30.6586C12.6142 30.6723 12.6535 30.7251 12.6405 30.8168L12.5412 31.5187C12.5282 31.6105 12.4759 31.6495 12.3844 31.6357L3.04341 30.2348C2.95183 30.2211 2.91253 30.1683 2.92551 30.0766L3.02676 29.3609C3.03715 29.2875 3.07241 29.2366 3.13255 29.2082L7.41356 27.2079C7.42401 27.2001 7.43054 27.1871 7.43313 27.1687C7.43573 27.1504 7.4331 27.1359 7.42524 27.1254L3.88617 23.9805Z" fill="#F46856"/>
<path d="M10.6433 16.1714C11.139 15.501 11.6916 15.1121 12.301 15.0046C12.9104 14.8972 13.4955 15.0562 14.0563 15.4816L17.7754 18.3031C17.8492 18.3591 17.8586 18.4243 17.8035 18.4988L17.3821 19.0686C17.327 19.1431 17.2626 19.1523 17.1888 19.0963L16.7349 18.7521C16.7202 18.7409 16.7036 18.7399 16.6852 18.7492C16.6723 18.7511 16.6677 18.765 16.6715 18.7911C16.7551 19.1453 16.7458 19.5161 16.6436 19.9036C16.5339 20.2855 16.3441 20.659 16.0742 21.024C15.6831 21.5528 15.2225 21.8952 14.6924 22.0512C14.1623 22.2072 13.6243 22.0781 13.0782 21.6638C12.5248 21.244 12.2381 20.7126 12.2183 20.0696C12.1966 19.4137 12.4529 18.7244 12.9872 18.0019L13.9457 16.7059C13.9678 16.6761 13.964 16.65 13.9345 16.6276L13.5139 16.3085C13.1375 16.023 12.7625 15.9071 12.3887 15.9607C12.0131 16.0013 11.6601 16.2451 11.3295 16.692C11.0651 17.0495 10.9204 17.3932 10.8953 17.723C10.8629 18.0473 10.9492 18.3278 11.1541 18.5647C11.2114 18.643 11.2115 18.7129 11.1546 18.7743L10.6309 19.3189C10.5555 19.3896 10.5012 19.4008 10.468 19.3523C10.0988 18.9792 9.92831 18.501 9.95649 17.9178C9.98466 17.3345 10.2136 16.7524 10.6433 16.1714ZM15.5147 20.3553C15.8397 19.9159 16.0136 19.4548 16.0365 18.9722C16.052 18.4839 15.8753 18.0999 15.5063 17.82L14.6429 17.165C14.6134 17.1426 14.5876 17.1463 14.5656 17.1761L13.698 18.3492C13.3344 18.8408 13.1421 19.3112 13.121 19.7603C13.0998 20.2094 13.2664 20.5683 13.6206 20.837C13.9453 21.0833 14.2751 21.1591 14.6101 21.0644C14.9432 20.9567 15.2447 20.7203 15.5147 20.3553Z" fill="#F46856"/>
<path d="M20.2653 16.5977C20.1832 16.6405 20.1209 16.6208 20.0786 16.5384L15.7573 8.13371C15.715 8.05131 15.7348 7.98869 15.8169 7.94585L16.4451 7.6181C16.5272 7.57526 16.5894 7.59504 16.6318 7.67743L19.2309 12.7326C19.2394 12.7491 19.2498 12.7593 19.2623 12.7632C19.2829 12.7629 19.2972 12.7502 19.3052 12.7252L20.5055 8.61889C20.5254 8.55627 20.564 8.50996 20.6215 8.47997L21.3605 8.09438C21.4098 8.06868 21.4511 8.06802 21.4845 8.09241C21.5178 8.1168 21.5266 8.15405 21.5107 8.20414L20.8365 10.7818C20.8286 10.8069 20.8351 10.8296 20.856 10.85L24.8693 14.0073L24.907 14.0503C24.9409 14.1162 24.9209 14.1685 24.847 14.207L24.1819 14.5541C24.1162 14.5884 24.0541 14.579 23.9956 14.5259L20.5512 11.7458C20.5178 11.7215 20.4952 11.728 20.4832 11.7656L19.8656 13.9063C19.8576 13.9313 19.86 13.9562 19.8727 13.9809L20.953 16.0821C20.9954 16.1645 20.9755 16.2271 20.8934 16.2699L20.2653 16.5977Z" fill="#F46856"/>
<path d="M32.6408 8.99864C32.6857 9.25704 32.714 9.58075 32.7258 9.96976L32.7392 10.4143C32.742 10.507 32.6971 10.5545 32.6046 10.5568L28.1195 10.6713C28.0825 10.6722 28.0645 10.6912 28.0657 10.7283C28.0996 11.2372 28.1373 11.5653 28.1788 11.7126C28.2933 12.1268 28.5208 12.4501 28.8613 12.6824C29.2018 12.9147 29.6313 13.0242 30.1497 13.011C30.5385 13.0011 30.8783 12.9043 31.1692 12.7208C31.4601 12.5372 31.684 12.2813 31.8408 11.9528C31.8938 11.8681 31.9581 11.8479 32.0335 11.8923L32.5847 12.198C32.6602 12.2424 32.6807 12.3068 32.6462 12.3911C32.4282 12.8416 32.0917 13.2024 31.6367 13.4736C31.1814 13.7355 30.6529 13.8741 30.0512 13.8895C29.3937 13.897 28.8381 13.7536 28.3845 13.4593C27.9309 13.1649 27.5987 12.747 27.3878 12.2055C27.2077 11.7652 27.105 11.1282 27.0798 10.2946C27.068 9.9056 27.0631 9.59056 27.0651 9.34951C27.076 9.09896 27.1063 8.87572 27.156 8.67979C27.2952 8.07373 27.5953 7.58406 28.0565 7.21078C28.5269 6.83727 29.1 6.64188 29.7758 6.62464C30.6182 6.60314 31.2726 6.79963 31.7391 7.21412C32.2056 7.6286 32.5062 8.22345 32.6408 8.99864ZM29.8019 7.48603C29.3483 7.4976 28.9724 7.6277 28.6742 7.87632C28.385 8.11543 28.2001 8.43531 28.1196 8.83595C28.0699 9.03188 28.0424 9.34774 28.0371 9.78354C28.0382 9.82059 28.0573 9.83864 28.0943 9.83769L31.6907 9.7459C31.7277 9.74496 31.7457 9.72596 31.7445 9.68891C31.7134 9.27258 31.6767 8.9769 31.6343 8.80186C31.5199 8.38766 31.3016 8.06417 30.9796 7.83138C30.6666 7.5891 30.274 7.47398 29.8019 7.48603Z" fill="#F46856"/>
<path d="M40.4973 9.10108C40.7812 9.21434 41.0047 9.36835 41.1677 9.5631C41.2232 9.62514 41.2274 9.69163 41.1801 9.76257L40.7931 10.3413C40.734 10.4175 40.6681 10.4211 40.5954 10.3522C40.4725 10.2333 40.3164 10.1362 40.1272 10.0607L39.9545 10.0067C39.5005 9.84552 39.0656 9.86651 38.6498 10.0697C38.2373 10.2642 37.9377 10.6035 37.751 11.0876L36.2754 14.913C36.2421 14.9994 36.1824 15.0255 36.0964 14.9912L35.4384 14.7286C35.3523 14.6943 35.326 14.6339 35.3594 14.5474L37.7903 8.24535C37.8236 8.1589 37.8833 8.13284 37.9693 8.16716L38.6273 8.42972C38.7133 8.46404 38.7397 8.52443 38.7063 8.61087L38.4012 9.40188C38.3912 9.42781 38.3888 9.44682 38.3941 9.45889C38.4113 9.46576 38.4275 9.46226 38.4428 9.44841C38.7468 9.20062 39.0698 9.0452 39.4117 8.98213C39.7656 8.91385 40.1275 8.9535 40.4973 9.10108Z" fill="#F46856"/>
<path d="M42.8238 11.7204C42.7521 11.6618 42.7451 11.5963 42.8029 11.5238L44.3197 9.44363C44.3775 9.37121 44.4422 9.3643 44.5139 9.42292L45.0948 9.89775C45.1665 9.95637 45.1735 10.0219 45.1158 10.0943L43.4268 12.0338C43.369 12.1063 43.3043 12.1132 43.2326 12.0546L42.8238 11.7204Z" fill="#F46856"/>
<path d="M42.4111 18.1456C42.1398 17.7033 41.9683 17.2644 41.8965 16.8286C41.8297 16.4008 41.8559 16.0186 41.9754 15.682C42.0997 15.3532 42.3072 15.0982 42.598 14.9168L42.7394 14.8285C42.818 14.7795 42.8815 14.7945 42.9299 14.8734L43.2788 15.442C43.3272 15.521 43.3121 15.585 43.2336 15.634L43.1393 15.6929C42.88 15.8547 42.7344 16.1311 42.7027 16.5222C42.6837 16.9162 42.8002 17.3186 43.0521 17.7292C43.304 18.1399 43.5979 18.4152 43.9336 18.5551C44.2772 18.6902 44.5905 18.6694 44.8734 18.4929C45.0698 18.3703 45.1897 18.2027 45.2331 17.99C45.2813 17.7852 45.285 17.5699 45.2443 17.3442C45.2084 17.1263 45.1317 16.7975 45.014 16.3577C44.8684 15.837 44.7712 15.3953 44.7226 15.0325C44.6739 14.6698 44.699 14.321 44.7979 13.9863C44.9095 13.6546 45.1381 13.3809 45.4839 13.1652C45.9868 12.8514 46.5086 12.7987 47.0495 13.0073C47.5903 13.2158 48.0593 13.6439 48.4566 14.2914C48.7231 14.7258 48.8873 15.1529 48.9493 15.5728C49.0162 16.0007 48.9797 16.3839 48.8396 16.7224C48.7075 17.056 48.4882 17.3184 48.1817 17.5097L48.1464 17.5317C48.0678 17.5807 48.0043 17.5658 47.9558 17.4868L47.6143 16.9301C47.5658 16.8511 47.5809 16.7871 47.6595 16.7381L47.6948 16.716C47.962 16.5493 48.106 16.2793 48.1269 15.9059C48.1526 15.5404 48.0322 15.1405 47.7657 14.7062C47.5186 14.3034 47.2375 14.0311 46.9223 13.8893C46.615 13.7425 46.3198 13.7574 46.037 13.9339C45.7698 14.1006 45.6382 14.3465 45.6421 14.6717C45.646 14.9969 45.7298 15.4523 45.8936 16.0381C46.041 16.5795 46.143 17.0291 46.1995 17.3869C46.2561 17.7448 46.2334 18.0975 46.1315 18.445C46.0375 18.7876 45.8097 19.0716 45.4482 19.2972C44.9375 19.6159 44.4054 19.6695 43.8518 19.4579C43.2983 19.2464 42.8181 18.8089 42.4111 18.1456Z" fill="#F46856"/>
<path d="M45.0021 31.5513C44.9017 30.9104 44.937 30.3281 45.1079 29.8041C45.2881 29.2787 45.5853 28.8428 45.9997 28.4964C46.4246 28.1577 46.939 27.941 47.5428 27.8462L51.3165 27.254C51.9111 27.1607 52.4579 27.2109 52.9569 27.4046C53.4574 27.6075 53.8691 27.9321 54.1922 28.3786C54.5244 28.8236 54.7407 29.3665 54.8411 30.0073C54.9415 30.6481 54.9062 31.2305 54.7353 31.7545C54.5643 32.2784 54.2755 32.7083 53.8688 33.0442C53.4636 33.3891 52.9682 33.6076 52.3827 33.6994C52.337 33.7066 52.2982 33.6986 52.2665 33.6755C52.2347 33.6523 52.216 33.6224 52.2103 33.5858L52.0594 32.8919C52.045 32.8004 52.079 32.7482 52.1613 32.7352L52.2025 32.7288C52.852 32.6269 53.3366 32.3398 53.6563 31.8675C53.9851 31.3938 54.0965 30.8183 53.9903 30.1408C53.8841 29.4634 53.6021 28.9495 53.1442 28.5993C52.6862 28.2491 52.1371 28.1242 51.4967 28.2247L47.6544 28.8276C47.014 28.9281 46.5294 29.2152 46.2006 29.6889C45.8718 30.1626 45.7605 30.7382 45.8666 31.4156C45.9728 32.093 46.2503 32.6076 46.699 32.9593C47.157 33.3095 47.7107 33.4336 48.3602 33.3317L48.3877 33.3274C48.47 33.3145 48.5183 33.3538 48.5327 33.4454L48.6013 34.1521C48.6156 34.2437 48.5816 34.2959 48.4993 34.3088C47.9046 34.4022 47.3571 34.3474 46.8567 34.1445C46.3668 33.9494 45.9603 33.6286 45.6373 33.1822C45.3143 32.7357 45.1025 32.1921 45.0021 31.5513Z" fill="#F46856"/>
<path d="M49.8225 42.1178C49.4566 42.7624 48.9769 43.1665 48.3835 43.33C47.7856 43.5016 47.1685 43.4066 46.5325 43.045L42.547 40.7793C42.4664 40.7335 42.4491 40.6704 42.4948 40.5898L42.8447 39.9734C42.8904 39.8928 42.9536 39.8755 43.0341 39.9212L46.8505 42.0908C47.2934 42.3426 47.7334 42.4116 48.1707 42.2978C48.6035 42.1922 48.9411 41.9258 49.1835 41.4988C49.4351 41.0556 49.5017 40.6193 49.3835 40.1897C49.2653 39.7601 48.9847 39.4195 48.5419 39.1677L44.7013 36.9844C44.6208 36.9386 44.6034 36.8755 44.6492 36.7949L44.9991 36.1785C45.0448 36.0979 45.108 36.0805 45.1885 36.1263L53.401 40.7951C53.4815 40.8409 53.4989 40.904 53.4532 40.9846L53.1033 41.601C53.0575 41.6815 52.9944 41.6989 52.9139 41.6532L50.0516 40.026C50.0355 40.0168 50.0211 40.014 50.0085 40.0175C49.9913 40.029 49.9884 40.0434 50 40.0606C50.2979 40.6989 50.2388 41.3846 49.8225 42.1178Z" fill="#F46856"/>
<path d="M37.6411 43.1934C38.2177 42.8585 38.8002 42.7183 39.3887 42.7729C39.9771 42.8275 40.5025 43.0688 40.9649 43.4966C41.2909 43.8002 41.6328 44.2604 41.9908 44.8775C42.3488 45.4946 42.5763 46.016 42.6734 46.4418C42.8187 47.0431 42.7692 47.613 42.5248 48.1514C42.2804 48.6898 41.8618 49.1312 41.2692 49.4754C40.7006 49.8057 40.1261 49.9413 39.5456 49.882C38.9572 49.8274 38.4404 49.5918 37.9954 49.1754C37.6833 48.8959 37.3414 48.4356 36.9695 47.7944C36.5929 47.1453 36.363 46.6199 36.2799 46.2182C36.1299 45.6089 36.1771 45.035 36.4215 44.4965C36.6579 43.9628 37.0645 43.5284 37.6411 43.1934ZM38.0734 43.9387C37.689 44.1621 37.4211 44.457 37.2697 44.8235C37.1229 45.1981 37.1061 45.5936 37.2192 46.01C37.3145 46.3404 37.5132 46.7661 37.8154 47.287C38.1222 47.8159 38.389 48.202 38.6158 48.4453C38.9211 48.7501 39.2744 48.9253 39.6755 48.9708C40.0733 49.029 40.4684 48.9441 40.8609 48.7162C41.2533 48.4882 41.5229 48.187 41.6696 47.8124C41.8211 47.4459 41.8402 47.0544 41.7271 46.6379C41.6285 46.3202 41.4257 45.8969 41.1189 45.3679C40.8121 44.839 40.5453 44.4529 40.3185 44.2096C40.0212 43.9002 39.6736 43.7164 39.2758 43.6581C38.8747 43.6126 38.4739 43.7061 38.0734 43.9387Z" fill="#F46856"/>
<path d="M32.52 53.7892C32.739 53.7512 32.9341 53.7926 33.1054 53.9134C33.2767 54.0342 33.3813 54.2042 33.4192 54.4233C33.4587 54.6516 33.4173 54.8468 33.295 55.0091C33.1743 55.1805 33.0045 55.2852 32.7855 55.3231C32.5665 55.3611 32.3714 55.3197 32.2001 55.1989C32.0304 55.0872 31.9258 54.9173 31.8863 54.689C31.8484 54.4699 31.8898 54.2746 32.0105 54.1032C32.1312 53.9318 32.301 53.8271 32.52 53.7892ZM31.4879 45.5464C31.5791 45.5305 31.6327 45.5683 31.6485 45.6596L32.8006 52.3158C32.8164 52.4071 32.7787 52.4606 32.6875 52.4764L31.9895 52.5974C31.8982 52.6133 31.8447 52.5755 31.8289 52.4842L30.6767 45.828C30.6609 45.7367 30.6987 45.6832 30.7899 45.6674L31.4879 45.5464Z" fill="#F46856"/>
<path d="M26.106 46.247C26.7073 46.5351 27.1512 46.9379 27.4375 47.4552C27.7114 47.9769 27.7998 48.5433 27.7025 49.1542C27.6351 49.574 27.4414 50.1181 27.1215 50.7868C26.8335 51.3885 26.5353 51.8723 26.2267 52.2382C25.8284 52.6843 25.3382 52.9579 24.7559 53.0591C24.1696 53.1685 23.5758 53.0792 22.9745 52.791C22.3648 52.4989 21.9126 52.0921 21.6179 51.5708C21.3149 51.0454 21.2066 50.5209 21.2929 49.9972C21.3231 49.8267 21.3581 49.6894 21.3977 49.5851L21.4097 49.56C21.4377 49.5015 21.4933 49.4819 21.5764 49.5012L22.2448 49.7136L22.2699 49.7256C22.3284 49.7536 22.3479 49.8092 22.3286 49.8925L22.2762 50.0985C22.1994 50.4521 22.2552 50.8076 22.4435 51.165C22.6279 51.5307 22.9288 51.8137 23.3464 52.0138C23.764 52.2139 24.1688 52.2691 24.5607 52.1796C24.9403 52.0943 25.2599 51.8879 25.5194 51.5601C25.7465 51.2786 25.9861 50.8745 26.238 50.348C26.502 49.7964 26.6684 49.3521 26.7372 49.0152C26.8336 48.5991 26.798 48.2122 26.6304 47.8545C26.4504 47.5011 26.1516 47.2243 25.7341 47.0242C25.3248 46.8281 24.924 46.7645 24.5317 46.8334C24.1271 46.9066 23.8072 47.0924 23.572 47.3906L23.5481 47.4408L23.5115 47.4849C23.4632 47.5645 23.3971 47.5739 23.3132 47.5132L22.7473 47.1187C22.6718 47.062 22.6562 46.998 22.7006 46.9268L22.8707 46.7001C23.2279 46.2754 23.704 46.0206 24.299 45.9359C24.894 45.8511 25.4963 45.9548 26.106 46.247Z" fill="#F46856"/>
<path d="M13.8678 42.3568C14.0621 42.181 14.3205 41.9844 14.6431 41.7668L15.0116 41.5182C15.0884 41.4664 15.1527 41.479 15.2044 41.5558L17.712 45.2787C17.7327 45.3095 17.7584 45.3145 17.7891 45.2938C18.2011 44.9935 18.4582 44.7866 18.5603 44.673C18.8489 44.3554 18.9999 43.991 19.0132 43.5797C19.0266 43.1684 18.8883 42.7476 18.5985 42.3173C18.3811 41.9946 18.1167 41.7595 17.8052 41.612C17.4936 41.4645 17.1569 41.4123 16.795 41.4552C16.6948 41.4557 16.6433 41.4123 16.6403 41.3249L16.6024 40.6967C16.5994 40.6094 16.6428 40.5577 16.7326 40.5419C17.2306 40.4854 17.7164 40.5767 18.1902 40.8159C18.6563 41.0603 19.0576 41.4322 19.394 41.9316C19.7538 42.4824 19.9312 43.0276 19.9262 43.5674C19.9212 44.1071 19.7466 44.6105 19.4022 45.0774C19.1268 45.4643 18.6435 45.8908 17.9525 46.357C17.63 46.5745 17.3663 46.7467 17.1615 46.8737C16.9438 46.9982 16.7388 47.0917 16.5465 47.1544C15.9594 47.3604 15.3841 47.3685 14.8207 47.1786C14.2521 46.981 13.7789 46.6017 13.4011 46.0408C12.9301 45.3415 12.7444 44.6845 12.8441 44.0698C12.9437 43.455 13.2849 42.884 13.8678 42.3568ZM14.1152 45.5591C14.3688 45.9356 14.6808 46.1834 15.0513 46.3023C15.4089 46.4187 15.7786 46.404 16.1606 46.2581C16.3529 46.1954 16.6346 46.0501 17.0059 45.822C17.0366 45.8013 17.0416 45.7756 17.0209 45.7449L15.0102 42.7596C14.9895 42.7289 14.9638 42.7239 14.9331 42.7446C14.5979 42.993 14.3677 43.1818 14.2425 43.3109C13.9539 43.6285 13.7978 43.9853 13.7741 44.3812C13.7375 44.7746 13.8513 45.1672 14.1152 45.5591Z" fill="#F46856"/>
</svg>
