<svg width="94" height="32" viewBox="0 0 94 32" fill="none" xmlns="http://www.w3.org/2000/svg">
<rect width="94" height="32" rx="16" fill="#F46856"/>
<path d="M21.648 17.476C21.7867 17.956 21.856 18.452 21.856 18.964C21.856 19.4653 21.7867 19.94 21.648 20.388C21.424 21.0707 21.0133 21.6147 20.416 22.02C19.8187 22.4147 19.12 22.612 18.32 22.612C17.5307 22.612 16.8427 22.42 16.256 22.036C15.6693 21.6413 15.2587 21.1133 15.024 20.452C14.9387 20.2173 14.8693 19.9507 14.816 19.652V19.62C14.816 19.5027 14.88 19.444 15.008 19.444H16.528C16.6347 19.444 16.704 19.5027 16.736 19.62C16.7467 19.684 16.7733 19.78 16.816 19.908C16.9333 20.26 17.12 20.532 17.376 20.724C17.632 20.916 17.9413 21.012 18.304 21.012C18.6773 21.012 18.9973 20.9107 19.264 20.708C19.5307 20.4947 19.7173 20.2067 19.824 19.844C19.92 19.588 19.968 19.2947 19.968 18.964C19.968 18.6547 19.9253 18.3507 19.84 18.052C19.7653 17.7 19.5947 17.4333 19.328 17.252C19.0613 17.06 18.736 16.964 18.352 16.964C17.9893 16.964 17.6587 17.0493 17.36 17.22C17.072 17.38 16.8853 17.5933 16.8 17.86C16.7573 17.9667 16.6827 18.02 16.576 18.02H15.024C14.9707 18.02 14.9227 18.004 14.88 17.972C14.848 17.9293 14.832 17.8813 14.832 17.828V11.492C14.832 11.4387 14.848 11.396 14.88 11.364C14.9227 11.3213 14.9707 11.3 15.024 11.3H21.248C21.3013 11.3 21.344 11.3213 21.376 11.364C21.4187 11.396 21.44 11.4387 21.44 11.492V12.708C21.44 12.7613 21.4187 12.8093 21.376 12.852C21.344 12.884 21.3013 12.9 21.248 12.9H16.768C16.7147 12.9 16.688 12.9267 16.688 12.98L16.672 15.86C16.672 15.9027 16.6827 15.9293 16.704 15.94C16.7253 15.94 16.7467 15.9293 16.768 15.908C17.2693 15.5347 17.872 15.348 18.576 15.348C19.3227 15.348 19.968 15.54 20.512 15.924C21.0667 16.2973 21.4453 16.8147 21.648 17.476ZM27.6524 22.676C26.5324 22.676 25.6417 22.3613 24.9804 21.732C24.3297 21.092 24.0044 20.2333 24.0044 19.156V14.644C24.0044 13.5773 24.3297 12.7347 24.9804 12.116C25.6417 11.4867 26.5324 11.172 27.6524 11.172C28.7724 11.172 29.663 11.4867 30.3244 12.116C30.9964 12.7347 31.3324 13.5773 31.3324 14.644V19.156C31.3324 20.2333 30.9964 21.092 30.3244 21.732C29.663 22.3613 28.7724 22.676 27.6524 22.676ZM27.6524 21.06C28.207 21.06 28.6497 20.9 28.9804 20.58C29.311 20.2493 29.4764 19.8067 29.4764 19.252V14.58C29.4764 14.0253 29.311 13.588 28.9804 13.268C28.6497 12.9373 28.207 12.772 27.6524 12.772C27.1084 12.772 26.671 12.9373 26.3404 13.268C26.0204 13.588 25.8604 14.0253 25.8604 14.58V19.252C25.8604 19.8067 26.0204 20.2493 26.3404 20.58C26.671 20.9 27.1084 21.06 27.6524 21.06ZM36.4901 16.036C36.0421 16.036 35.6261 15.9293 35.2421 15.716C34.8688 15.492 34.5701 15.1933 34.3461 14.82C34.1328 14.4467 34.0261 14.036 34.0261 13.588C34.0261 13.1507 34.1328 12.7453 34.3461 12.372C34.5701 11.9987 34.8688 11.7053 35.2421 11.492C35.6261 11.268 36.0421 11.156 36.4901 11.156C36.9275 11.156 37.3328 11.268 37.7061 11.492C38.0901 11.7053 38.3888 11.9987 38.6021 12.372C38.8261 12.7453 38.9381 13.1507 38.9381 13.588C38.9381 14.036 38.8261 14.4467 38.6021 14.82C38.3888 15.1933 38.0955 15.492 37.7221 15.716C37.3488 15.9293 36.9381 16.036 36.4901 16.036ZM35.9621 22.5C35.8875 22.5 35.8395 22.4787 35.8181 22.436C35.7968 22.3933 35.8021 22.34 35.8341 22.276L41.8661 11.428C41.9195 11.3427 41.9995 11.3 42.1061 11.3H43.0341C43.1088 11.3 43.1568 11.3213 43.1781 11.364C43.1995 11.4067 43.1941 11.46 43.1621 11.524L37.1461 22.372C37.0928 22.4573 37.0128 22.5 36.9061 22.5H35.9621ZM36.4901 14.916C36.8528 14.916 37.1568 14.788 37.4021 14.532C37.6581 14.276 37.7861 13.9613 37.7861 13.588C37.7861 13.2253 37.6581 12.916 37.4021 12.66C37.1568 12.404 36.8528 12.276 36.4901 12.276C36.1168 12.276 35.8021 12.404 35.5461 12.66C35.2901 12.916 35.1621 13.2253 35.1621 13.588C35.1621 13.9613 35.2901 14.276 35.5461 14.532C35.8021 14.788 36.1168 14.916 36.4901 14.916ZM42.6501 22.644C42.2021 22.644 41.7861 22.5373 41.4021 22.324C41.0288 22.1 40.7301 21.8013 40.5061 21.428C40.2928 21.0547 40.1861 20.644 40.1861 20.196C40.1861 19.7587 40.2928 19.3533 40.5061 18.98C40.7301 18.6067 41.0288 18.3133 41.4021 18.1C41.7861 17.876 42.2021 17.764 42.6501 17.764C43.0875 17.764 43.4928 17.876 43.8661 18.1C44.2501 18.3133 44.5488 18.6067 44.7621 18.98C44.9861 19.3533 45.0981 19.7587 45.0981 20.196C45.0981 20.644 44.9861 21.0547 44.7621 21.428C44.5488 21.8013 44.2555 22.1 43.8821 22.324C43.5088 22.5373 43.0981 22.644 42.6501 22.644ZM42.6501 21.524C43.0128 21.524 43.3221 21.396 43.5781 21.14C43.8341 20.884 43.9621 20.5693 43.9621 20.196C43.9621 19.8333 43.8341 19.524 43.5781 19.268C43.3221 19.012 43.0128 18.884 42.6501 18.884C42.2768 18.884 41.9621 19.012 41.7061 19.268C41.4501 19.524 41.3221 19.8333 41.3221 20.196C41.3221 20.5693 41.4501 20.884 41.7061 21.14C41.9621 21.396 42.2768 21.524 42.6501 21.524ZM55.6294 22.66C54.8294 22.66 54.12 22.5 53.5014 22.18C52.8827 21.8493 52.4027 21.3853 52.0614 20.788C51.7307 20.1907 51.5654 19.5027 51.5654 18.724V15.076C51.5654 14.308 51.736 13.6307 52.0774 13.044C52.4187 12.4467 52.8934 11.988 53.5014 11.668C54.12 11.3373 54.8294 11.172 55.6294 11.172C56.44 11.172 57.1494 11.3373 57.7574 11.668C58.376 11.988 58.856 12.4467 59.1974 13.044C59.5387 13.6307 59.7094 14.308 59.7094 15.076V18.724C59.7094 19.5027 59.5387 20.1907 59.1974 20.788C58.856 21.3853 58.376 21.8493 57.7574 22.18C57.1494 22.5 56.44 22.66 55.6294 22.66ZM55.6294 21.06C56.3014 21.06 56.84 20.852 57.2454 20.436C57.6507 20.02 57.8534 19.4707 57.8534 18.788V15.06C57.8534 14.3667 57.6507 13.812 57.2454 13.396C56.84 12.98 56.3014 12.772 55.6294 12.772C54.968 12.772 54.4347 12.98 54.0294 13.396C53.624 13.812 53.4214 14.3667 53.4214 15.06V18.788C53.4214 19.4707 53.624 20.02 54.0294 20.436C54.4347 20.852 54.968 21.06 55.6294 21.06ZM69.9829 12.708C69.9829 12.7613 69.9615 12.8093 69.9189 12.852C69.8869 12.884 69.8442 12.9 69.7909 12.9H64.3509C64.2975 12.9 64.2709 12.9267 64.2709 12.98V15.972C64.2709 16.0253 64.2975 16.052 64.3509 16.052H68.0149C68.0682 16.052 68.1109 16.0733 68.1429 16.116C68.1855 16.148 68.2069 16.1907 68.2069 16.244V17.46C68.2069 17.5133 68.1855 17.5613 68.1429 17.604C68.1109 17.636 68.0682 17.652 68.0149 17.652H64.3509C64.2975 17.652 64.2709 17.6787 64.2709 17.732V22.308C64.2709 22.3613 64.2495 22.4093 64.2069 22.452C64.1749 22.484 64.1322 22.5 64.0789 22.5H62.6069C62.5535 22.5 62.5055 22.484 62.4629 22.452C62.4309 22.4093 62.4149 22.3613 62.4149 22.308V11.492C62.4149 11.4387 62.4309 11.396 62.4629 11.364C62.5055 11.3213 62.5535 11.3 62.6069 11.3H69.7909C69.8442 11.3 69.8869 11.3213 69.9189 11.364C69.9615 11.396 69.9829 11.4387 69.9829 11.492V12.708ZM79.6385 12.708C79.6385 12.7613 79.6172 12.8093 79.5745 12.852C79.5425 12.884 79.4998 12.9 79.4465 12.9H74.0065C73.9532 12.9 73.9265 12.9267 73.9265 12.98V15.972C73.9265 16.0253 73.9532 16.052 74.0065 16.052H77.6705C77.7238 16.052 77.7665 16.0733 77.7985 16.116C77.8412 16.148 77.8625 16.1907 77.8625 16.244V17.46C77.8625 17.5133 77.8412 17.5613 77.7985 17.604C77.7665 17.636 77.7238 17.652 77.6705 17.652H74.0065C73.9532 17.652 73.9265 17.6787 73.9265 17.732V22.308C73.9265 22.3613 73.9052 22.4093 73.8625 22.452C73.8305 22.484 73.7878 22.5 73.7345 22.5H72.2625C72.2092 22.5 72.1612 22.484 72.1185 22.452C72.0865 22.4093 72.0705 22.3613 72.0705 22.308V11.492C72.0705 11.4387 72.0865 11.396 72.1185 11.364C72.1612 11.3213 72.2092 11.3 72.2625 11.3H79.4465C79.4998 11.3 79.5425 11.3213 79.5745 11.364C79.6172 11.396 79.6385 11.4387 79.6385 11.492V12.708Z" fill="white"/>
</svg>
