<svg width="125" height="32" viewBox="0 0 125 32" fill="none" xmlns="http://www.w3.org/2000/svg">
<rect x="0.533203" y="0.5" width="123" height="31" rx="15.5" fill="#F5F5F5"/>
<rect x="0.533203" y="0.5" width="123" height="31" rx="15.5" stroke="#AFAFAF"/>
<path d="M18.9932 22.66C18.1932 22.66 17.4839 22.5 16.8652 22.18C16.2465 21.8493 15.7665 21.3853 15.4252 20.788C15.0945 20.1907 14.9292 19.5027 14.9292 18.724V15.076C14.9292 14.308 15.0999 13.6307 15.4412 13.044C15.7825 12.4467 16.2572 11.988 16.8652 11.668C17.4839 11.3373 18.1932 11.172 18.9932 11.172C19.8039 11.172 20.5132 11.3373 21.1212 11.668C21.7399 11.988 22.2199 12.4467 22.5612 13.044C22.9025 13.6307 23.0732 14.308 23.0732 15.076V18.724C23.0732 19.5027 22.9025 20.1907 22.5612 20.788C22.2199 21.3853 21.7399 21.8493 21.1212 22.18C20.5132 22.5 19.8039 22.66 18.9932 22.66ZM18.9932 21.06C19.6652 21.06 20.2039 20.852 20.6092 20.436C21.0145 20.02 21.2172 19.4707 21.2172 18.788V15.06C21.2172 14.3667 21.0145 13.812 20.6092 13.396C20.2039 12.98 19.6652 12.772 18.9932 12.772C18.3319 12.772 17.7985 12.98 17.3932 13.396C16.9879 13.812 16.7852 14.3667 16.7852 15.06V18.788C16.7852 19.4707 16.9879 20.02 17.3932 20.436C17.7985 20.852 18.3319 21.06 18.9932 21.06ZM30.4347 14.516C30.4347 14.4627 30.4507 14.42 30.4827 14.388C30.5254 14.3453 30.5734 14.324 30.6267 14.324H32.0827C32.136 14.324 32.1787 14.3453 32.2107 14.388C32.2534 14.42 32.2747 14.4627 32.2747 14.516V22.308C32.2747 22.3613 32.2534 22.4093 32.2107 22.452C32.1787 22.484 32.136 22.5 32.0827 22.5H30.6267C30.5734 22.5 30.5254 22.484 30.4827 22.452C30.4507 22.4093 30.4347 22.3613 30.4347 22.308V21.796C30.4347 21.764 30.424 21.7427 30.4027 21.732C30.3814 21.7213 30.36 21.732 30.3387 21.764C29.9014 22.3293 29.2454 22.612 28.3707 22.612C27.56 22.612 26.8774 22.3773 26.3227 21.908C25.7787 21.4387 25.5067 20.772 25.5067 19.908V14.516C25.5067 14.4627 25.5227 14.42 25.5547 14.388C25.5974 14.3453 25.6454 14.324 25.6987 14.324H27.1707C27.224 14.324 27.2667 14.3453 27.2987 14.388C27.3414 14.42 27.3627 14.4627 27.3627 14.516V19.38C27.3627 19.8813 27.4907 20.2813 27.7467 20.58C28.0134 20.8787 28.3814 21.028 28.8507 21.028C29.3307 21.028 29.7147 20.8787 30.0027 20.58C30.2907 20.2813 30.4347 19.8813 30.4347 19.38V14.516ZM39.235 15.636C39.235 15.6893 39.2136 15.7373 39.171 15.78C39.139 15.812 39.0963 15.828 39.043 15.828H37.411C37.3576 15.828 37.331 15.8547 37.331 15.908V19.764C37.331 20.1693 37.4163 20.4627 37.587 20.644C37.7683 20.8253 38.051 20.916 38.435 20.916H38.915C38.9683 20.916 39.011 20.9373 39.043 20.98C39.0856 21.012 39.107 21.0547 39.107 21.108V22.308C39.107 22.4253 39.043 22.4947 38.915 22.516L38.083 22.532C37.2403 22.532 36.611 22.388 36.195 22.1C35.779 21.812 35.5656 21.268 35.555 20.468V15.908C35.555 15.8547 35.5283 15.828 35.475 15.828H34.563C34.5096 15.828 34.4616 15.812 34.419 15.78C34.387 15.7373 34.371 15.6893 34.371 15.636V14.516C34.371 14.4627 34.387 14.42 34.419 14.388C34.4616 14.3453 34.5096 14.324 34.563 14.324H35.475C35.5283 14.324 35.555 14.2973 35.555 14.244V12.372C35.555 12.3187 35.571 12.276 35.603 12.244C35.6456 12.2013 35.6936 12.18 35.747 12.18H37.139C37.1923 12.18 37.235 12.2013 37.267 12.244C37.3096 12.276 37.331 12.3187 37.331 12.372V14.244C37.331 14.2973 37.3576 14.324 37.411 14.324H39.043C39.0963 14.324 39.139 14.3453 39.171 14.388C39.2136 14.42 39.235 14.4627 39.235 14.516V15.636ZM49.3345 22.66C48.5345 22.66 47.8251 22.5 47.2065 22.18C46.5878 21.8493 46.1078 21.3853 45.7665 20.788C45.4358 20.1907 45.2705 19.5027 45.2705 18.724V15.076C45.2705 14.308 45.4411 13.6307 45.7825 13.044C46.1238 12.4467 46.5985 11.988 47.2065 11.668C47.8251 11.3373 48.5345 11.172 49.3345 11.172C50.1451 11.172 50.8545 11.3373 51.4625 11.668C52.0811 11.988 52.5611 12.4467 52.9025 13.044C53.2438 13.6307 53.4145 14.308 53.4145 15.076V18.724C53.4145 19.5027 53.2438 20.1907 52.9025 20.788C52.5611 21.3853 52.0811 21.8493 51.4625 22.18C50.8545 22.5 50.1451 22.66 49.3345 22.66ZM49.3345 21.06C50.0065 21.06 50.5451 20.852 50.9505 20.436C51.3558 20.02 51.5585 19.4707 51.5585 18.788V15.06C51.5585 14.3667 51.3558 13.812 50.9505 13.396C50.5451 12.98 50.0065 12.772 49.3345 12.772C48.6731 12.772 48.1398 12.98 47.7345 13.396C47.3291 13.812 47.1265 14.3667 47.1265 15.06V18.788C47.1265 19.4707 47.3291 20.02 47.7345 20.436C48.1398 20.852 48.6731 21.06 49.3345 21.06ZM60.2 14.308C60.2533 14.308 60.296 14.3293 60.328 14.372C60.3706 14.404 60.392 14.4467 60.392 14.5V15.764C60.392 15.8173 60.3706 15.8653 60.328 15.908C60.296 15.94 60.2533 15.956 60.2 15.956H58.616C58.5626 15.956 58.536 15.9827 58.536 16.036V22.308C58.536 22.3613 58.5146 22.4093 58.472 22.452C58.44 22.484 58.3973 22.5 58.344 22.5H56.872C56.8186 22.5 56.7706 22.484 56.728 22.452C56.696 22.4093 56.68 22.3613 56.68 22.308V16.036C56.68 15.9827 56.6533 15.956 56.6 15.956H55.608C55.5546 15.956 55.5066 15.94 55.464 15.908C55.432 15.8653 55.416 15.8173 55.416 15.764V14.5C55.416 14.4467 55.432 14.404 55.464 14.372C55.5066 14.3293 55.5546 14.308 55.608 14.308H56.6C56.6533 14.308 56.68 14.2813 56.68 14.228V13.94C56.68 13.2467 56.7706 12.7133 56.952 12.34C57.1333 11.956 57.432 11.684 57.848 11.524C58.264 11.364 58.8506 11.2893 59.608 11.3H60.168C60.2213 11.3 60.264 11.3213 60.296 11.364C60.3386 11.396 60.36 11.4387 60.36 11.492V12.612C60.36 12.6653 60.3386 12.7133 60.296 12.756C60.264 12.788 60.2213 12.804 60.168 12.804H59.752C59.2933 12.804 58.9733 12.8947 58.792 13.076C58.6213 13.2573 58.536 13.588 58.536 14.068V14.228C58.536 14.2813 58.5626 14.308 58.616 14.308H60.2ZM70.2347 22.628C69.4027 22.628 68.6774 22.4947 68.0587 22.228C67.44 21.9613 66.96 21.588 66.6187 21.108C66.288 20.628 66.1227 20.0627 66.1227 19.412V19.012C66.1227 18.9587 66.1387 18.916 66.1707 18.884C66.2134 18.8413 66.2614 18.82 66.3147 18.82H67.7387C67.792 18.82 67.8347 18.8413 67.8667 18.884C67.9094 18.916 67.9307 18.9587 67.9307 19.012V19.316C67.9307 19.8067 68.1494 20.2173 68.5867 20.548C69.024 20.868 69.6214 21.028 70.3787 21.028C71.0294 21.028 71.52 20.8893 71.8507 20.612C72.1814 20.3347 72.3467 19.9773 72.3467 19.54C72.3467 19.2413 72.256 18.9907 72.0747 18.788C71.8934 18.5747 71.632 18.3827 71.2907 18.212C70.96 18.0413 70.4587 17.828 69.7867 17.572C69.0294 17.2947 68.416 17.0333 67.9467 16.788C67.4774 16.5427 67.0827 16.212 66.7627 15.796C66.4534 15.3693 66.2987 14.8413 66.2987 14.212C66.2987 13.2733 66.64 12.532 67.3227 11.988C68.0054 11.444 68.9174 11.172 70.0587 11.172C70.8587 11.172 71.5627 11.3107 72.1707 11.588C72.7894 11.8653 73.2694 12.2547 73.6107 12.756C73.952 13.2467 74.1227 13.8173 74.1227 14.468V14.74C74.1227 14.7933 74.1014 14.8413 74.0587 14.884C74.0267 14.916 73.984 14.932 73.9307 14.932H72.4907C72.4374 14.932 72.3894 14.916 72.3467 14.884C72.3147 14.8413 72.2987 14.7933 72.2987 14.74V14.564C72.2987 14.0627 72.0907 13.6413 71.6747 13.3C71.2694 12.948 70.704 12.772 69.9787 12.772C69.392 12.772 68.9334 12.8947 68.6027 13.14C68.2827 13.3853 68.1227 13.732 68.1227 14.18C68.1227 14.5 68.208 14.7613 68.3787 14.964C68.5494 15.1667 68.8054 15.3533 69.1467 15.524C69.488 15.684 70.016 15.892 70.7307 16.148C71.488 16.436 72.0907 16.6973 72.5387 16.932C72.9974 17.1667 73.3867 17.4973 73.7067 17.924C74.0374 18.34 74.2027 18.8627 74.2027 19.492C74.2027 20.452 73.8454 21.2147 73.1307 21.78C72.4267 22.3453 71.4614 22.628 70.2347 22.628ZM80.8718 15.636C80.8718 15.6893 80.8505 15.7373 80.8078 15.78C80.7758 15.812 80.7332 15.828 80.6798 15.828H79.0478C78.9945 15.828 78.9678 15.8547 78.9678 15.908V19.764C78.9678 20.1693 79.0532 20.4627 79.2238 20.644C79.4052 20.8253 79.6878 20.916 80.0718 20.916H80.5518C80.6052 20.916 80.6478 20.9373 80.6798 20.98C80.7225 21.012 80.7438 21.0547 80.7438 21.108V22.308C80.7438 22.4253 80.6798 22.4947 80.5518 22.516L79.7198 22.532C78.8772 22.532 78.2478 22.388 77.8318 22.1C77.4158 21.812 77.2025 21.268 77.1918 20.468V15.908C77.1918 15.8547 77.1652 15.828 77.1118 15.828H76.1998C76.1465 15.828 76.0985 15.812 76.0558 15.78C76.0238 15.7373 76.0078 15.6893 76.0078 15.636V14.516C76.0078 14.4627 76.0238 14.42 76.0558 14.388C76.0985 14.3453 76.1465 14.324 76.1998 14.324H77.1118C77.1652 14.324 77.1918 14.2973 77.1918 14.244V12.372C77.1918 12.3187 77.2078 12.276 77.2398 12.244C77.2825 12.2013 77.3305 12.18 77.3838 12.18H78.7758C78.8292 12.18 78.8718 12.2013 78.9038 12.244C78.9465 12.276 78.9678 12.3187 78.9678 12.372V14.244C78.9678 14.2973 78.9945 14.324 79.0478 14.324H80.6798C80.7332 14.324 80.7758 14.3453 80.8078 14.388C80.8505 14.42 80.8718 14.4627 80.8718 14.516V15.636ZM86.476 22.628C85.6333 22.628 84.908 22.4147 84.3 21.988C83.7026 21.5613 83.2813 20.9693 83.036 20.212C82.8546 19.636 82.764 19.028 82.764 18.388C82.764 17.7053 82.8493 17.0973 83.02 16.564C83.2653 15.8173 83.692 15.236 84.3 14.82C84.908 14.404 85.6386 14.196 86.492 14.196C87.3026 14.196 88.0013 14.404 88.588 14.82C89.1853 15.236 89.6066 15.812 89.852 16.548C90.044 17.06 90.14 17.668 90.14 18.372C90.14 19.044 90.0493 19.652 89.868 20.196C89.6226 20.9533 89.2013 21.5507 88.604 21.988C88.0066 22.4147 87.2973 22.628 86.476 22.628ZM86.476 21.028C86.8706 21.028 87.2066 20.916 87.484 20.692C87.772 20.468 87.98 20.1533 88.108 19.748C88.2146 19.396 88.268 18.948 88.268 18.404C88.268 17.828 88.2146 17.38 88.108 17.06C87.9906 16.6547 87.788 16.3453 87.5 16.132C87.212 15.908 86.86 15.796 86.444 15.796C86.0493 15.796 85.708 15.908 85.42 16.132C85.132 16.3453 84.924 16.6547 84.796 17.06C84.6893 17.4333 84.636 17.8813 84.636 18.404C84.636 18.9267 84.6893 19.3747 84.796 19.748C84.9133 20.1533 85.116 20.468 85.404 20.692C85.7026 20.916 86.06 21.028 86.476 21.028ZM95.9426 22.628C95.1212 22.628 94.4119 22.42 93.8146 22.004C93.2172 21.5773 92.8012 21.0067 92.5666 20.292C92.3959 19.812 92.3106 19.172 92.3106 18.372C92.3106 17.604 92.3959 16.9747 92.5666 16.484C92.7906 15.78 93.2012 15.2253 93.7986 14.82C94.4066 14.404 95.1212 14.196 95.9426 14.196C96.7746 14.196 97.4999 14.404 98.1186 14.82C98.7372 15.236 99.1479 15.7587 99.3506 16.388C99.4039 16.5587 99.4412 16.7293 99.4626 16.9V16.932C99.4626 17.0387 99.4039 17.1027 99.2866 17.124L97.8466 17.332H97.8146C97.7186 17.332 97.6546 17.2787 97.6226 17.172C97.6226 17.1187 97.6172 17.076 97.6066 17.044C97.5852 16.9587 97.5639 16.884 97.5426 16.82C97.4466 16.5213 97.2546 16.276 96.9666 16.084C96.6786 15.892 96.3372 15.796 95.9426 15.796C95.5372 15.796 95.1906 15.9027 94.9026 16.116C94.6252 16.3187 94.4386 16.6013 94.3426 16.964C94.2359 17.3053 94.1826 17.78 94.1826 18.388C94.1826 18.9747 94.2306 19.4493 94.3266 19.812C94.4332 20.1853 94.6252 20.484 94.9026 20.708C95.1799 20.9213 95.5266 21.028 95.9426 21.028C96.3479 21.028 96.6946 20.9267 96.9826 20.724C97.2812 20.5107 97.4732 20.228 97.5586 19.876C97.5692 19.8547 97.5746 19.828 97.5746 19.796C97.5852 19.7853 97.5906 19.7693 97.5906 19.748C97.6226 19.62 97.6972 19.5667 97.8146 19.588L99.2546 19.812C99.3079 19.8227 99.3506 19.8493 99.3826 19.892C99.4252 19.924 99.4412 19.972 99.4306 20.036C99.3986 20.2067 99.3719 20.3293 99.3506 20.404C99.1479 21.0867 98.7372 21.6307 98.1186 22.036C97.4999 22.4307 96.7746 22.628 95.9426 22.628ZM101.867 22.5C101.813 22.5 101.765 22.484 101.723 22.452C101.691 22.4093 101.675 22.3613 101.675 22.308V11.492C101.675 11.4387 101.691 11.396 101.723 11.364C101.765 11.3213 101.813 11.3 101.867 11.3H103.339C103.392 11.3 103.435 11.3213 103.467 11.364C103.509 11.396 103.531 11.4387 103.531 11.492V17.268C103.531 17.3 103.541 17.3213 103.563 17.332C103.584 17.3427 103.605 17.332 103.627 17.3L106.219 14.436C106.293 14.3613 106.373 14.324 106.459 14.324H108.155C108.261 14.324 108.315 14.3613 108.315 14.436C108.315 14.468 108.299 14.5107 108.267 14.564L106.235 16.996C106.203 17.028 106.197 17.0653 106.219 17.108L108.619 22.276C108.64 22.3187 108.651 22.3507 108.651 22.372C108.651 22.4573 108.592 22.5 108.475 22.5H106.923C106.816 22.5 106.741 22.452 106.699 22.356L104.955 18.292C104.944 18.2707 104.923 18.26 104.891 18.26C104.869 18.2493 104.853 18.2547 104.843 18.276L103.563 19.748C103.541 19.7907 103.531 19.828 103.531 19.86V22.308C103.531 22.3613 103.509 22.4093 103.467 22.452C103.435 22.484 103.392 22.5 103.339 22.5H101.867Z" fill="#AFAFAF"/>
</svg>
