<svg width="64" height="73" viewBox="0 0 64 73" fill="none" xmlns="http://www.w3.org/2000/svg">
<path d="M63.8914 55.566C57.7621 65.8857 48.0973 72.7655 35.5454 72.7655C16.3239 72.7655 0.730469 56.6304 0.730469 36.7159C0.730469 16.8014 16.3239 0.66626 35.5454 0.66626C40.7175 0.66626 60.4176 3.62798 60.4176 14.3642C60.4176 22.6478 43.0024 29.034 15.3975 36.1914C15.5365 37.5335 15.7372 38.8909 15.9842 40.2484C19.319 58.682 31.0372 67.3203 43.1568 67.3203C49.1317 67.3203 57.4225 63.8341 62.6563 54.6867L63.8759 55.566H63.8914ZM15.274 34.8494C39.1736 27.7074 46.6769 21.1206 46.6769 15.0121C46.6769 8.48704 38.1546 1.88488 29.5242 3.33489C19.7667 4.98543 13.9154 18.6679 15.2894 34.8494H15.274Z" fill="#D7E7FF"/>
</svg>
