<svg width="122" height="71" viewBox="0 0 122 71" fill="none" xmlns="http://www.w3.org/2000/svg">
<path d="M121.227 69.2949V70.3592H86.6433V69.2949C95.9221 69.2949 99.5812 64.1273 99.5812 43.133V26.9361C99.5812 10.076 92.402 5.41742 86.3345 5.41742C81.4712 5.41742 75.3111 8.31744 67.8077 19.0537C68.1628 21.4292 68.3481 24.0516 68.3481 26.9361V43.133C68.3481 64.1273 72.0071 69.2949 81.286 69.2949V70.3592H40.4344V69.2949C49.7132 69.2949 53.3723 64.1273 53.3723 43.133V26.9361C53.3723 10.076 46.1931 5.41742 40.1256 5.41742C35.4013 5.41742 29.4264 8.16318 22.1855 18.2207V43.1485C22.1855 64.1427 25.8445 69.3103 35.1234 69.3103V70.3747H0.540039V69.3103C6.11352 69.3103 7.20967 64.6826 7.20967 43.1639V30.2681C7.20967 8.74936 6.09808 8.16318 0.540039 8.16318V7.09881L22.1855 3.05731V15.4595C31.171 3.21156 39.0449 0.681763 48.8641 0.681763C58.6833 0.681763 65.0287 5.63338 67.3909 16.8478C76.8087 3.39667 84.8833 0.681763 95.0576 0.681763C107.038 0.681763 114.526 8.56425 114.526 26.9516V43.1639C114.526 64.6826 115.638 69.3103 121.196 69.3103L121.227 69.2949Z" fill="#D7E7FF"/>
</svg>
