<svg width="58" height="71" viewBox="0 0 58 71" fill="none" xmlns="http://www.w3.org/2000/svg">
<path d="M57.0701 8.14768C57.0701 12.2817 53.7198 15.6291 49.5822 15.6291C42.5729 15.6291 41.2451 8.07055 35.1776 8.07055C32.4603 8.07055 25.4819 11.5876 21.7148 16.9094V43.133C21.7148 64.1272 25.3738 69.2948 34.6527 69.2948V70.3592H0.0693359V69.2948C5.64281 69.2948 6.73898 64.6671 6.73898 43.133V30.2526C6.73898 8.73385 6.18318 7.02161 0.0693359 8.14768V7.08331L21.7148 3.0418V14.4722C29.8203 5.61788 38.5742 0.66626 46.4481 0.66626C54.322 0.66626 57.0855 4.75405 57.0855 8.14768H57.0701Z" fill="#D7E7FF"/>
</svg>
