<svg width="20" height="16" viewBox="0 0 20 16" fill="none" xmlns="http://www.w3.org/2000/svg">
<path d="M5.28924 0.907629C8.42388 0.63514 11.5763 0.63514 14.7109 0.907628L16.2211 1.03891C17.2265 1.12631 18.0876 1.72597 18.5337 2.58375C18.5908 2.69349 18.548 2.82635 18.4428 2.89146L12.1769 6.77038C10.833 7.6023 9.1385 7.61975 7.77778 6.81569L1.46995 3.08834C1.36804 3.02812 1.32126 2.90416 1.36719 2.79506C1.77535 1.82549 2.69298 1.13332 3.77901 1.03891L5.28924 0.907629Z" fill="#30578E"/>
<path d="M1.36206 4.7669C1.20609 4.67474 1.00709 4.77391 0.988912 4.95415C0.735176 7.46979 0.796587 10.0092 1.17314 12.5133C1.37166 13.8335 2.44907 14.8455 3.77901 14.9611L5.28924 15.0924C8.42388 15.3649 11.5763 15.3649 14.7109 15.0924L16.2211 14.9611C17.5511 14.8455 18.6285 13.8335 18.827 12.5133C19.2145 9.93627 19.2683 7.32175 18.9882 4.73429C18.9686 4.55277 18.7662 4.45543 18.611 4.55153L12.9664 8.04578C11.1482 9.17132 8.85566 9.19493 7.01468 8.10708L1.36206 4.7669Z" fill="#30578E"/>
</svg>
