<svg width="20" height="20" viewBox="0 0 20 20" fill="none" xmlns="http://www.w3.org/2000/svg">
<path d="M9.99994 6.75002C8.20501 6.75002 6.74994 8.20509 6.74994 10C6.74994 11.7949 8.20501 13.25 9.99994 13.25C11.7949 13.25 13.2499 11.7949 13.2499 10C13.2499 8.20509 11.7949 6.75002 9.99994 6.75002Z" fill="#30578E"/>
<path fill-rule="evenodd" clip-rule="evenodd" d="M4.76948 1.08148C8.2176 0.696105 11.7823 0.696105 15.2304 1.08148C17.1288 1.29366 18.66 2.78944 18.8828 4.69449C19.2951 8.21949 19.2951 11.7805 18.8828 15.3055C18.66 17.2106 17.1288 18.7064 15.2304 18.9185C11.7823 19.3039 8.2176 19.3039 4.76948 18.9185C2.87108 18.7064 1.33989 17.2106 1.11707 15.3055C0.704791 11.7805 0.704791 8.21949 1.11707 4.69449C1.33989 2.78944 2.87108 1.29366 4.76948 1.08148ZM14.9999 4.00002C14.4477 4.00002 13.9999 4.44773 13.9999 5.00002C13.9999 5.5523 14.4477 6.00002 14.9999 6.00002C15.5522 6.00002 15.9999 5.5523 15.9999 5.00002C15.9999 4.44773 15.5522 4.00002 14.9999 4.00002ZM5.24994 10C5.24994 7.37666 7.37659 5.25002 9.99994 5.25002C12.6233 5.25002 14.7499 7.37666 14.7499 10C14.7499 12.6234 12.6233 14.75 9.99994 14.75C7.37659 14.75 5.24994 12.6234 5.24994 10Z" fill="#30578E"/>
</svg>
