<svg width="69" height="68" viewBox="0 0 69 68" fill="none" xmlns="http://www.w3.org/2000/svg">
<mask id="path-1-outside-1_35_249" maskUnits="userSpaceOnUse" x="0" y="0" width="69" height="68" fill="black">
<rect fill="white" width="69" height="68"/>
<path d="M18.16 5.576C23.216 2.632 28.688 1.16 34.576 1.16C40.528 1.16 46.032 2.632 51.088 5.576C56.144 8.52 60.112 12.52 62.992 17.576C65.936 22.568 67.408 28.04 67.408 33.992C67.408 43.784 64.08 48.68 57.424 48.68C55.568 48.68 53.936 48.424 52.528 47.912C51.12 47.4 49.968 46.664 49.072 45.704C48.24 44.744 47.664 43.592 47.344 42.248C44.336 47.752 39.216 50.504 31.984 50.504C29.744 50.504 27.44 50.184 25.072 49.544C22.704 48.84 20.464 47.88 18.352 46.664C16.24 45.384 14.512 43.656 13.168 41.48C11.824 39.304 11.152 36.872 11.152 34.184C11.152 31.304 11.824 28.744 13.168 26.504C14.512 24.264 16.24 22.536 18.352 21.32C20.528 20.04 22.768 19.08 25.072 18.44C27.376 17.8 29.68 17.48 31.984 17.48C37.36 17.48 42.384 18.504 47.056 20.552L58.192 19.208V37.928C58.192 39.656 58.256 41.096 58.384 42.248C58.512 43.4 58.8 44.328 59.248 45.032C59.696 45.736 60.304 46.088 61.072 46.088C62.352 46.088 63.472 45 64.432 42.824C65.392 40.584 65.872 37.64 65.872 33.992C65.872 28.36 64.464 23.144 61.648 18.344C58.896 13.544 55.12 9.768 50.32 7.016C45.52 4.2 40.304 2.792 34.672 2.792C30.384 2.792 26.32 3.624 22.48 5.288C18.64 6.888 15.312 9.096 12.496 11.912C9.744 14.664 7.536 17.992 5.872 21.896C4.208 25.736 3.376 29.768 3.376 33.992C3.376 39.624 4.784 44.84 7.6 49.64C10.416 54.44 14.192 58.248 18.928 61.064C23.728 63.816 28.976 65.192 34.672 65.192C42.288 65.192 48.976 62.728 54.736 57.8L55.696 59.144C49.616 64.264 42.608 66.824 34.672 66.824C28.72 66.824 23.216 65.352 18.16 62.408C13.104 59.464 9.104 55.496 6.16 50.504C3.28 45.448 1.84 39.944 1.84 33.992C1.84 28.04 3.28 22.568 6.16 17.576C9.104 12.52 13.104 8.52 18.16 5.576ZM47.056 40.616V22.088C42.64 20.04 38.224 19.272 33.808 19.784C30.736 20.168 28.112 21.64 25.936 24.2C23.76 26.696 22.8 29.8 23.056 33.512C23.312 38.376 24.912 42.088 27.856 44.648C30.8 47.144 34.192 48.04 38.032 47.336C40.08 46.952 41.904 46.152 43.504 44.936C45.168 43.656 46.352 42.216 47.056 40.616Z"/>
</mask>
<path d="M18.16 5.576C23.216 2.632 28.688 1.16 34.576 1.16C40.528 1.16 46.032 2.632 51.088 5.576C56.144 8.52 60.112 12.52 62.992 17.576C65.936 22.568 67.408 28.04 67.408 33.992C67.408 43.784 64.08 48.68 57.424 48.68C55.568 48.68 53.936 48.424 52.528 47.912C51.12 47.4 49.968 46.664 49.072 45.704C48.24 44.744 47.664 43.592 47.344 42.248C44.336 47.752 39.216 50.504 31.984 50.504C29.744 50.504 27.44 50.184 25.072 49.544C22.704 48.84 20.464 47.88 18.352 46.664C16.24 45.384 14.512 43.656 13.168 41.48C11.824 39.304 11.152 36.872 11.152 34.184C11.152 31.304 11.824 28.744 13.168 26.504C14.512 24.264 16.24 22.536 18.352 21.32C20.528 20.04 22.768 19.08 25.072 18.44C27.376 17.8 29.68 17.48 31.984 17.48C37.36 17.48 42.384 18.504 47.056 20.552L58.192 19.208V37.928C58.192 39.656 58.256 41.096 58.384 42.248C58.512 43.4 58.8 44.328 59.248 45.032C59.696 45.736 60.304 46.088 61.072 46.088C62.352 46.088 63.472 45 64.432 42.824C65.392 40.584 65.872 37.64 65.872 33.992C65.872 28.36 64.464 23.144 61.648 18.344C58.896 13.544 55.12 9.768 50.32 7.016C45.52 4.2 40.304 2.792 34.672 2.792C30.384 2.792 26.32 3.624 22.48 5.288C18.64 6.888 15.312 9.096 12.496 11.912C9.744 14.664 7.536 17.992 5.872 21.896C4.208 25.736 3.376 29.768 3.376 33.992C3.376 39.624 4.784 44.84 7.6 49.64C10.416 54.44 14.192 58.248 18.928 61.064C23.728 63.816 28.976 65.192 34.672 65.192C42.288 65.192 48.976 62.728 54.736 57.8L55.696 59.144C49.616 64.264 42.608 66.824 34.672 66.824C28.72 66.824 23.216 65.352 18.16 62.408C13.104 59.464 9.104 55.496 6.16 50.504C3.28 45.448 1.84 39.944 1.84 33.992C1.84 28.04 3.28 22.568 6.16 17.576C9.104 12.52 13.104 8.52 18.16 5.576ZM47.056 40.616V22.088C42.64 20.04 38.224 19.272 33.808 19.784C30.736 20.168 28.112 21.64 25.936 24.2C23.76 26.696 22.8 29.8 23.056 33.512C23.312 38.376 24.912 42.088 27.856 44.648C30.8 47.144 34.192 48.04 38.032 47.336C40.08 46.952 41.904 46.152 43.504 44.936C45.168 43.656 46.352 42.216 47.056 40.616Z" fill="#D7E7FF"/>
<path d="M62.992 17.576L62.1231 18.071L62.1268 18.0775L62.1306 18.084L62.992 17.576ZM49.072 45.704L48.3163 46.3589L48.3284 46.3728L48.3409 46.3863L49.072 45.704ZM47.344 42.248L48.3168 42.0164L47.7142 39.4854L46.4665 41.7684L47.344 42.248ZM25.072 49.544L24.787 50.5025L24.799 50.5061L24.8111 50.5094L25.072 49.544ZM18.352 46.664L17.8337 47.5192L17.8433 47.525L17.853 47.5306L18.352 46.664ZM13.168 41.48L12.3172 42.0055L13.168 41.48ZM18.352 21.32L18.851 22.1867L18.859 22.1819L18.352 21.32ZM25.072 18.44L25.3396 19.4035H25.3396L25.072 18.44ZM47.056 20.552L46.6545 21.4679L46.9047 21.5775L47.1758 21.5448L47.056 20.552ZM58.192 19.208H59.192V18.0801L58.0722 18.2152L58.192 19.208ZM58.384 42.248L57.3901 42.3584V42.3584L58.384 42.248ZM59.248 45.032L58.4043 45.5689L58.4043 45.5689L59.248 45.032ZM64.432 42.824L65.347 43.2277L65.3512 43.2179L64.432 42.824ZM61.648 18.344L60.7804 18.8414L60.7855 18.85L61.648 18.344ZM50.32 7.016L49.814 7.87856L49.8226 7.88353L50.32 7.016ZM22.48 5.288L22.8647 6.21117L22.8776 6.20555L22.48 5.288ZM12.496 11.912L11.7889 11.2049H11.7889L12.496 11.912ZM5.872 21.896L6.78957 22.2936L6.79192 22.2881L5.872 21.896ZM7.6 49.64L6.73748 50.146L7.6 49.64ZM18.928 61.064L18.4169 61.9235L18.4237 61.9276L18.4306 61.9315L18.928 61.064ZM54.736 57.8L55.5497 57.2188L54.9153 56.3306L54.0859 57.0401L54.736 57.8ZM55.696 59.144L56.3401 59.9089L57.0464 59.3141L56.5097 58.5628L55.696 59.144ZM18.16 62.408L17.6568 63.2722L18.16 62.408ZM6.16 50.504L5.29108 50.999L5.29481 51.0055L5.29863 51.012L6.16 50.504ZM6.16 17.576L5.29582 17.0728L5.29381 17.0763L6.16 17.576ZM47.056 40.616L47.9713 41.0187L48.056 40.8263V40.616H47.056ZM47.056 22.088H48.056V21.4495L47.4767 21.1808L47.056 22.088ZM33.808 19.784L33.6928 18.7906L33.684 18.7917L33.808 19.784ZM25.936 24.2L26.6898 24.8572L26.6979 24.8476L25.936 24.2ZM23.056 33.512L24.0546 33.4594L24.0542 33.4513L24.0536 33.4432L23.056 33.512ZM27.856 44.648L27.1998 45.4027L27.2093 45.4108L27.856 44.648ZM38.032 47.336L38.2123 48.3196L38.2163 48.3189L38.032 47.336ZM43.504 44.936L44.1091 45.7322L44.1137 45.7286L43.504 44.936ZM18.6632 6.44017C23.5654 3.58573 28.8636 2.16 34.576 2.16V0.159998C28.5124 0.159998 22.8666 1.67827 17.6568 4.71182L18.6632 6.44017ZM34.576 2.16C40.3544 2.16 45.6843 3.58673 50.5848 6.44017L51.5912 4.71182C46.3797 1.67726 40.7016 0.159998 34.576 0.159998V2.16ZM50.5848 6.44017C55.4894 9.29599 59.3308 13.169 62.1231 18.071L63.8609 17.081C60.8932 11.871 56.7986 7.744 51.5912 4.71182L50.5848 6.44017ZM62.1306 18.084C64.9813 22.9178 66.408 28.2136 66.408 33.992H68.408C68.408 27.8664 66.8907 22.2182 63.8534 17.068L62.1306 18.084ZM66.408 33.992C66.408 38.806 65.5843 42.2401 64.085 44.4458C62.6326 46.5824 60.4689 47.68 57.424 47.68V49.68C61.0351 49.68 63.8634 48.3296 65.739 45.5702C67.5677 42.8799 68.408 38.97 68.408 33.992H66.408ZM57.424 47.68C55.6578 47.68 54.1456 47.4361 52.8697 46.9722L52.1863 48.8518C53.7264 49.4119 55.4782 49.68 57.424 49.68V47.68ZM52.8697 46.9722C51.589 46.5065 50.5771 45.851 49.8031 45.0217L48.3409 46.3863C49.3589 47.477 50.651 48.2935 52.1863 48.8518L52.8697 46.9722ZM49.8277 45.0491C49.1101 44.2211 48.6029 43.2179 48.3168 42.0164L46.3712 42.4796C46.7251 43.9661 47.3699 45.2669 48.3163 46.3589L49.8277 45.0491ZM46.4665 41.7684C43.664 46.8963 38.9179 49.504 31.984 49.504V51.504C39.5141 51.504 45.008 48.6077 48.2215 42.7276L46.4665 41.7684ZM31.984 49.504C29.84 49.504 27.6238 49.1978 25.3329 48.5786L24.8111 50.5094C27.2562 51.1702 29.648 51.504 31.984 51.504V49.504ZM25.357 48.5855C23.0626 47.9034 20.8945 46.974 18.851 45.7974L17.853 47.5306C20.0335 48.786 22.3454 49.7766 24.787 50.5025L25.357 48.5855ZM18.8703 45.8088C16.8986 44.6138 15.2827 43.0008 14.0188 40.9545L12.3172 42.0055C13.7413 44.3112 15.5814 46.1542 17.8337 47.5192L18.8703 45.8088ZM14.0188 40.9545C12.7774 38.9446 12.152 36.6963 12.152 34.184H10.152C10.152 37.0477 10.8706 39.6633 12.3172 42.0055L14.0188 40.9545ZM12.152 34.184C12.152 31.4661 12.7841 29.0875 14.0255 27.0185L12.3105 25.9895C10.8639 28.4005 10.152 31.1419 10.152 34.184H12.152ZM14.0255 27.0185C15.2884 24.9137 16.8971 23.3116 18.851 22.1866L17.853 20.4534C15.5829 21.7604 13.7356 23.6143 12.3105 25.9895L14.0255 27.0185ZM18.859 22.1819C20.9642 20.9436 23.1241 20.019 25.3396 19.4035L24.8044 17.4765C22.4119 18.141 20.0918 19.1364 17.845 20.4581L18.859 22.1819ZM25.3396 19.4035C27.5598 18.7868 29.7738 18.48 31.984 18.48V16.48C29.5862 16.48 27.1922 16.8132 24.8044 17.4765L25.3396 19.4035ZM31.984 18.48C37.2294 18.48 42.1159 19.4783 46.6545 21.4679L47.4575 19.6361C42.6521 17.5297 37.4906 16.48 31.984 16.48V18.48ZM47.1758 21.5448L58.3118 20.2008L58.0722 18.2152L46.9362 19.5592L47.1758 21.5448ZM57.192 19.208V37.928H59.192V19.208H57.192ZM57.192 37.928C57.192 39.6769 57.2566 41.1567 57.3901 42.3584L59.3779 42.1376C59.2554 41.0353 59.192 39.6351 59.192 37.928H57.192ZM57.3901 42.3584C57.5288 43.6066 57.8489 44.696 58.4043 45.5689L60.0917 44.4951C59.7511 43.96 59.4952 43.1934 59.3779 42.1376L57.3901 42.3584ZM58.4043 45.5689C59.0169 46.5315 59.9282 47.088 61.072 47.088V45.088C60.6798 45.088 60.3751 44.9405 60.0917 44.4951L58.4043 45.5689ZM61.072 47.088C63.0084 47.088 64.3687 45.4449 65.3469 43.2276L63.5171 42.4204C62.5753 44.5551 61.6956 45.088 61.072 45.088V47.088ZM65.3512 43.2179C66.3842 40.8075 66.872 37.7143 66.872 33.992H64.872C64.872 37.5657 64.3998 40.3605 63.5129 42.4301L65.3512 43.2179ZM66.872 33.992C66.872 28.1844 65.4177 22.7934 62.5105 17.838L60.7855 18.85C63.5103 23.4946 64.872 28.5356 64.872 33.992H66.872ZM62.5155 17.8466C59.6752 12.8926 55.7714 8.98879 50.8174 6.14847L49.8226 7.88353C54.4686 10.5472 58.1168 14.1954 60.7805 18.8414L62.5155 17.8466ZM50.826 6.15347C45.8706 3.24632 40.4796 1.792 34.672 1.792V3.792C40.1284 3.792 45.1694 5.15367 49.814 7.87852L50.826 6.15347ZM34.672 1.792C30.2507 1.792 26.051 2.6507 22.0824 4.37044L22.8776 6.20555C26.589 4.59729 30.5173 3.792 34.672 3.792V1.792ZM22.0954 4.36492C18.1403 6.01288 14.7014 8.29243 11.7889 11.2049L13.2031 12.6191C15.9226 9.89957 19.1397 7.76312 22.8646 6.21107L22.0954 4.36492ZM11.7889 11.2049C8.9386 14.0552 6.66166 17.4929 4.95208 21.5039L6.79192 22.2881C8.41034 18.4911 10.5494 15.2728 13.2031 12.6191L11.7889 11.2049ZM4.95444 21.4984C3.23554 25.4651 2.376 29.6325 2.376 33.992H4.376C4.376 29.9035 5.18046 26.0069 6.78956 22.2936L4.95444 21.4984ZM2.376 33.992C2.376 39.7996 3.83032 45.1906 6.73748 50.146L8.46253 49.134C5.73768 44.4894 4.376 39.4484 4.376 33.992H2.376ZM6.73748 50.146C9.63801 55.0901 13.5343 59.0204 18.4169 61.9235L19.4391 60.2045C14.8497 57.4756 11.194 53.7899 8.46253 49.134L6.73748 50.146ZM18.4306 61.9315C23.3866 64.773 28.8069 66.192 34.672 66.192V64.192C29.1451 64.192 24.0694 62.859 19.4254 60.1965L18.4306 61.9315ZM34.672 66.192C42.5252 66.192 49.444 63.6436 55.3861 58.5599L54.0859 57.0401C48.508 61.8124 42.0508 64.192 34.672 64.192V66.192ZM53.9223 58.3812L54.8823 59.7252L56.5097 58.5628L55.5497 57.2188L53.9223 58.3812ZM55.0519 58.3791C49.1518 63.3475 42.3719 65.824 34.672 65.824V67.824C42.8441 67.824 50.0802 65.1805 56.3401 59.9089L55.0519 58.3791ZM34.672 65.824C28.8936 65.824 23.5637 64.3973 18.6632 61.5438L17.6568 63.2722C22.8683 66.3067 28.5464 67.824 34.672 67.824V65.824ZM18.6632 61.5438C13.7536 58.6851 9.87756 54.8391 7.02137 49.996L5.29863 51.012C8.33044 56.1529 12.4544 60.2429 17.6568 63.2722L18.6632 61.5438ZM7.02892 50.009C4.23686 45.1074 2.84 39.7746 2.84 33.992H0.84C0.84 40.1134 2.32314 45.7886 5.29108 50.999L7.02892 50.009ZM2.84 33.992C2.84 28.2094 4.2368 22.9107 7.02619 18.0757L5.29381 17.0763C2.3232 22.2253 0.84 27.8706 0.84 33.992H2.84ZM7.02418 18.0792C9.88111 13.1727 13.7567 9.2971 18.6632 6.44017L17.6568 4.71182C12.4513 7.74289 8.3269 11.8673 5.29583 17.0728L7.02418 18.0792ZM48.056 40.616V22.088H46.056V40.616H48.056ZM47.4767 21.1808C42.9099 19.0629 38.3092 18.2554 33.6928 18.7907L33.9232 20.7773C38.1388 20.2886 42.3701 21.0171 46.6353 22.9952L47.4767 21.1808ZM33.684 18.7917C30.3416 19.2095 27.4971 20.8194 25.1741 23.5523L26.6979 24.8476C28.7269 22.4606 31.1304 21.1265 33.932 20.7763L33.684 18.7917ZM25.1822 23.5429C22.8096 26.2644 21.7866 29.6398 22.0584 33.5808L24.0536 33.4432C23.8134 29.9602 24.7104 27.1276 26.6898 24.8571L25.1822 23.5429ZM22.0574 33.5646C22.3239 38.6278 24.0029 42.6226 27.1998 45.4026L28.5122 43.8934C25.8211 41.5534 24.3001 38.1242 24.0546 33.4594L22.0574 33.5646ZM27.2093 45.4108C30.385 48.1032 34.0814 49.0769 38.2123 48.3196L37.8517 46.3524C34.3026 47.0031 31.215 46.1848 28.5027 43.8852L27.2093 45.4108ZM38.2163 48.3189C40.4114 47.9073 42.3806 47.0458 44.1091 45.7322L42.8989 44.1398C41.4274 45.2582 39.7487 45.9967 37.8477 46.3531L38.2163 48.3189ZM44.1137 45.7286C45.884 44.3668 47.1874 42.8003 47.9713 41.0187L46.1407 40.2133C45.5166 41.6317 44.452 42.9452 42.8943 44.1434L44.1137 45.7286Z" fill="#D7E7FF" mask="url(#path-1-outside-1_35_249)"/>
</svg>
