<svg width="59" height="19" viewBox="0 0 59 19" fill="none" xmlns="http://www.w3.org/2000/svg">
<g clip-path="url(#clip0_68_2346)">
<rect width="58" height="19" transform="translate(0.188721)" fill="#B9D6FF"/>
<path d="M4.97272 16.128C4.14072 16.128 3.41539 15.9947 2.79672 15.728C2.17805 15.4613 1.69805 15.088 1.35672 14.608C1.02605 14.128 0.860721 13.5627 0.860721 12.912V12.512C0.860721 12.4587 0.876721 12.416 0.908721 12.384C0.951387 12.3413 0.999387 12.32 1.05272 12.32H2.47672C2.53005 12.32 2.57272 12.3413 2.60472 12.384C2.64739 12.416 2.66872 12.4587 2.66872 12.512V12.816C2.66872 13.3067 2.88739 13.7173 3.32472 14.048C3.76205 14.368 4.35939 14.528 5.11672 14.528C5.76739 14.528 6.25805 14.3893 6.58872 14.112C6.91939 13.8347 7.08472 13.4773 7.08472 13.04C7.08472 12.7413 6.99405 12.4907 6.81272 12.288C6.63139 12.0747 6.37005 11.8827 6.02872 11.712C5.69805 11.5413 5.19672 11.328 4.52472 11.072C3.76739 10.7947 3.15405 10.5333 2.68472 10.288C2.21539 10.0427 1.82072 9.712 1.50072 9.296C1.19139 8.86933 1.03672 8.34133 1.03672 7.712C1.03672 6.77333 1.37805 6.032 2.06072 5.488C2.74339 4.944 3.65539 4.672 4.79672 4.672C5.59672 4.672 6.30072 4.81067 6.90872 5.088C7.52739 5.36533 8.00739 5.75467 8.34872 6.256C8.69005 6.74667 8.86072 7.31733 8.86072 7.968V8.24C8.86072 8.29333 8.83939 8.34133 8.79672 8.384C8.76472 8.416 8.72205 8.432 8.66872 8.432H7.22872C7.17539 8.432 7.12739 8.416 7.08472 8.384C7.05272 8.34133 7.03672 8.29333 7.03672 8.24V8.064C7.03672 7.56267 6.82872 7.14133 6.41272 6.8C6.00739 6.448 5.44205 6.272 4.71672 6.272C4.13005 6.272 3.67139 6.39467 3.34072 6.64C3.02072 6.88533 2.86072 7.232 2.86072 7.68C2.86072 8 2.94605 8.26133 3.11672 8.464C3.28739 8.66667 3.54339 8.85333 3.88472 9.024C4.22605 9.184 4.75405 9.392 5.46872 9.648C6.22605 9.936 6.82872 10.1973 7.27672 10.432C7.73539 10.6667 8.12472 10.9973 8.44472 11.424C8.77539 11.84 8.94072 12.3627 8.94072 12.992C8.94072 13.952 8.58339 14.7147 7.86872 15.28C7.16472 15.8453 6.19939 16.128 4.97272 16.128ZM15.3698 16.128C14.5805 16.128 13.8818 15.9733 13.2738 15.664C12.6658 15.3547 12.1912 14.9173 11.8498 14.352C11.5192 13.776 11.3538 13.1147 11.3538 12.368V4.992C11.3538 4.93867 11.3698 4.896 11.4018 4.864C11.4445 4.82133 11.4925 4.8 11.5458 4.8H13.0178C13.0712 4.8 13.1138 4.82133 13.1458 4.864C13.1885 4.896 13.2098 4.93867 13.2098 4.992V12.4C13.2098 13.0293 13.4072 13.5413 13.8018 13.936C14.1965 14.3307 14.7192 14.528 15.3698 14.528C16.0205 14.528 16.5432 14.3307 16.9378 13.936C17.3325 13.5413 17.5298 13.0293 17.5298 12.4V4.992C17.5298 4.93867 17.5458 4.896 17.5778 4.864C17.6205 4.82133 17.6685 4.8 17.7218 4.8H19.1938C19.2472 4.8 19.2898 4.82133 19.3218 4.864C19.3645 4.896 19.3858 4.93867 19.3858 4.992V12.368C19.3858 13.1147 19.2205 13.776 18.8898 14.352C18.5592 14.9173 18.0898 15.3547 17.4818 15.664C16.8738 15.9733 16.1698 16.128 15.3698 16.128ZM28.5177 10.16C28.4537 10.192 28.4537 10.224 28.5177 10.256C29.6057 10.768 30.1497 11.648 30.1497 12.896C30.1497 13.9093 29.8084 14.6827 29.1257 15.216C28.4537 15.7387 27.5737 16 26.4857 16H22.4537C22.4004 16 22.3524 15.984 22.3097 15.952C22.2777 15.9093 22.2617 15.8613 22.2617 15.808V4.992C22.2617 4.93867 22.2777 4.896 22.3097 4.864C22.3524 4.82133 22.4004 4.8 22.4537 4.8H26.3577C27.5204 4.8 28.4164 5.05067 29.0457 5.552C29.6751 6.05333 29.9897 6.81067 29.9897 7.824C29.9897 8.944 29.4991 9.72267 28.5177 10.16ZM24.1977 6.4C24.1444 6.4 24.1177 6.42667 24.1177 6.48V9.44C24.1177 9.49333 24.1444 9.52 24.1977 9.52H26.3577C26.9231 9.52 27.3657 9.38667 27.6857 9.12C28.0164 8.84267 28.1817 8.464 28.1817 7.984C28.1817 7.49333 28.0164 7.10933 27.6857 6.832C27.3657 6.544 26.9231 6.4 26.3577 6.4H24.1977ZM26.4857 14.384C27.0404 14.384 27.4777 14.2347 27.7977 13.936C28.1284 13.6373 28.2937 13.232 28.2937 12.72C28.2937 12.1973 28.1284 11.792 27.7977 11.504C27.4671 11.2053 27.0191 11.056 26.4537 11.056H24.1977C24.1444 11.056 24.1177 11.0827 24.1177 11.136V14.304C24.1177 14.3573 24.1444 14.384 24.1977 14.384H26.4857ZM40.0708 4.928C40.1242 4.84267 40.1988 4.8 40.2948 4.8H41.7668C41.8202 4.8 41.8628 4.82133 41.8948 4.864C41.9375 4.896 41.9588 4.93867 41.9588 4.992V15.808C41.9588 15.8613 41.9375 15.9093 41.8948 15.952C41.8628 15.984 41.8202 16 41.7668 16H40.2948C40.2415 16 40.1935 15.984 40.1508 15.952C40.1188 15.9093 40.1028 15.8613 40.1028 15.808V8.176C40.1028 8.144 40.0868 8.12267 40.0548 8.112C40.0335 8.10133 40.0175 8.112 40.0068 8.144L38.0068 11.216C37.9535 11.3013 37.8788 11.344 37.7828 11.344H37.0468C36.9508 11.344 36.8762 11.3013 36.8228 11.216L34.8068 8.16C34.7962 8.128 34.7748 8.11733 34.7428 8.128C34.7215 8.13867 34.7108 8.16 34.7108 8.192V15.808C34.7108 15.8613 34.6895 15.9093 34.6468 15.952C34.6148 15.984 34.5722 16 34.5188 16H33.0468C32.9935 16 32.9455 15.984 32.9028 15.952C32.8708 15.9093 32.8548 15.8613 32.8548 15.808V4.992C32.8548 4.93867 32.8708 4.896 32.9028 4.864C32.9455 4.82133 32.9935 4.8 33.0468 4.8H34.5188C34.6148 4.8 34.6895 4.84267 34.7428 4.928L37.3508 8.88C37.3722 8.90133 37.3935 8.912 37.4148 8.912C37.4362 8.912 37.4522 8.90133 37.4628 8.88L40.0708 4.928ZM45.1243 16C45.071 16 45.023 15.984 44.9803 15.952C44.9483 15.9093 44.9323 15.8613 44.9323 15.808V4.992C44.9323 4.93867 44.9483 4.896 44.9803 4.864C45.023 4.82133 45.071 4.8 45.1243 4.8H46.5963C46.6497 4.8 46.6923 4.82133 46.7243 4.864C46.767 4.896 46.7883 4.93867 46.7883 4.992V15.808C46.7883 15.8613 46.767 15.9093 46.7243 15.952C46.6923 15.984 46.6497 16 46.5963 16H45.1243ZM57.1198 4.8C57.1732 4.8 57.2158 4.82133 57.2478 4.864C57.2905 4.896 57.3118 4.93867 57.3118 4.992V6.224C57.3118 6.27733 57.2905 6.32533 57.2478 6.368C57.2158 6.4 57.1732 6.416 57.1198 6.416H54.1758C54.1225 6.416 54.0958 6.44267 54.0958 6.496V15.808C54.0958 15.8613 54.0745 15.9093 54.0318 15.952C53.9998 15.984 53.9572 16 53.9038 16H52.4318C52.3785 16 52.3305 15.984 52.2878 15.952C52.2558 15.9093 52.2398 15.8613 52.2398 15.808V6.496C52.2398 6.44267 52.2132 6.416 52.1598 6.416H49.3278C49.2745 6.416 49.2265 6.4 49.1838 6.368C49.1518 6.32533 49.1358 6.27733 49.1358 6.224V4.992C49.1358 4.93867 49.1518 4.896 49.1838 4.864C49.2265 4.82133 49.2745 4.8 49.3278 4.8H57.1198Z" fill="#3E5B84"/>
</g>
<defs>
<clipPath id="clip0_68_2346">
<rect width="58" height="19" fill="white" transform="translate(0.188721)"/>
</clipPath>
</defs>
</svg>
