<svg width="64" height="73" viewBox="0 0 64 73" fill="none" xmlns="http://www.w3.org/2000/svg">
<path d="M63.2524 55.566C57.1231 65.8857 47.4584 72.7655 34.9065 72.7655C15.6849 72.7655 0.0915527 56.6304 0.0915527 36.7159C0.0915527 16.8014 15.6849 0.66626 34.9065 0.66626C45.7292 0.66626 59.2383 6.63597 59.2383 21.136C59.2383 25.2701 55.8881 28.6175 51.7504 28.6175C47.6128 28.6175 44.2625 25.2701 44.2625 21.136C44.2625 6.25033 35.7865 1.96201 28.8698 3.35032C18.0625 5.29394 12.0104 21.8148 15.3452 40.2484C18.6801 58.682 30.3983 67.3203 42.5179 67.3203C48.4928 67.3203 56.7835 63.8341 62.0173 54.6867L63.237 55.566H63.2524Z" fill="#D7E7FF"/>
</svg>
