<svg width="656" height="111" viewBox="0 0 656 111" fill="none" xmlns="http://www.w3.org/2000/svg">
<path d="M655.921 60.9512L644.961 50L634 60.9512L644.961 71.9024L655.921 60.9512Z" fill="#D7E7FF"/>
<path d="M175.963 93.2948V94.3592H147.647V93.2948C153.221 93.2948 154.317 88.6672 154.317 67.1484V54.2526C154.317 32.7339 153.205 32.1477 147.647 32.1477V31.0834L169.293 27.0419V67.133C169.293 88.6672 170.405 93.2948 175.963 93.2948Z" fill="#D7E7FF"/>
<path d="M237.07 32.1477C237.07 36.2817 233.72 39.6291 229.582 39.6291C222.573 39.6291 221.245 32.0706 215.178 32.0706C212.46 32.0706 205.482 35.5876 201.715 40.9094V67.133C201.715 88.1272 205.374 93.2948 214.653 93.2948V94.3592H180.069V93.2948C185.643 93.2948 186.739 88.6671 186.739 67.133V54.2526C186.739 32.7339 186.183 31.0216 180.069 32.1477V31.0833L201.715 27.0418V38.4722C209.82 29.6179 218.574 24.6663 226.448 24.6663C234.322 24.6663 237.086 28.754 237.086 32.1477H237.07Z" fill="#D7E7FF"/>
<path d="M299.891 79.566C293.762 89.8857 284.097 96.7655 271.545 96.7655C252.324 96.7655 236.73 80.6304 236.73 60.7159C236.73 40.8014 252.324 24.6663 271.545 24.6663C276.717 24.6663 296.418 27.628 296.418 38.3642C296.418 46.6478 279.002 53.034 251.398 60.1914C251.536 61.5335 251.737 62.8909 251.984 64.2484C255.319 82.682 267.037 91.3203 279.157 91.3203C285.132 91.3203 293.422 87.8341 298.656 78.6867L299.876 79.566H299.891ZM251.274 58.8494C275.174 51.7074 282.677 45.1206 282.677 39.0121C282.677 32.487 274.155 25.8849 265.524 27.3349C255.767 28.9854 249.915 42.6679 251.289 58.8494H251.274Z" fill="#D7E7FF"/>
<path d="M331.449 93.2948V94.3592H303.134V93.2948C308.707 93.2948 309.803 88.6672 309.803 67.1484V54.2526C309.803 32.7339 308.692 32.1477 303.134 32.1477V31.0834L324.779 27.0419V67.133C324.779 88.6672 325.891 93.2948 331.449 93.2948Z" fill="#D7E7FF"/>
<path d="M456.227 93.2949V94.3592H421.643V93.2949C430.922 93.2949 434.581 88.1273 434.581 67.133V50.9361C434.581 34.076 427.402 29.4174 421.335 29.4174C416.471 29.4174 410.311 32.3174 402.808 43.0537C403.163 45.4292 403.348 48.0516 403.348 50.9361V67.133C403.348 88.1273 407.007 93.2949 416.286 93.2949V94.3592H375.434V93.2949C384.713 93.2949 388.372 88.1273 388.372 67.133V50.9361C388.372 34.076 381.193 29.4174 375.126 29.4174C370.401 29.4174 364.426 32.1632 357.186 42.2207V67.1485C357.186 88.1427 360.845 93.3103 370.123 93.3103V94.3747H335.54V93.3103C341.114 93.3103 342.21 88.6826 342.21 67.1639V54.2681C342.21 32.7494 341.098 32.1632 335.54 32.1632V31.0988L357.186 27.0573V39.4595C366.171 27.2116 374.045 24.6818 383.864 24.6818C393.683 24.6818 400.029 29.6334 402.391 40.8478C411.809 27.3967 419.883 24.6818 430.058 24.6818C442.038 24.6818 449.526 32.5642 449.526 50.9516V67.1639C449.526 88.6826 450.638 93.3103 456.196 93.3103L456.227 93.2949Z" fill="#D7E7FF"/>
<path d="M488.371 93.2948V94.3592H460.056V93.2948C465.629 93.2948 466.725 88.6672 466.725 67.1484V54.2526C466.725 32.7339 465.614 32.1477 460.056 32.1477V31.0834L481.701 27.0419V67.133C481.701 88.6672 482.813 93.2948 488.371 93.2948Z" fill="#D7E7FF"/>
<path d="M555.252 79.566C549.123 89.8857 539.458 96.7655 526.906 96.7655C507.685 96.7655 492.092 80.6304 492.092 60.7159C492.092 40.8014 507.685 24.6663 526.906 24.6663C537.729 24.6663 551.238 30.636 551.238 45.136C551.238 49.2701 547.888 52.6175 543.75 52.6175C539.613 52.6175 536.262 49.2701 536.262 45.136C536.262 30.2503 527.786 25.962 520.87 27.3503C510.063 29.2939 504.01 45.8148 507.345 64.2484C510.68 82.682 522.398 91.3203 534.518 91.3203C540.493 91.3203 548.784 87.8341 554.017 78.6867L555.237 79.566H555.252Z" fill="#D7E7FF"/>
<path d="M619 72.4857C619 85.8905 606.155 96.7656 590.299 96.7656H590.253C578.859 96.7656 571.417 95.8401 561.845 94.3746V68.2591H562.91C562.91 85.1964 578.488 94.6369 594.251 94.6369C604.04 94.6369 611.991 87.9267 611.991 79.6432C611.991 71.3596 604.842 64.6495 589.419 64.6495C573.995 64.6495 561.613 55.7335 561.613 44.6733C561.613 33.6132 574.057 24.6509 589.419 24.6509C600.813 24.6509 605.089 25.5764 614.662 27.0418V53.1574H613.596C613.596 36.2201 601.168 26.7796 585.405 26.7796C576.111 26.7796 568.576 31.577 568.576 37.5004C568.576 43.4238 574.443 48.2212 590.314 48.2212C606.186 48.2212 619.015 59.0808 619.015 72.5011L619 72.4857Z" fill="#D7E7FF"/>
<path d="M171.204 10.9515L160.243 0.000366211L149.282 10.9515L160.243 21.9027L171.204 10.9515Z" fill="#D7E7FF"/>
<path d="M326.705 10.9512L315.744 0L304.783 10.9512L315.744 21.9024L326.705 10.9512Z" fill="#D7E7FF"/>
<path d="M483.627 10.9517L472.667 0.000488281L461.706 10.9517L472.667 21.9029L483.627 10.9517Z" fill="#D7E7FF"/>
<path d="M73 110.001V108.936C78.5735 108.936 79.6696 104.309 79.6696 82.79V46.509C79.6696 24.9903 78.558 20.3626 73 20.3626V19.2982H101.315V20.3626C95.7416 20.3626 94.6455 24.9903 94.6455 46.509V76.8049L114.068 46.5244C127.515 25.561 128.102 20.3626 118.823 20.3626V19.2982H145.193V20.3626C137.365 20.3626 129.646 25.5302 116.198 46.5244L109.76 56.5665L126.867 83.2528C133.073 94.5752 141.24 93.372 141.24 93.372L141.271 94.3592H120.29C118.977 94.3592 117.974 92.7087 117.264 91.6135L102.288 68.2437L94.6455 80.1522V82.8054C94.6455 104.324 95.7571 108.952 101.315 108.952V110.016H73V110.001Z" fill="#D7E7FF"/>
<mask id="path-14-outside-1_35_254" maskUnits="userSpaceOnUse" x="2" y="23" width="69" height="68" fill="black">
<rect fill="white" x="2" y="23" width="69" height="68"/>
<path d="M20.16 28.576C25.216 25.632 30.688 24.16 36.576 24.16C42.528 24.16 48.032 25.632 53.088 28.576C58.144 31.52 62.112 35.52 64.992 40.576C67.936 45.568 69.408 51.04 69.408 56.992C69.408 66.784 66.08 71.68 59.424 71.68C57.568 71.68 55.936 71.424 54.528 70.912C53.12 70.4 51.968 69.664 51.072 68.704C50.24 67.744 49.664 66.592 49.344 65.248C46.336 70.752 41.216 73.504 33.984 73.504C31.744 73.504 29.44 73.184 27.072 72.544C24.704 71.84 22.464 70.88 20.352 69.664C18.24 68.384 16.512 66.656 15.168 64.48C13.824 62.304 13.152 59.872 13.152 57.184C13.152 54.304 13.824 51.744 15.168 49.504C16.512 47.264 18.24 45.536 20.352 44.32C22.528 43.04 24.768 42.08 27.072 41.44C29.376 40.8 31.68 40.48 33.984 40.48C39.36 40.48 44.384 41.504 49.056 43.552L60.192 42.208V60.928C60.192 62.656 60.256 64.096 60.384 65.248C60.512 66.4 60.8 67.328 61.248 68.032C61.696 68.736 62.304 69.088 63.072 69.088C64.352 69.088 65.472 68 66.432 65.824C67.392 63.584 67.872 60.64 67.872 56.992C67.872 51.36 66.464 46.144 63.648 41.344C60.896 36.544 57.12 32.768 52.32 30.016C47.52 27.2 42.304 25.792 36.672 25.792C32.384 25.792 28.32 26.624 24.48 28.288C20.64 29.888 17.312 32.096 14.496 34.912C11.744 37.664 9.536 40.992 7.872 44.896C6.208 48.736 5.376 52.768 5.376 56.992C5.376 62.624 6.784 67.84 9.6 72.64C12.416 77.44 16.192 81.248 20.928 84.064C25.728 86.816 30.976 88.192 36.672 88.192C44.288 88.192 50.976 85.728 56.736 80.8L57.696 82.144C51.616 87.264 44.608 89.824 36.672 89.824C30.72 89.824 25.216 88.352 20.16 85.408C15.104 82.464 11.104 78.496 8.16 73.504C5.28 68.448 3.84 62.944 3.84 56.992C3.84 51.04 5.28 45.568 8.16 40.576C11.104 35.52 15.104 31.52 20.16 28.576ZM49.056 63.616V45.088C44.64 43.04 40.224 42.272 35.808 42.784C32.736 43.168 30.112 44.64 27.936 47.2C25.76 49.696 24.8 52.8 25.056 56.512C25.312 61.376 26.912 65.088 29.856 67.648C32.8 70.144 36.192 71.04 40.032 70.336C42.08 69.952 43.904 69.152 45.504 67.936C47.168 66.656 48.352 65.216 49.056 63.616Z"/>
</mask>
<path d="M20.16 28.576C25.216 25.632 30.688 24.16 36.576 24.16C42.528 24.16 48.032 25.632 53.088 28.576C58.144 31.52 62.112 35.52 64.992 40.576C67.936 45.568 69.408 51.04 69.408 56.992C69.408 66.784 66.08 71.68 59.424 71.68C57.568 71.68 55.936 71.424 54.528 70.912C53.12 70.4 51.968 69.664 51.072 68.704C50.24 67.744 49.664 66.592 49.344 65.248C46.336 70.752 41.216 73.504 33.984 73.504C31.744 73.504 29.44 73.184 27.072 72.544C24.704 71.84 22.464 70.88 20.352 69.664C18.24 68.384 16.512 66.656 15.168 64.48C13.824 62.304 13.152 59.872 13.152 57.184C13.152 54.304 13.824 51.744 15.168 49.504C16.512 47.264 18.24 45.536 20.352 44.32C22.528 43.04 24.768 42.08 27.072 41.44C29.376 40.8 31.68 40.48 33.984 40.48C39.36 40.48 44.384 41.504 49.056 43.552L60.192 42.208V60.928C60.192 62.656 60.256 64.096 60.384 65.248C60.512 66.4 60.8 67.328 61.248 68.032C61.696 68.736 62.304 69.088 63.072 69.088C64.352 69.088 65.472 68 66.432 65.824C67.392 63.584 67.872 60.64 67.872 56.992C67.872 51.36 66.464 46.144 63.648 41.344C60.896 36.544 57.12 32.768 52.32 30.016C47.52 27.2 42.304 25.792 36.672 25.792C32.384 25.792 28.32 26.624 24.48 28.288C20.64 29.888 17.312 32.096 14.496 34.912C11.744 37.664 9.536 40.992 7.872 44.896C6.208 48.736 5.376 52.768 5.376 56.992C5.376 62.624 6.784 67.84 9.6 72.64C12.416 77.44 16.192 81.248 20.928 84.064C25.728 86.816 30.976 88.192 36.672 88.192C44.288 88.192 50.976 85.728 56.736 80.8L57.696 82.144C51.616 87.264 44.608 89.824 36.672 89.824C30.72 89.824 25.216 88.352 20.16 85.408C15.104 82.464 11.104 78.496 8.16 73.504C5.28 68.448 3.84 62.944 3.84 56.992C3.84 51.04 5.28 45.568 8.16 40.576C11.104 35.52 15.104 31.52 20.16 28.576ZM49.056 63.616V45.088C44.64 43.04 40.224 42.272 35.808 42.784C32.736 43.168 30.112 44.64 27.936 47.2C25.76 49.696 24.8 52.8 25.056 56.512C25.312 61.376 26.912 65.088 29.856 67.648C32.8 70.144 36.192 71.04 40.032 70.336C42.08 69.952 43.904 69.152 45.504 67.936C47.168 66.656 48.352 65.216 49.056 63.616Z" fill="#D7E7FF"/>
<path d="M64.992 40.576L64.1231 41.071L64.1268 41.0775L64.1306 41.084L64.992 40.576ZM51.072 68.704L50.3163 69.3589L50.3284 69.3728L50.3409 69.3863L51.072 68.704ZM49.344 65.248L50.3168 65.0164L49.7142 62.4854L48.4665 64.7684L49.344 65.248ZM27.072 72.544L26.787 73.5025L26.799 73.5061L26.8111 73.5094L27.072 72.544ZM20.352 69.664L19.8337 70.5192L19.8433 70.525L19.853 70.5306L20.352 69.664ZM15.168 64.48L14.3172 65.0055L15.168 64.48ZM20.352 44.32L20.851 45.1867L20.859 45.1819L20.352 44.32ZM27.072 41.44L27.3396 42.4035H27.3396L27.072 41.44ZM49.056 43.552L48.6545 44.4679L48.9047 44.5775L49.1758 44.5448L49.056 43.552ZM60.192 42.208H61.192V41.0801L60.0722 41.2152L60.192 42.208ZM60.384 65.248L59.3901 65.3584V65.3584L60.384 65.248ZM61.248 68.032L60.4043 68.5689L60.4043 68.5689L61.248 68.032ZM66.432 65.824L67.347 66.2277L67.3512 66.2179L66.432 65.824ZM63.648 41.344L62.7804 41.8414L62.7855 41.85L63.648 41.344ZM52.32 30.016L51.814 30.8786L51.8226 30.8835L52.32 30.016ZM24.48 28.288L24.8647 29.2112L24.8776 29.2056L24.48 28.288ZM14.496 34.912L13.7889 34.2049H13.7889L14.496 34.912ZM7.872 44.896L8.78957 45.2936L8.79192 45.2881L7.872 44.896ZM9.6 72.64L8.73748 73.146L9.6 72.64ZM20.928 84.064L20.4169 84.9235L20.4237 84.9276L20.4306 84.9315L20.928 84.064ZM56.736 80.8L57.5497 80.2188L56.9153 79.3306L56.0859 80.0401L56.736 80.8ZM57.696 82.144L58.3401 82.9089L59.0464 82.3141L58.5097 81.5628L57.696 82.144ZM20.16 85.408L19.6568 86.2722L20.16 85.408ZM8.16 73.504L7.29108 73.999L7.29481 74.0055L7.29863 74.012L8.16 73.504ZM8.16 40.576L7.29582 40.0728L7.29381 40.0763L8.16 40.576ZM49.056 63.616L49.9713 64.0187L50.056 63.8263V63.616H49.056ZM49.056 45.088H50.056V44.4495L49.4767 44.1808L49.056 45.088ZM35.808 42.784L35.6928 41.7906L35.684 41.7917L35.808 42.784ZM27.936 47.2L28.6898 47.8572L28.6979 47.8476L27.936 47.2ZM25.056 56.512L26.0546 56.4594L26.0542 56.4513L26.0536 56.4432L25.056 56.512ZM29.856 67.648L29.1998 68.4027L29.2093 68.4108L29.856 67.648ZM40.032 70.336L40.2123 71.3196L40.2163 71.3189L40.032 70.336ZM45.504 67.936L46.1091 68.7322L46.1137 68.7286L45.504 67.936ZM20.6632 29.4402C25.5654 26.5857 30.8636 25.16 36.576 25.16V23.16C30.5124 23.16 24.8666 24.6783 19.6568 27.7118L20.6632 29.4402ZM36.576 25.16C42.3544 25.16 47.6843 26.5867 52.5848 29.4402L53.5912 27.7118C48.3797 24.6773 42.7016 23.16 36.576 23.16V25.16ZM52.5848 29.4402C57.4894 32.296 61.3308 36.169 64.1231 41.071L65.8609 40.081C62.8932 34.871 58.7986 30.744 53.5912 27.7118L52.5848 29.4402ZM64.1306 41.084C66.9813 45.9178 68.408 51.2136 68.408 56.992H70.408C70.408 50.8664 68.8907 45.2182 65.8534 40.068L64.1306 41.084ZM68.408 56.992C68.408 61.806 67.5843 65.2401 66.085 67.4458C64.6326 69.5824 62.4689 70.68 59.424 70.68V72.68C63.0351 72.68 65.8634 71.3296 67.739 68.5702C69.5677 65.8799 70.408 61.97 70.408 56.992H68.408ZM59.424 70.68C57.6578 70.68 56.1456 70.4361 54.8697 69.9722L54.1863 71.8518C55.7264 72.4119 57.4782 72.68 59.424 72.68V70.68ZM54.8697 69.9722C53.589 69.5065 52.5771 68.851 51.8031 68.0217L50.3409 69.3863C51.3589 70.477 52.651 71.2935 54.1863 71.8518L54.8697 69.9722ZM51.8277 68.0491C51.1101 67.2211 50.6029 66.2179 50.3168 65.0164L48.3712 65.4796C48.7251 66.9661 49.3699 68.2669 50.3163 69.3589L51.8277 68.0491ZM48.4665 64.7684C45.664 69.8963 40.9179 72.504 33.984 72.504V74.504C41.5141 74.504 47.008 71.6077 50.2215 65.7276L48.4665 64.7684ZM33.984 72.504C31.84 72.504 29.6238 72.1978 27.3329 71.5786L26.8111 73.5094C29.2562 74.1702 31.648 74.504 33.984 74.504V72.504ZM27.357 71.5855C25.0626 70.9034 22.8945 69.974 20.851 68.7974L19.853 70.5306C22.0335 71.786 24.3454 72.7766 26.787 73.5025L27.357 71.5855ZM20.8703 68.8088C18.8986 67.6138 17.2827 66.0008 16.0188 63.9545L14.3172 65.0055C15.7413 67.3112 17.5814 69.1542 19.8337 70.5192L20.8703 68.8088ZM16.0188 63.9545C14.7774 61.9446 14.152 59.6963 14.152 57.184H12.152C12.152 60.0477 12.8706 62.6633 14.3172 65.0055L16.0188 63.9545ZM14.152 57.184C14.152 54.4661 14.7841 52.0875 16.0255 50.0185L14.3105 48.9895C12.8639 51.4005 12.152 54.1419 12.152 57.184H14.152ZM16.0255 50.0185C17.2884 47.9137 18.8971 46.3116 20.851 45.1866L19.853 43.4534C17.5829 44.7604 15.7356 46.6143 14.3105 48.9895L16.0255 50.0185ZM20.859 45.1819C22.9642 43.9436 25.1241 43.019 27.3396 42.4035L26.8044 40.4765C24.4119 41.141 22.0918 42.1364 19.845 43.4581L20.859 45.1819ZM27.3396 42.4035C29.5598 41.7868 31.7738 41.48 33.984 41.48V39.48C31.5862 39.48 29.1922 39.8132 26.8044 40.4765L27.3396 42.4035ZM33.984 41.48C39.2294 41.48 44.1159 42.4783 48.6545 44.4679L49.4575 42.6361C44.6521 40.5297 39.4906 39.48 33.984 39.48V41.48ZM49.1758 44.5448L60.3118 43.2008L60.0722 41.2152L48.9362 42.5592L49.1758 44.5448ZM59.192 42.208V60.928H61.192V42.208H59.192ZM59.192 60.928C59.192 62.6769 59.2566 64.1567 59.3901 65.3584L61.3779 65.1376C61.2554 64.0353 61.192 62.6351 61.192 60.928H59.192ZM59.3901 65.3584C59.5288 66.6066 59.8489 67.696 60.4043 68.5689L62.0917 67.4951C61.7511 66.96 61.4952 66.1934 61.3779 65.1376L59.3901 65.3584ZM60.4043 68.5689C61.0169 69.5315 61.9282 70.088 63.072 70.088V68.088C62.6798 68.088 62.3751 67.9405 62.0917 67.4951L60.4043 68.5689ZM63.072 70.088C65.0084 70.088 66.3687 68.4449 67.3469 66.2276L65.5171 65.4204C64.5753 67.5551 63.6956 68.088 63.072 68.088V70.088ZM67.3512 66.2179C68.3842 63.8075 68.872 60.7143 68.872 56.992H66.872C66.872 60.5657 66.3998 63.3605 65.5129 65.4301L67.3512 66.2179ZM68.872 56.992C68.872 51.1844 67.4177 45.7934 64.5105 40.838L62.7855 41.85C65.5103 46.4946 66.872 51.5356 66.872 56.992H68.872ZM64.5155 40.8466C61.6752 35.8926 57.7714 31.9888 52.8174 29.1485L51.8226 30.8835C56.4686 33.5472 60.1168 37.1954 62.7805 41.8414L64.5155 40.8466ZM52.826 29.1535C47.8706 26.2463 42.4796 24.792 36.672 24.792V26.792C42.1284 26.792 47.1694 28.1537 51.814 30.8785L52.826 29.1535ZM36.672 24.792C32.2507 24.792 28.051 25.6507 24.0824 27.3704L24.8776 29.2056C28.589 27.5973 32.5173 26.792 36.672 26.792V24.792ZM24.0954 27.3649C20.1403 29.0129 16.7014 31.2924 13.7889 34.2049L15.2031 35.6191C17.9226 32.8996 21.1397 30.7631 24.8646 29.2111L24.0954 27.3649ZM13.7889 34.2049C10.9386 37.0552 8.66166 40.4929 6.95208 44.5039L8.79192 45.2881C10.4103 41.4911 12.5494 38.2728 15.2031 35.6191L13.7889 34.2049ZM6.95444 44.4984C5.23554 48.4651 4.376 52.6325 4.376 56.992H6.376C6.376 52.9035 7.18046 49.0069 8.78956 45.2936L6.95444 44.4984ZM4.376 56.992C4.376 62.7996 5.83032 68.1906 8.73748 73.146L10.4625 72.134C7.73768 67.4894 6.376 62.4484 6.376 56.992H4.376ZM8.73748 73.146C11.638 78.0901 15.5343 82.0204 20.4169 84.9235L21.4391 83.2045C16.8497 80.4756 13.194 76.7899 10.4625 72.134L8.73748 73.146ZM20.4306 84.9315C25.3866 87.773 30.8069 89.192 36.672 89.192V87.192C31.1451 87.192 26.0694 85.859 21.4254 83.1965L20.4306 84.9315ZM36.672 89.192C44.5252 89.192 51.444 86.6436 57.3861 81.5599L56.0859 80.0401C50.508 84.8124 44.0508 87.192 36.672 87.192V89.192ZM55.9223 81.3812L56.8823 82.7252L58.5097 81.5628L57.5497 80.2188L55.9223 81.3812ZM57.0519 81.3791C51.1518 86.3475 44.3719 88.824 36.672 88.824V90.824C44.8441 90.824 52.0802 88.1805 58.3401 82.9089L57.0519 81.3791ZM36.672 88.824C30.8936 88.824 25.5637 87.3973 20.6632 84.5438L19.6568 86.2722C24.8683 89.3067 30.5464 90.824 36.672 90.824V88.824ZM20.6632 84.5438C15.7536 81.6851 11.8776 77.8391 9.02137 72.996L7.29863 74.012C10.3304 79.1529 14.4544 83.2429 19.6568 86.2722L20.6632 84.5438ZM9.02892 73.009C6.23686 68.1074 4.84 62.7746 4.84 56.992H2.84C2.84 63.1134 4.32314 68.7886 7.29108 73.999L9.02892 73.009ZM4.84 56.992C4.84 51.2094 6.2368 45.9107 9.02619 41.0757L7.29381 40.0763C4.3232 45.2253 2.84 50.8706 2.84 56.992H4.84ZM9.02418 41.0792C11.8811 36.1727 15.7567 32.2971 20.6632 29.4402L19.6568 27.7118C14.4513 30.7429 10.3269 34.8673 7.29583 40.0728L9.02418 41.0792ZM50.056 63.616V45.088H48.056V63.616H50.056ZM49.4767 44.1808C44.9099 42.0629 40.3092 41.2554 35.6928 41.7907L35.9232 43.7773C40.1388 43.2886 44.3701 44.0171 48.6353 45.9952L49.4767 44.1808ZM35.684 41.7917C32.3416 42.2095 29.4971 43.8194 27.1741 46.5523L28.6979 47.8476C30.7269 45.4606 33.1304 44.1265 35.932 43.7763L35.684 41.7917ZM27.1822 46.5429C24.8096 49.2644 23.7866 52.6398 24.0584 56.5808L26.0536 56.4432C25.8134 52.9602 26.7104 50.1276 28.6898 47.8571L27.1822 46.5429ZM24.0574 56.5646C24.3239 61.6278 26.0029 65.6226 29.1998 68.4026L30.5122 66.8934C27.8211 64.5534 26.3001 61.1242 26.0546 56.4594L24.0574 56.5646ZM29.2093 68.4108C32.385 71.1032 36.0814 72.0769 40.2123 71.3196L39.8517 69.3524C36.3026 70.0031 33.215 69.1848 30.5027 66.8852L29.2093 68.4108ZM40.2163 71.3189C42.4114 70.9073 44.3806 70.0458 46.1091 68.7322L44.8989 67.1398C43.4274 68.2582 41.7487 68.9967 39.8477 69.3531L40.2163 71.3189ZM46.1137 68.7286C47.884 67.3668 49.1874 65.8003 49.9713 64.0187L48.1407 63.2133C47.5166 64.6317 46.452 65.9452 44.8943 67.1434L46.1137 68.7286Z" fill="#D7E7FF" mask="url(#path-14-outside-1_35_254)"/>
</svg>
