<?xml version="1.0" encoding="UTF-8"?>
<svg version="1.1" xmlns="http://www.w3.org/2000/svg" width="121" height="411">
<path d="M0 0 C0.00423194 0.94271444 0.00846388 1.88542889 0.01282406 2.85671043 C0.11673098 25.95983347 0.2255597 49.06292951 0.33933926 72.16600609 C0.39425554 83.33917706 0.44766158 94.51235117 0.49731445 105.68554688 C0.54067386 115.44163557 0.58706819 125.19770469 0.63687855 134.95376265 C0.66307127 140.10355117 0.68790006 145.25333685 0.70907402 150.40314865 C0.78901293 169.61936605 0.90302058 188.82858574 1.46899414 208.03759766 C1.49885951 209.06847917 1.49885951 209.06847917 1.52932823 210.12018657 C1.43903635 243.40273241 1.43903635 243.40273241 15.1875 272.375 C19.23678565 274.71458726 23.41143225 275.32285214 28 276 C28 277.98 28 279.96 28 282 C-11.27 282 -50.54 282 -91 282 C-91 280.02 -91 278.04 -91 276 C-90.34773438 275.90203125 -89.69546875 275.8040625 -89.0234375 275.703125 C-83.51885771 274.76133849 -79.20130838 273.90819385 -75 270 C-59.3104023 246.73456798 -63.83786652 206.64791618 -63.83274293 180.13817096 C-63.83202103 178.02872196 -63.82986586 175.91927907 -63.82724571 173.80983162 C-63.81805702 166.39234137 -63.81390258 158.9748688 -63.81469727 151.55737305 C-63.81529622 144.73703575 -63.80476321 137.91677799 -63.7889536 131.09646076 C-63.77570714 125.16188719 -63.7705204 119.22733906 -63.77115268 113.2927509 C-63.77140272 109.78328283 -63.76883523 106.2738857 -63.75797462 102.76443291 C-61.33259654 63.22197298 -61.33259654 63.22197298 -73 27 C-78.25478945 23.05890791 -84.65995105 23.29751039 -91 23 C-91 21.02 -91 19.04 -91 17 C-34.37689018 6.0004438 -34.37689018 6.0004438 -14 2.3125 C-13.31600128 2.18848816 -12.63200256 2.06447632 -11.92727661 1.93670654 C-1.22300296 0 -1.22300296 0 0 0 Z " fill="#D7E7FF" transform="translate(93,127)"/>
<path d="M0 0 C3.46311503 1.49272675 5.74099214 3.47216004 8.41723633 6.11083984 C9.71296318 7.3825856 9.71296318 7.3825856 11.03486633 8.68002319 C11.95793076 9.59772491 12.88099518 10.51542664 13.83203125 11.4609375 C14.79270571 12.4126427 15.75345613 13.36427122 16.71427917 14.31582642 C18.72266792 16.3077551 20.72664767 18.30400933 22.72827148 20.30273438 C25.29688156 22.86594136 27.88128601 25.41257403 30.46986866 27.95558739 C32.45737668 29.91340578 34.43358858 31.8823298 36.40680504 33.85454178 C37.81674244 35.25821659 39.23825771 36.65023052 40.65986633 38.04208374 C41.50792343 38.89621857 42.35598053 39.75035339 43.22973633 40.63037109 C43.9837825 41.37934662 44.73782867 42.12832214 45.51472473 42.8999939 C47 45 47 45 46.98547363 46.99702454 C45.69452677 49.62087444 44.0610375 51.33576599 42.00268555 53.41723633 C40.73082649 54.71296318 40.73082649 54.71296318 39.43327332 56.03486633 C38.51041031 56.95793076 37.5875473 57.88099518 36.63671875 58.83203125 C35.68336403 59.79248699 34.73030932 60.75324062 33.77754211 61.71427917 C31.78109206 63.72416586 29.77881203 65.72802549 27.77270508 67.72827148 C25.19988395 70.2951837 22.6458161 72.87990878 20.09622478 75.46986866 C18.13431044 77.45759449 16.16107935 79.43377475 14.18439674 81.40680504 C12.7766492 82.81707406 11.38003307 84.23842607 9.98356628 85.65986633 C9.12620377 86.50792343 8.26884125 87.35598053 7.38549805 88.22973633 C6.63350632 88.9837825 5.88151459 89.73782867 5.10673523 90.51472473 C3 92 3 92 1.00672913 91.99517822 C-1.66722957 90.66910714 -3.3898462 88.96886202 -5.49316406 86.84741211 C-6.37377502 85.96657455 -7.25438599 85.085737 -8.16168213 84.1782074 C-9.11315825 83.21141209 -10.06446868 82.24445369 -11.015625 81.27734375 C-11.99574256 80.29162903 -12.97652603 79.30657603 -13.95794678 78.32215881 C-16.53578484 75.73288151 -19.10448579 73.13472118 -21.67138672 70.53460693 C-24.29369405 67.88157894 -26.92454378 65.2370522 -29.5546875 62.59179688 C-34.71152295 57.40281353 -39.85873515 52.20441608 -45 47 C-43.50469676 43.51027997 -41.50808338 41.26534605 -38.82568359 38.59863281 C-37.96494232 37.7380426 -37.10420105 36.87745239 -36.21737671 35.99078369 C-35.28712677 35.07085632 -34.35687683 34.15092896 -33.3984375 33.203125 C-32.43678914 32.24520903 -31.47558306 31.28684886 -30.51480103 30.32806396 C-27.99076718 27.81164875 -25.46078409 25.30129893 -22.92950439 22.79217529 C-20.3452081 20.22837559 -17.76659801 17.65887082 -15.1875 15.08984375 C-10.13054303 10.05430543 -5.06727744 5.0251544 0 0 Z " fill="#D7E7FF" transform="translate(53,17)"/>
</svg>
