<svg width="73" height="92" viewBox="0 0 73 92" fill="none" xmlns="http://www.w3.org/2000/svg">
<path d="M0 91.0008V89.9364C5.57348 89.9364 6.66965 85.3087 6.66965 63.79V27.509C6.66965 5.99027 5.55804 1.36258 0 1.36258V0.298218H28.3151V1.36258C22.7416 1.36258 21.6455 5.99027 21.6455 27.509V57.8049L41.0677 27.5244C54.5151 6.56101 55.1018 1.36258 45.8229 1.36258V0.298218H72.1927V1.36258C64.3652 1.36258 56.6457 6.53016 43.1983 27.5244L36.7602 37.5665L53.8666 64.2528C60.0731 75.5752 68.2404 74.372 68.2404 74.372L68.2712 75.3592H47.2896C45.9773 75.3592 44.9738 73.7087 44.2636 72.6135L29.2878 49.2437L21.6455 61.1522V63.8054C21.6455 85.3242 22.7571 89.9518 28.3151 89.9518V91.0162H0V91.0008Z" fill="#D7E7FF"/>
</svg>
