<svg width="261" height="214" viewBox="0 0 261 214" fill="none" xmlns="http://www.w3.org/2000/svg">
<path d="M23.808 90H2.304V88.976C3.75467 88.976 4.864 88.6347 5.632 87.952C6.48533 87.2693 7.168 85.9467 7.68 83.984C8.192 81.936 8.49067 79.3333 8.576 76.176C8.74667 73.0187 8.832 68.6667 8.832 63.12V27.28C8.832 19.9413 8.66133 14.5227 8.32 11.024C7.97867 7.52533 7.33867 5.05066 6.4 3.6C5.54667 2.14933 4.18133 1.424 2.304 1.424V0.399994H23.68L70.4 68.496V27.28C70.4 20.368 69.9307 15.0773 68.992 11.408C68.1387 7.65333 66.816 5.05066 65.024 3.6C63.232 2.14933 60.7573 1.424 57.6 1.424V0.399994H79.104V1.424C77.2267 1.424 75.8187 2.14933 74.88 3.6C73.9413 5.05066 73.3013 7.52533 72.96 11.024C72.6187 14.5227 72.448 19.9413 72.448 27.28V90H70.4L11.008 3.47199V63.12C11.008 70.032 11.4347 75.3653 12.288 79.12C13.2267 82.7893 14.5493 85.3493 16.256 86.8C18.048 88.2507 20.5653 88.976 23.808 88.976V90ZM148.873 74.512L150.025 75.408C147.977 78.9067 145.588 81.8933 142.857 84.368C140.126 86.8427 136.969 88.8053 133.385 90.256C129.886 91.7067 126.089 92.432 121.993 92.432C112.521 92.432 104.414 88.976 97.673 82.064C91.017 75.0667 87.689 66.6613 87.689 56.848C87.689 46.9493 91.017 38.544 97.673 31.632C104.414 24.6347 112.521 21.136 121.993 21.136C123.614 21.136 125.662 21.392 128.137 21.904C130.612 22.3307 133.3 23.0133 136.201 23.952C139.102 24.8053 141.534 26.2133 143.497 28.176C145.545 30.0533 146.569 32.2293 146.569 34.704C146.569 38.544 142.9 42.128 135.561 45.456C128.222 48.784 117.086 52.368 102.153 56.208C102.324 57.5733 102.537 58.9387 102.793 60.304C104.329 68.9227 107.572 75.536 112.521 80.144C117.556 84.752 123.23 87.056 129.545 87.056C132.873 87.056 136.329 86.032 139.913 83.984C143.497 81.8507 146.484 78.6933 148.873 74.512ZM116.105 23.824C111.326 24.592 107.614 27.9627 104.969 33.936C102.324 39.824 101.342 46.8213 102.025 54.928C122.676 48.6987 133.001 42.1707 133.001 35.344C133.001 32.016 131.209 29.072 127.625 26.512C124.126 23.952 120.286 23.056 116.105 23.824ZM228.563 23.44H249.939V24.592C247.464 24.592 245.288 25.9573 243.411 28.688C241.534 31.3333 239.187 36.496 236.371 44.176L220.627 90H218.579L202.963 44.944L187.603 90H185.555L171.859 50.448C168.275 40.1227 165.416 33.2533 163.283 29.84C161.15 26.3413 158.718 24.592 155.987 24.592V23.44H190.163V24.592C185.47 24.592 182.824 26.3413 182.227 29.84C181.715 33.2533 183.166 40.1227 186.579 50.448L192.851 68.496L208.211 23.44H210.387L225.875 68.496C226.899 65.68 228.99 59.6213 232.147 50.32C233.342 46.6507 234.238 43.3227 234.835 40.336C235.432 37.3493 235.688 34.6613 235.603 32.272C235.518 29.7973 234.878 27.92 233.683 26.64C232.488 25.2747 230.782 24.592 228.563 24.592V23.44ZM30.208 197H2.304V195.976C4.18133 195.976 5.54667 195.251 6.4 193.8C7.33867 192.349 7.97867 189.875 8.32 186.376C8.66133 182.877 8.832 177.459 8.832 170.12V134.28C8.832 128.733 8.74667 124.381 8.576 121.224C8.49067 118.067 8.192 115.507 7.68 113.544C7.168 111.496 6.48533 110.131 5.632 109.448C4.864 108.765 3.75467 108.424 2.304 108.424V107.4H30.208V108.424C28.3307 108.424 26.9227 109.149 25.984 110.6C25.1307 112.051 24.5333 114.525 24.192 118.024C23.8507 121.523 23.68 126.941 23.68 134.28V170.12C23.68 177.459 23.8507 182.877 24.192 186.376C24.5333 189.875 25.1307 192.349 25.984 193.8C26.9227 195.251 28.3307 195.976 30.208 195.976V197ZM106.865 170.12C106.865 174.557 106.908 178.184 106.993 181C107.078 183.816 107.249 186.291 107.505 188.424C107.761 190.472 108.145 192.008 108.657 193.032C109.254 194.056 109.894 194.824 110.577 195.336C111.345 195.763 112.284 195.976 113.393 195.976V197H79.345V195.976C82.5023 195.976 84.9343 195.251 86.641 193.8C88.433 192.349 89.7557 189.789 90.609 186.12C91.5477 182.365 92.017 177.032 92.017 170.12V154.12C92.017 146.525 90.737 141.107 88.177 137.864C85.617 134.536 82.545 132.872 78.961 132.872C73.2437 132.872 67.3557 137.096 61.297 145.544V170.12C61.297 177.032 61.7237 182.365 62.577 186.12C63.5157 189.789 64.8383 192.349 66.545 193.8C68.337 195.251 70.8543 195.976 74.097 195.976V197H39.921V195.976C41.3717 195.976 42.481 195.635 43.249 194.952C44.1023 194.269 44.785 192.947 45.297 190.984C45.809 188.936 46.1077 186.333 46.193 183.176C46.3637 180.019 46.449 175.667 46.449 170.12V157.32C46.449 150.152 46.2357 145.117 45.809 142.216C45.4677 139.229 44.913 137.395 44.145 136.712C43.377 135.944 41.969 135.56 39.921 135.56V134.536L61.297 130.44V142.728C65.4783 137.096 69.5743 133.256 73.585 131.208C77.5957 129.16 82.289 128.136 87.665 128.136C93.7237 128.136 98.417 130.269 101.745 134.536C105.158 138.717 106.865 145.245 106.865 154.12V170.12ZM132.802 176.392L127.17 114.696C126.999 112.733 127.554 111.027 128.834 109.576C130.199 108.125 131.863 107.4 133.826 107.4C135.874 107.4 137.538 108.125 138.818 109.576C140.183 111.027 140.781 112.733 140.61 114.696L134.978 176.392H132.802ZM140.226 196.744C138.519 198.536 136.386 199.432 133.826 199.432C131.351 199.432 129.218 198.536 127.426 196.744C125.719 194.952 124.866 192.819 124.866 190.344C124.866 187.869 125.719 185.736 127.426 183.944C129.218 182.152 131.351 181.256 133.826 181.256C136.386 181.256 138.519 182.152 140.226 183.944C142.018 185.736 142.914 187.869 142.914 190.344C142.914 192.819 142.018 194.952 140.226 196.744Z" fill="#FFBC5A"/>
<path d="M23.808 90V90.25H24.058V90H23.808ZM2.304 90H2.054V90.25H2.304V90ZM2.304 88.976V88.726H2.054V88.976H2.304ZM5.632 87.952L5.47562 87.7565L5.46591 87.7651L5.632 87.952ZM7.68 83.984L7.92192 84.0471L7.92254 84.0446L7.68 83.984ZM8.576 76.176L8.32627 76.1625L8.32609 76.1692L8.576 76.176ZM6.4 3.6L6.18432 3.72687L6.19011 3.73581L6.4 3.6ZM2.304 1.424H2.054V1.674H2.304V1.424ZM2.304 0.399994V0.149994H2.054V0.399994H2.304ZM23.68 0.399994L23.8861 0.258559L23.8117 0.149994H23.68V0.399994ZM70.4 68.496L70.1939 68.6374L70.65 69.3023V68.496H70.4ZM68.992 11.408L68.7481 11.4634L68.7498 11.47L68.992 11.408ZM65.024 3.6L64.8667 3.79431V3.79431L65.024 3.6ZM57.6 1.424H57.35V1.674H57.6V1.424ZM57.6 0.399994V0.149994H57.35V0.399994H57.6ZM79.104 0.399994H79.354V0.149994H79.104V0.399994ZM79.104 1.424V1.674H79.354V1.424H79.104ZM74.88 3.6L75.0899 3.73581V3.73581L74.88 3.6ZM72.96 11.024L73.2088 11.0483L72.96 11.024ZM72.448 90V90.25H72.698V90H72.448ZM70.4 90L70.1939 90.1415L70.2684 90.25H70.4V90ZM11.008 3.47199L11.2141 3.33052L10.758 2.666V3.47199H11.008ZM12.288 79.12L12.0441 79.1754L12.0458 79.182L12.288 79.12ZM16.256 86.8L16.094 86.9905L16.0987 86.9943L16.256 86.8ZM23.808 88.976H24.058V88.726H23.808V88.976ZM23.808 89.75H2.304V90.25H23.808V89.75ZM2.554 90V88.976H2.054V90H2.554ZM2.304 89.226C3.79083 89.226 4.96854 88.8762 5.79809 88.1389L5.46591 87.7651C4.75946 88.3931 3.71851 88.726 2.304 88.726V89.226ZM5.78817 88.1472C6.70666 87.4124 7.40639 86.0232 7.9219 84.0471L7.4381 83.9209C6.92961 85.8701 6.26401 87.1262 5.47583 87.7568L5.78817 88.1472ZM7.92254 84.0446C8.44054 81.9726 8.7403 79.3503 8.82591 76.1828L8.32609 76.1692C8.24103 79.3164 7.94346 81.8994 7.43746 83.9234L7.92254 84.0446ZM8.82564 76.1895C8.99666 73.0255 9.082 68.6684 9.082 63.12H8.582C8.582 68.665 8.49667 73.0118 8.32636 76.1625L8.82564 76.1895ZM9.082 63.12V27.28H8.582V63.12H9.082ZM9.082 27.28C9.082 19.94 8.9114 14.5111 8.56882 10.9997L8.07118 11.0483C8.41127 14.5342 8.582 19.9427 8.582 27.28H9.082ZM8.56882 10.9997C8.22683 7.4943 7.58303 4.96813 6.60989 3.46419L6.19011 3.73581C7.0943 5.13319 7.73051 7.55635 8.07118 11.0483L8.56882 10.9997ZM6.61548 3.47324C5.71132 1.93617 4.25762 1.174 2.304 1.174V1.674C4.10505 1.674 5.38201 2.36249 6.18452 3.72675L6.61548 3.47324ZM2.554 1.424V0.399994H2.054V1.424H2.554ZM2.304 0.649994H23.68V0.149994H2.304V0.649994ZM23.4739 0.541429L70.1939 68.6374L70.6061 68.3546L23.8861 0.258559L23.4739 0.541429ZM70.65 68.496V27.28H70.15V68.496H70.65ZM70.65 27.28C70.65 20.3612 70.1807 15.0458 69.2342 11.346L68.7498 11.47C69.6807 15.1088 70.15 20.3748 70.15 27.28H70.65ZM69.2358 11.3526C68.3776 7.57674 67.0377 4.90845 65.1813 3.40569L64.8667 3.79431C66.5943 5.19287 67.8997 7.72991 68.7482 11.4634L69.2358 11.3526ZM65.1813 3.40569C63.3308 1.90768 60.7936 1.174 57.6 1.174V1.674C60.7211 1.674 63.1332 2.39098 64.8667 3.79431L65.1813 3.40569ZM57.85 1.424V0.399994H57.35V1.424H57.85ZM57.6 0.649994H79.104V0.149994H57.6V0.649994ZM78.854 0.399994V1.424H79.354V0.399994H78.854ZM79.104 1.174C77.1506 1.174 75.6594 1.93528 74.6701 3.46419L75.0899 3.73581C75.9779 2.36338 77.3027 1.674 79.104 1.674V1.174ZM74.6701 3.46418C73.697 4.96813 73.0532 7.4943 72.7112 10.9997L73.2088 11.0483C73.5495 7.55635 74.1857 5.1332 75.0899 3.73581L74.6701 3.46418ZM72.7112 10.9997C72.3686 14.5111 72.198 19.94 72.198 27.28H72.698C72.698 19.9427 72.8687 14.5342 73.2088 11.0483L72.7112 10.9997ZM72.198 27.28V90H72.698V27.28H72.198ZM72.448 89.75H70.4V90.25H72.448V89.75ZM70.6061 89.8585L11.2141 3.33052L10.8019 3.61347L70.1939 90.1415L70.6061 89.8585ZM10.758 3.47199V63.12H11.258V3.47199H10.758ZM10.758 63.12C10.758 70.0384 11.1847 75.3936 12.0442 79.1754L12.5318 79.0646C11.6846 75.3371 11.258 70.0256 11.258 63.12H10.758ZM12.0458 79.182C12.9893 82.8703 14.3291 85.4902 16.0941 86.9905L16.4179 86.6095C14.7696 85.2084 13.464 82.7084 12.5302 79.058L12.0458 79.182ZM16.0987 86.9943C17.9502 88.4932 20.531 89.226 23.808 89.226V88.726C20.5997 88.726 18.1458 88.0082 16.4133 86.6057L16.0987 86.9943ZM23.558 88.976V90H24.058V88.976H23.558ZM148.873 74.512L149.026 74.3147L148.799 74.1377L148.656 74.388L148.873 74.512ZM150.025 75.408L150.241 75.5343L150.351 75.3452L150.178 75.2107L150.025 75.408ZM133.385 90.256L133.291 90.0243L133.289 90.0251L133.385 90.256ZM97.673 82.064L97.4919 82.2363L97.494 82.2386L97.673 82.064ZM97.673 31.632L97.493 31.4585L97.4929 31.4586L97.673 31.632ZM128.137 21.904L128.086 22.149L128.095 22.1504L128.137 21.904ZM136.201 23.952L136.124 24.1899L136.13 24.1918L136.201 23.952ZM143.497 28.176L143.32 28.3529L143.328 28.3603L143.497 28.176ZM102.153 56.208L102.091 55.9659L101.878 56.0207L101.905 56.239L102.153 56.208ZM102.793 60.304L103.039 60.2601L103.039 60.2579L102.793 60.304ZM112.521 80.144L112.351 80.327L112.352 80.3284L112.521 80.144ZM139.913 83.984L140.037 84.2011L140.041 84.1988L139.913 83.984ZM116.105 23.824L116.145 24.0709L116.15 24.0699L116.105 23.824ZM104.969 33.936L105.197 34.0385L105.198 34.0372L104.969 33.936ZM102.025 54.928L101.776 54.949L101.802 55.2565L102.097 55.1673L102.025 54.928ZM127.625 26.512L127.477 26.7138L127.48 26.7154L127.625 26.512ZM148.72 74.7093L149.872 75.6053L150.178 75.2107L149.026 74.3147L148.72 74.7093ZM149.809 75.2817C147.773 78.7606 145.399 81.7268 142.689 84.1828L143.025 84.5532C145.776 82.0599 148.181 79.0527 150.241 75.5343L149.809 75.2817ZM142.689 84.1828C139.981 86.6367 136.849 88.5841 133.291 90.0243L133.479 90.4877C137.089 89.0266 140.271 87.0486 143.025 84.5532L142.689 84.1828ZM133.289 90.0251C129.823 91.4622 126.059 92.182 121.993 92.182V92.682C126.119 92.682 129.949 91.9512 133.481 90.4869L133.289 90.0251ZM121.993 92.182C112.59 92.182 104.547 88.7543 97.852 81.8895L97.494 82.2386C104.281 89.1977 112.452 92.682 121.993 92.682V92.182ZM97.8541 81.8917C91.2431 74.9417 87.939 66.5983 87.939 56.848H87.439C87.439 66.7243 90.7909 75.1917 97.4919 82.2363L97.8541 81.8917ZM87.939 56.848C87.939 47.0117 91.2435 38.6692 97.8531 31.8054L97.4929 31.4586C90.7905 38.4188 87.439 46.8869 87.439 56.848H87.939ZM97.853 31.8054C104.549 24.8556 112.591 21.386 121.993 21.386V20.886C112.451 20.886 104.28 24.4137 97.493 31.4585L97.853 31.8054ZM121.993 21.386C123.591 21.386 125.62 21.6386 128.086 22.1488L128.188 21.6592C125.704 21.1454 123.638 20.886 121.993 20.886V21.386ZM128.095 22.1504C130.555 22.5746 133.232 23.2541 136.124 24.1899L136.278 23.7141C133.368 22.7726 130.668 22.0867 128.179 21.6576L128.095 22.1504ZM136.13 24.1918C138.995 25.0345 141.39 26.4223 143.32 28.3528L143.674 27.9992C141.679 26.0044 139.209 24.5762 136.272 23.7122L136.13 24.1918ZM143.328 28.3603C145.331 30.1967 146.319 32.3084 146.319 34.704H146.819C146.819 32.1503 145.759 29.91 143.666 27.9917L143.328 28.3603ZM146.319 34.704C146.319 36.5364 145.446 38.3318 143.642 40.0932C141.837 41.8566 139.114 43.5703 135.458 45.2283L135.664 45.6837C139.347 44.0137 142.128 42.2713 143.992 40.4508C145.858 38.6282 146.819 36.7116 146.819 34.704H146.319ZM135.458 45.2283C128.139 48.5471 117.02 52.1269 102.091 55.9659L102.215 56.4501C117.152 52.6091 128.305 49.0209 135.664 45.6837L135.458 45.2283ZM101.905 56.239C102.076 57.6094 102.29 58.9798 102.547 60.3501L103.039 60.2579C102.784 58.8975 102.571 57.5372 102.401 56.177L101.905 56.239ZM102.547 60.3479C104.09 69.0041 107.351 75.6724 112.351 80.327L112.691 79.961C107.792 75.3996 104.568 68.8412 103.039 60.2601L102.547 60.3479ZM112.352 80.3284C117.429 84.9749 123.163 87.306 129.545 87.306V86.806C123.298 86.806 117.682 84.5291 112.69 79.9596L112.352 80.3284ZM129.545 87.306C132.926 87.306 136.424 86.2655 140.037 84.2011L139.789 83.7669C136.234 85.7985 132.82 86.806 129.545 86.806V87.306ZM140.041 84.1988C143.667 82.0402 146.683 78.849 149.09 74.636L148.656 74.388C146.285 78.5377 143.327 81.6611 139.785 83.7692L140.041 84.1988ZM116.065 23.5772C111.175 24.3631 107.407 27.8141 104.74 33.8348L105.198 34.0372C107.822 28.1113 111.477 24.8209 116.145 24.0708L116.065 23.5772ZM104.741 33.8335C102.074 39.769 101.091 46.8108 101.776 54.949L102.274 54.907C101.594 46.8318 102.573 39.8789 105.197 34.0385L104.741 33.8335ZM102.097 55.1673C112.43 52.0503 120.2 48.8532 125.391 45.5713C130.569 42.2972 133.251 38.8934 133.251 35.344H132.751C132.751 38.6212 130.27 41.8948 125.123 45.1487C119.989 48.3948 112.27 51.5763 101.953 54.6887L102.097 55.1673ZM133.251 35.344C133.251 31.9103 131.397 28.8988 127.77 26.3086L127.48 26.7154C131.021 29.2452 132.751 32.1217 132.751 35.344H133.251ZM127.773 26.3102C124.22 23.7106 120.31 22.7974 116.06 23.5781L116.15 24.0699C120.262 23.3146 124.033 24.1934 127.477 26.7138L127.773 26.3102ZM228.563 23.44V23.19H228.313V23.44H228.563ZM249.939 23.44H250.189V23.19H249.939V23.44ZM249.939 24.592V24.842H250.189V24.592H249.939ZM243.411 28.688L243.615 28.8327L243.617 28.8296L243.411 28.688ZM236.371 44.176L236.136 44.0899L236.135 44.0948L236.371 44.176ZM220.627 90V90.25H220.805L220.863 90.0812L220.627 90ZM218.579 90L218.343 90.0819L218.401 90.25H218.579V90ZM202.963 44.944L203.199 44.8621L202.961 44.175L202.726 44.8633L202.963 44.944ZM187.603 90V90.25H187.782L187.84 90.0807L187.603 90ZM185.555 90L185.319 90.0818L185.377 90.25H185.555V90ZM171.859 50.448L172.095 50.3662L172.095 50.366L171.859 50.448ZM163.283 29.84L163.07 29.9702L163.071 29.9725L163.283 29.84ZM155.987 24.592H155.737V24.842H155.987V24.592ZM155.987 23.44V23.19H155.737V23.44H155.987ZM190.163 23.44H190.413V23.19H190.163V23.44ZM190.163 24.592V24.842H190.413V24.592H190.163ZM182.227 29.84L181.981 29.7979L181.98 29.8029L182.227 29.84ZM186.579 50.448L186.342 50.5265L186.343 50.5301L186.579 50.448ZM192.851 68.496L192.615 68.5781L192.853 69.2641L193.088 68.5767L192.851 68.496ZM208.211 23.44V23.19H208.032L207.974 23.3593L208.211 23.44ZM210.387 23.44L210.623 23.3587L210.565 23.19H210.387V23.44ZM225.875 68.496L225.639 68.5773L225.868 69.2458L226.11 68.5814L225.875 68.496ZM232.147 50.32L232.384 50.4004L232.385 50.3974L232.147 50.32ZM234.835 40.336L234.59 40.287L234.835 40.336ZM235.603 32.272L235.353 32.2806V32.2809L235.603 32.272ZM233.683 26.64L233.495 26.8047L233.5 26.8106L233.683 26.64ZM228.563 24.592H228.313V24.842H228.563V24.592ZM228.563 23.69H249.939V23.19H228.563V23.69ZM249.689 23.44V24.592H250.189V23.44H249.689ZM249.939 24.342C247.355 24.342 245.112 25.7732 243.205 28.5464L243.617 28.8296C245.465 26.1415 247.573 24.842 249.939 24.842V24.342ZM243.207 28.5433C241.308 31.2191 238.952 36.4112 236.136 44.0899L236.606 44.2621C239.422 36.5807 241.759 31.4475 243.615 28.8327L243.207 28.5433ZM236.135 44.0948L220.391 89.9188L220.863 90.0812L236.607 44.2572L236.135 44.0948ZM220.627 89.75H218.579V90.25H220.627V89.75ZM218.815 89.9181L203.199 44.8621L202.727 45.0259L218.343 90.0819L218.815 89.9181ZM202.726 44.8633L187.366 89.9193L187.84 90.0807L203.2 45.0247L202.726 44.8633ZM187.603 89.75H185.555V90.25H187.603V89.75ZM185.791 89.9182L172.095 50.3662L171.623 50.5298L185.319 90.0818L185.791 89.9182ZM172.095 50.366C168.512 40.0433 165.645 33.1481 163.495 29.7075L163.071 29.9725C165.187 33.3586 168.038 40.2021 171.623 50.53L172.095 50.366ZM163.496 29.7098C161.342 26.1768 158.843 24.342 155.987 24.342V24.842C158.592 24.842 160.957 26.5058 163.07 29.9701L163.496 29.7098ZM156.237 24.592V23.44H155.737V24.592H156.237ZM155.987 23.69H190.163V23.19H155.987V23.69ZM189.913 23.44V24.592H190.413V23.44H189.913ZM190.163 24.342C187.789 24.342 185.9 24.7837 184.521 25.6955C183.134 26.613 182.289 27.9895 181.981 29.7979L182.473 29.8821C182.762 28.1919 183.539 26.9443 184.797 26.1125C186.063 25.275 187.843 24.842 190.163 24.842V24.342ZM181.98 29.8029C181.717 31.5561 181.96 34.1636 182.686 37.6037C183.414 41.0509 184.633 45.3592 186.342 50.5265L186.816 50.3695C185.111 45.2115 183.898 40.9225 183.176 37.5003C182.451 34.0711 182.225 31.5372 182.474 29.8771L181.98 29.8029ZM186.343 50.5301L192.615 68.5781L193.087 68.4139L186.815 50.3659L186.343 50.5301ZM193.088 68.5767L208.448 23.5207L207.974 23.3593L192.614 68.4153L193.088 68.5767ZM208.211 23.69H210.387V23.19H208.211V23.69ZM210.151 23.5213L225.639 68.5773L226.111 68.4147L210.623 23.3587L210.151 23.5213ZM226.11 68.5814C227.135 65.7624 229.227 59.7011 232.384 50.4004L231.91 50.2396C228.753 59.5416 226.663 65.5976 225.64 68.4106L226.11 68.5814ZM232.385 50.3974C233.582 46.7211 234.48 43.3834 235.08 40.385L234.59 40.287C233.995 43.2619 233.102 46.5802 231.909 50.2426L232.385 50.3974ZM235.08 40.385C235.68 37.3842 235.939 34.6763 235.853 32.2631L235.353 32.2809C235.438 34.6464 235.184 37.3144 234.59 40.287L235.08 40.385ZM235.853 32.2634C235.766 29.7532 235.116 27.8088 233.866 26.4694L233.5 26.8106C234.639 28.0312 235.269 29.8415 235.353 32.2806L235.853 32.2634ZM233.871 26.4754C232.619 25.0439 230.836 24.342 228.563 24.342V24.842C230.727 24.842 232.358 25.5054 233.495 26.8046L233.871 26.4754ZM228.813 24.592V23.44H228.313V24.592H228.813ZM30.208 197V197.25H30.458V197H30.208ZM2.304 197H2.054V197.25H2.304V197ZM2.304 195.976V195.726H2.054V195.976H2.304ZM6.4 193.8L6.18992 193.664L6.18452 193.673L6.4 193.8ZM8.576 121.224L8.326 121.231L8.32636 121.237L8.576 121.224ZM7.68 113.544L7.43745 113.605L7.4381 113.607L7.68 113.544ZM5.632 109.448L5.46569 109.635L5.47583 109.643L5.632 109.448ZM2.304 108.424H2.054V108.674H2.304V108.424ZM2.304 107.4V107.15H2.054V107.4H2.304ZM30.208 107.4H30.458V107.15H30.208V107.4ZM30.208 108.424V108.674H30.458V108.424H30.208ZM25.984 110.6L25.7739 110.464L25.7685 110.473L25.984 110.6ZM24.192 118.024L24.4408 118.048L24.192 118.024ZM24.192 186.376L24.4408 186.352L24.192 186.376ZM25.984 193.8L25.7683 193.927L25.7741 193.936L25.984 193.8ZM30.208 195.976H30.458V195.726H30.208V195.976ZM30.208 196.75H2.304V197.25H30.208V196.75ZM2.554 197V195.976H2.054V197H2.554ZM2.304 196.226C4.25762 196.226 5.71132 195.464 6.61548 193.927L6.18452 193.673C5.38201 195.038 4.10505 195.726 2.304 195.726V196.226ZM6.60989 193.936C7.58303 192.432 8.22683 189.906 8.56882 186.4L8.07118 186.352C7.73051 189.844 7.0943 192.267 6.19011 193.664L6.60989 193.936ZM8.56882 186.4C8.9114 182.889 9.082 177.46 9.082 170.12H8.582C8.582 177.457 8.41127 182.866 8.07118 186.352L8.56882 186.4ZM9.082 170.12V134.28H8.582V170.12H9.082ZM9.082 134.28C9.082 128.732 8.99666 124.374 8.82564 121.211L8.32636 121.237C8.49667 124.388 8.582 128.735 8.582 134.28H9.082ZM8.82591 121.217C8.74031 118.05 8.44059 115.469 7.9219 113.481L7.4381 113.607C7.94341 115.544 8.24102 118.083 8.32609 121.231L8.82591 121.217ZM7.92254 113.483C7.4078 111.424 6.70891 109.989 5.78817 109.253L5.47583 109.643C6.26175 110.272 6.9282 111.568 7.43746 113.605L7.92254 113.483ZM5.79809 109.261C4.96854 108.524 3.79083 108.174 2.304 108.174V108.674C3.71851 108.674 4.75946 109.007 5.46591 109.635L5.79809 109.261ZM2.554 108.424V107.4H2.054V108.424H2.554ZM2.304 107.65H30.208V107.15H2.304V107.65ZM29.958 107.4V108.424H30.458V107.4H29.958ZM30.208 108.174C28.2546 108.174 26.7634 108.935 25.7741 110.464L26.1939 110.736C27.0819 109.363 28.4067 108.674 30.208 108.674V108.174ZM25.7685 110.473C24.8857 111.974 24.285 114.496 23.9432 118L24.4408 118.048C24.7816 114.555 25.3756 112.127 26.1995 110.727L25.7685 110.473ZM23.9432 118C23.6006 121.511 23.43 126.94 23.43 134.28H23.93C23.93 126.943 24.1007 121.534 24.4408 118.048L23.9432 118ZM23.43 134.28V170.12H23.93V134.28H23.43ZM23.43 170.12C23.43 177.46 23.6006 182.889 23.9432 186.4L24.4408 186.352C24.1007 182.866 23.93 177.457 23.93 170.12H23.43ZM23.9432 186.4C24.285 189.904 24.8857 192.426 25.7685 193.927L26.1995 193.673C25.3756 192.273 24.7816 189.845 24.4408 186.352L23.9432 186.4ZM25.7741 193.936C26.7634 195.465 28.2546 196.226 30.208 196.226V195.726C28.4067 195.726 27.0819 195.037 26.1939 193.664L25.7741 193.936ZM29.958 195.976V197H30.458V195.976H29.958ZM106.993 181L106.743 181.008L106.993 181ZM107.505 188.424L107.257 188.454L107.257 188.455L107.505 188.424ZM108.657 193.032L108.433 193.144L108.437 193.151L108.441 193.158L108.657 193.032ZM110.577 195.336L110.427 195.536L110.441 195.546L110.456 195.555L110.577 195.336ZM113.393 195.976H113.643V195.726H113.393V195.976ZM113.393 197V197.25H113.643V197H113.393ZM79.345 197H79.095V197.25H79.345V197ZM79.345 195.976V195.726H79.095V195.976H79.345ZM86.641 193.8L86.4837 193.606L86.4791 193.61L86.641 193.8ZM90.609 186.12L90.3664 186.059L90.3655 186.063L90.609 186.12ZM88.177 137.864L87.9788 138.016L87.9808 138.019L88.177 137.864ZM61.297 145.544L61.0938 145.398L61.047 145.464V145.544H61.297ZM62.577 186.12L62.3331 186.175L62.3348 186.182L62.577 186.12ZM66.545 193.8L66.383 193.991L66.3877 193.994L66.545 193.8ZM74.097 195.976H74.347V195.726H74.097V195.976ZM74.097 197V197.25H74.347V197H74.097ZM39.921 197H39.671V197.25H39.921V197ZM39.921 195.976V195.726H39.671V195.976H39.921ZM43.249 194.952L43.0926 194.757L43.0829 194.765L43.249 194.952ZM45.297 190.984L45.5389 191.047L45.5395 191.045L45.297 190.984ZM46.193 183.176L45.9433 183.163L45.9431 183.169L46.193 183.176ZM45.809 142.216L45.5605 142.244L45.5617 142.252L45.809 142.216ZM44.145 136.712L43.9682 136.889L43.9734 136.894L43.9789 136.899L44.145 136.712ZM39.921 135.56H39.671V135.81H39.921V135.56ZM39.921 134.536L39.874 134.29L39.671 134.329V134.536H39.921ZM61.297 130.44H61.547V130.138L61.25 130.194L61.297 130.44ZM61.297 142.728H61.047V143.484L61.4977 142.877L61.297 142.728ZM73.585 131.208L73.6987 131.431L73.585 131.208ZM101.745 134.536L101.548 134.69L101.551 134.694L101.745 134.536ZM106.615 170.12C106.615 174.559 106.658 178.188 106.743 181.008L107.243 180.992C107.158 178.18 107.115 174.556 107.115 170.12H106.615ZM106.743 181.008C106.829 183.829 107 186.311 107.257 188.454L107.753 188.394C107.498 186.27 107.328 183.803 107.243 180.992L106.743 181.008ZM107.257 188.455C107.514 190.512 107.902 192.082 108.433 193.144L108.881 192.92C108.388 191.934 108.008 190.432 107.753 188.393L107.257 188.455ZM108.441 193.158C109.049 194.2 109.709 194.998 110.427 195.536L110.727 195.136C110.079 194.65 109.46 193.912 108.873 192.906L108.441 193.158ZM110.456 195.555C111.269 196.007 112.252 196.226 113.393 196.226V195.726C112.315 195.726 111.421 195.519 110.698 195.117L110.456 195.555ZM113.143 195.976V197H113.643V195.976H113.143ZM113.393 196.75H79.345V197.25H113.393V196.75ZM79.595 197V195.976H79.095V197H79.595ZM79.345 196.226C82.5376 196.226 85.0356 195.493 86.8029 193.99L86.4791 193.61C84.8331 195.009 82.467 195.726 79.345 195.726V196.226ZM86.7983 193.994C88.6534 192.493 89.9939 189.868 90.8525 186.177L90.3655 186.063C89.5174 189.71 88.2126 192.206 86.4837 193.606L86.7983 193.994ZM90.8515 186.181C91.7976 182.396 92.267 177.039 92.267 170.12H91.767C91.767 177.025 91.2977 182.334 90.3665 186.059L90.8515 186.181ZM92.267 170.12V154.12H91.767V170.12H92.267ZM92.267 154.12C92.267 146.51 90.9871 141.02 88.3732 137.709L87.9808 138.019C90.4869 141.193 91.767 146.54 91.767 154.12H92.267ZM88.3752 137.712C85.777 134.334 82.6365 132.622 78.961 132.622V133.122C82.4535 133.122 85.457 134.738 87.9788 138.016L88.3752 137.712ZM78.961 132.622C73.1158 132.622 67.1626 136.936 61.0938 145.398L61.5002 145.69C67.5487 137.256 73.3715 133.122 78.961 133.122V132.622ZM61.047 145.544V170.12H61.547V145.544H61.047ZM61.047 170.12C61.047 177.038 61.4737 182.394 62.3332 186.175L62.8208 186.065C61.9736 182.337 61.547 177.026 61.547 170.12H61.047ZM62.3348 186.182C63.2783 189.87 64.6181 192.49 66.3831 193.99L66.7069 193.61C65.0586 192.208 63.753 189.708 62.8192 186.058L62.3348 186.182ZM66.3877 193.994C68.2392 195.493 70.82 196.226 74.097 196.226V195.726C70.8887 195.726 68.4348 195.008 66.7023 193.606L66.3877 193.994ZM73.847 195.976V197H74.347V195.976H73.847ZM74.097 196.75H39.921V197.25H74.097V196.75ZM40.171 197V195.976H39.671V197H40.171ZM39.921 196.226C41.4078 196.226 42.5855 195.876 43.4151 195.139L43.0829 194.765C42.3765 195.393 41.3355 195.726 39.921 195.726V196.226ZM43.4052 195.147C44.3237 194.412 45.0234 193.023 45.5389 191.047L45.0551 190.921C44.5466 192.87 43.881 194.126 43.0928 194.757L43.4052 195.147ZM45.5395 191.045C46.0575 188.973 46.3573 186.35 46.4429 183.183L45.9431 183.169C45.858 186.316 45.5605 188.899 45.0545 190.923L45.5395 191.045ZM46.4426 183.189C46.6137 180.026 46.699 175.668 46.699 170.12H46.199C46.199 175.665 46.1137 180.012 45.9434 183.163L46.4426 183.189ZM46.699 170.12V157.32H46.199V170.12H46.699ZM46.699 157.32C46.699 150.152 46.486 145.101 46.0563 142.18L45.5617 142.252C45.9854 145.134 46.199 150.152 46.199 157.32H46.699ZM46.0574 142.188C45.8859 140.687 45.6597 139.465 45.3763 138.528C45.0954 137.599 44.7483 136.914 44.3111 136.525L43.9789 136.899C44.3097 137.193 44.6239 137.767 44.8977 138.672C45.169 139.57 45.3908 140.759 45.5606 142.244L46.0574 142.188ZM44.3218 136.535C43.4796 135.693 41.9828 135.31 39.921 135.31V135.81C41.9552 135.81 43.2744 136.195 43.9682 136.889L44.3218 136.535ZM40.171 135.56V134.536H39.671V135.56H40.171ZM39.968 134.782L61.344 130.686L61.25 130.194L39.874 134.29L39.968 134.782ZM61.047 130.44V142.728H61.547V130.44H61.047ZM61.4977 142.877C65.6676 137.26 69.7362 133.454 73.6987 131.431L73.4713 130.985C69.4125 133.058 65.289 136.932 61.0963 142.579L61.4977 142.877ZM73.6987 131.431C77.668 129.404 82.3209 128.386 87.665 128.386V127.886C82.2571 127.886 77.5234 128.916 73.4713 130.985L73.6987 131.431ZM87.665 128.386C93.6572 128.386 98.2734 130.492 101.548 134.69L101.942 134.382C98.5606 130.047 93.7902 127.886 87.665 127.886V128.386ZM101.551 134.694C104.911 138.81 106.615 145.269 106.615 154.12H107.115C107.115 145.222 105.405 138.625 101.939 134.378L101.551 134.694ZM106.615 154.12V170.12H107.115V154.12H106.615ZM132.802 176.392L132.553 176.415L132.574 176.642H132.802V176.392ZM127.17 114.696L126.921 114.718L126.921 114.719L127.17 114.696ZM128.834 109.576L128.652 109.405L128.647 109.411L128.834 109.576ZM138.818 109.576L138.63 109.741L138.636 109.747L138.818 109.576ZM140.61 114.696L140.859 114.719L140.859 114.718L140.61 114.696ZM134.978 176.392V176.642H135.206L135.227 176.415L134.978 176.392ZM140.226 196.744L140.049 196.567L140.045 196.572L140.226 196.744ZM127.426 196.744L127.245 196.916L127.249 196.921L127.426 196.744ZM127.426 183.944L127.249 183.767L127.245 183.772L127.426 183.944ZM140.226 183.944L140.045 184.116L140.049 184.121L140.226 183.944ZM133.051 176.369L127.419 114.673L126.921 114.719L132.553 176.415L133.051 176.369ZM127.419 114.674C127.254 112.778 127.788 111.14 129.021 109.741L128.647 109.411C127.32 110.914 126.744 112.688 126.921 114.718L127.419 114.674ZM129.016 109.747C130.335 108.346 131.933 107.65 133.826 107.65V107.15C131.793 107.15 130.064 107.905 128.652 109.405L129.016 109.747ZM133.826 107.65C135.807 107.65 137.401 108.348 138.631 109.741L139.005 109.411C137.675 107.903 135.941 107.15 133.826 107.15V107.65ZM138.636 109.747C139.953 111.147 140.525 112.784 140.361 114.674L140.859 114.718C141.036 112.683 140.414 110.907 139 109.405L138.636 109.747ZM140.361 114.673L134.729 176.369L135.227 176.415L140.859 114.719L140.361 114.673ZM134.978 176.142H132.802V176.642H134.978V176.142ZM140.045 196.572C138.387 198.312 136.32 199.182 133.826 199.182V199.682C136.452 199.682 138.651 198.76 140.407 196.916L140.045 196.572ZM133.826 199.182C131.419 199.182 129.349 198.314 127.603 196.567L127.249 196.921C129.087 198.758 131.283 199.682 133.826 199.682V199.182ZM127.607 196.572C125.945 194.826 125.116 192.754 125.116 190.344H124.616C124.616 192.883 125.494 195.078 127.245 196.916L127.607 196.572ZM125.116 190.344C125.116 187.934 125.945 185.862 127.607 184.116L127.245 183.772C125.494 185.61 124.616 187.805 124.616 190.344H125.116ZM127.603 184.121C129.349 182.374 131.419 181.506 133.826 181.506V181.006C131.283 181.006 129.087 181.93 127.249 183.767L127.603 184.121ZM133.826 181.506C136.32 181.506 138.387 182.376 140.045 184.116L140.407 183.772C138.651 181.928 136.452 181.006 133.826 181.006V181.506ZM140.049 184.121C141.796 185.867 142.664 187.937 142.664 190.344H143.164C143.164 187.801 142.24 185.605 140.403 183.767L140.049 184.121ZM142.664 190.344C142.664 192.751 141.796 194.821 140.049 196.567L140.403 196.921C142.24 195.083 143.164 192.887 143.164 190.344H142.664Z" fill="#FFBC5A"/>
<path d="M177.294 134.28C172.588 132.84 168.353 128.52 166.941 123.72C166.471 122.76 165.529 122.76 165.529 123.72C163.647 128.52 159.412 132.84 154.706 134.28C153.765 134.76 153.765 135.72 154.706 135.72C159.882 137.16 163.647 141.48 165.059 146.28C165.529 147.24 166.471 147.24 166.471 146.28C168.353 141.96 172.588 137.64 177.294 136.2C178.235 135.72 178.235 134.76 177.294 134.28Z" fill="#FFBC5A"/>
<path d="M180.647 155.64C178.294 154.92 176.176 152.76 175.471 150.36C175.235 149.88 174.765 149.88 174.765 150.36C173.824 152.76 171.706 154.92 169.353 155.64C168.882 155.88 168.882 156.36 169.353 156.36C171.941 157.08 173.824 159.24 174.529 161.64C174.765 162.12 175.235 162.12 175.235 161.64C176.176 159.48 178.294 157.32 180.647 156.6C181.118 156.36 181.118 155.88 180.647 155.64Z" fill="#FFBC5A"/>
</svg>
