<svg width="59" height="73" viewBox="0 0 59 73" fill="none" xmlns="http://www.w3.org/2000/svg">
<path d="M58 48.4857C58 61.8905 45.1548 72.7656 29.2989 72.7656H29.2526C17.8586 72.7656 10.417 71.8401 0.844857 70.3746V44.2591H1.91015C1.91015 61.1964 17.4881 70.6369 33.2513 70.6369C43.0396 70.6369 50.9907 63.9267 50.9907 55.6432C50.9907 47.3596 43.8424 40.6495 28.4189 40.6495C12.9953 40.6495 0.613281 31.7335 0.613281 20.6733C0.613281 9.61316 13.0571 0.650879 28.4189 0.650879C39.8129 0.650879 44.0895 1.57642 53.6616 3.04185V29.1574H52.5963C52.5963 12.2201 40.168 2.77961 24.4048 2.77961C15.1105 2.77961 7.57624 7.57698 7.57624 13.5004C7.57624 19.4238 13.4431 24.2212 29.3144 24.2212C45.1856 24.2212 58.0154 35.0808 58.0154 48.5011L58 48.4857Z" fill="#D7E7FF"/>
</svg>
