<svg width="20" height="16" viewBox="0 0 20 16" fill="none" xmlns="http://www.w3.org/2000/svg">
<path d="M5.28918 0.907674C8.42382 0.635186 11.5762 0.635186 14.7108 0.907674L16.2211 1.03896C17.2264 1.12635 18.0875 1.72602 18.5337 2.5838C18.5907 2.69353 18.5479 2.8264 18.4428 2.8915L12.1768 6.77043C10.833 7.60235 9.13844 7.6198 7.77772 6.81574L1.46989 3.08839C1.36798 3.02817 1.3212 2.90421 1.36713 2.79511C1.77529 1.82554 2.69292 1.13336 3.77895 1.03896L5.28918 0.907674Z" fill="white"/>
<path d="M1.362 4.76694C1.20603 4.67478 1.00703 4.77396 0.988851 4.9542C0.735115 7.46983 0.796526 10.0093 1.17308 12.5134C1.3716 13.8335 2.44901 14.8455 3.77895 14.9612L5.28918 15.0924C8.42382 15.3649 11.5762 15.3649 14.7108 15.0924L16.2211 14.9612C17.551 14.8455 18.6284 13.8335 18.8269 12.5134C19.2145 9.93631 19.2682 7.3218 18.9882 4.73434C18.9685 4.55282 18.7662 4.45547 18.6109 4.55157L12.9664 8.04583C11.1482 9.17136 8.8556 9.19498 7.01462 8.10713L1.362 4.76694Z" fill="white"/>
</svg>
