<svg width="36" height="36" viewBox="0 0 36 36" fill="none" xmlns="http://www.w3.org/2000/svg">
<circle cx="18" cy="18" r="18" fill="#FFBC5A"/>
<path fill-rule="evenodd" clip-rule="evenodd" d="M14.0019 11.5529C16.6983 11.3497 19.4065 11.363 22.1007 11.5928L23.7245 11.7312C24.951 11.8358 25.9464 12.7667 26.1329 13.9834L26.2353 14.6517C26.5829 16.9196 26.5504 19.2296 26.1392 21.4868C25.9362 22.6006 24.966 23.41 23.834 23.41H14.8576C14.651 23.41 14.4477 23.4611 14.2658 23.5589L10.355 25.6606C10.1226 25.7855 9.84163 25.7791 9.61515 25.6437C9.38867 25.5083 9.25 25.2638 9.25 25V16.4827C9.25 13.9041 11.2374 11.7613 13.8087 11.5675L14.0019 11.5529ZM14 16.5C13.3096 16.5 12.75 17.0596 12.75 17.75C12.75 18.4403 13.3096 19 14 19C14.6904 19 15.25 18.4403 15.25 17.75C15.25 17.0596 14.6904 16.5 14 16.5ZM18 16.5C17.3096 16.5 16.75 17.0596 16.75 17.75C16.75 18.4403 17.3096 19 18 19C18.6904 19 19.25 18.4403 19.25 17.75C19.25 17.0596 18.6904 16.5 18 16.5ZM20.75 17.75C20.75 17.0596 21.3096 16.5 22 16.5C22.6903 16.5 23.25 17.0596 23.25 17.75C23.25 18.4403 22.6903 19 22 19C21.3096 19 20.75 18.4403 20.75 17.75Z" fill="white"/>
</svg>
