<svg width="191" height="24" viewBox="0 0 191 24" fill="none" xmlns="http://www.w3.org/2000/svg">
<g clip-path="url(#clip0_862_7867)">
<path d="M12 9.81836V14.4656H18.4582C18.1746 15.9602 17.3236 17.2257 16.0472 18.0766L19.9417 21.0984C22.2108 19.0039 23.5199 15.9276 23.5199 12.273C23.5199 11.4221 23.4436 10.6039 23.3017 9.81849L12 9.81836Z" fill="#4285F4"/>
<path d="M5.27461 14.2842L4.39625 14.9566L1.28711 17.3783C3.26165 21.2947 7.30862 24.0002 11.9995 24.0002C15.2394 24.0002 17.9557 22.9311 19.9412 21.0984L16.0467 18.0765C14.9776 18.7965 13.614 19.2329 11.9995 19.2329C8.87951 19.2329 6.22868 17.1275 5.27952 14.2911L5.27461 14.2842Z" fill="#34A853"/>
<path d="M1.28718 6.62158C0.469042 8.23606 0 10.0579 0 11.9997C0 13.9415 0.469042 15.7633 1.28718 17.3778C1.28718 17.3886 5.27997 14.2796 5.27997 14.2796C5.03998 13.5596 4.89812 12.796 4.89812 11.9996C4.89812 11.2031 5.03998 10.4395 5.27997 9.71951L1.28718 6.62158Z" fill="#FBBC05"/>
<path d="M11.9997 4.77818C13.767 4.77818 15.3379 5.38907 16.5925 6.56727L20.0288 3.13095C17.9452 1.18917 15.2398 0 11.9997 0C7.30887 0 3.26165 2.69454 1.28711 6.62183L5.27978 9.72001C6.22882 6.88362 8.87976 4.77818 11.9997 4.77818Z" fill="#EA4335"/>
</g>
<g clip-path="url(#clip1_862_7867)">
<path d="M40.912 18.628C40.112 18.628 39.408 18.4733 38.8 18.164C38.192 17.844 37.7227 17.4013 37.392 16.836C37.0613 16.2707 36.896 15.6147 36.896 14.868V10.916C36.896 10.1693 37.0613 9.51333 37.392 8.948C37.7227 8.38267 38.192 7.94533 38.8 7.636C39.408 7.32667 40.112 7.172 40.912 7.172C41.7013 7.172 42.4 7.32133 43.008 7.62C43.616 7.91867 44.0853 8.34 44.416 8.884C44.7467 9.428 44.912 10.0573 44.912 10.772C44.912 10.8253 44.8907 10.8733 44.848 10.916C44.816 10.948 44.7733 10.964 44.72 10.964L43.248 11.044C43.12 11.044 43.056 10.9853 43.056 10.868C43.056 10.2387 42.8587 9.732 42.464 9.348C42.08 8.964 41.5627 8.772 40.912 8.772C40.2613 8.772 39.7387 8.964 39.344 9.348C38.9493 9.732 38.752 10.2387 38.752 10.868V14.948C38.752 15.5667 38.9493 16.068 39.344 16.452C39.7387 16.836 40.2613 17.028 40.912 17.028C41.5627 17.028 42.08 16.8413 42.464 16.468C42.8587 16.084 43.056 15.5773 43.056 14.948C43.056 14.8307 43.12 14.772 43.248 14.772L44.72 14.836C44.7733 14.836 44.816 14.852 44.848 14.884C44.8907 14.916 44.912 14.9533 44.912 14.996C44.912 15.7213 44.7467 16.3613 44.416 16.916C44.0853 17.46 43.616 17.8813 43.008 18.18C42.4 18.4787 41.7013 18.628 40.912 18.628ZM50.8228 18.628C49.9801 18.628 49.2548 18.4147 48.6468 17.988C48.0494 17.5613 47.6281 16.9693 47.3828 16.212C47.2014 15.636 47.1108 15.028 47.1108 14.388C47.1108 13.7053 47.1961 13.0973 47.3668 12.564C47.6121 11.8173 48.0388 11.236 48.6468 10.82C49.2548 10.404 49.9854 10.196 50.8388 10.196C51.6494 10.196 52.3481 10.404 52.9348 10.82C53.5321 11.236 53.9534 11.812 54.1988 12.548C54.3908 13.06 54.4868 13.668 54.4868 14.372C54.4868 15.044 54.3961 15.652 54.2148 16.196C53.9694 16.9533 53.5481 17.5507 52.9508 17.988C52.3534 18.4147 51.6441 18.628 50.8228 18.628ZM50.8228 17.028C51.2174 17.028 51.5534 16.916 51.8308 16.692C52.1188 16.468 52.3268 16.1533 52.4548 15.748C52.5614 15.396 52.6148 14.948 52.6148 14.404C52.6148 13.828 52.5614 13.38 52.4548 13.06C52.3374 12.6547 52.1348 12.3453 51.8468 12.132C51.5588 11.908 51.2068 11.796 50.7908 11.796C50.3961 11.796 50.0548 11.908 49.7668 12.132C49.4788 12.3453 49.2708 12.6547 49.1428 13.06C49.0361 13.4333 48.9828 13.8813 48.9828 14.404C48.9828 14.9267 49.0361 15.3747 49.1428 15.748C49.2601 16.1533 49.4628 16.468 49.7508 16.692C50.0494 16.916 50.4068 17.028 50.8228 17.028ZM60.8014 10.196C61.6654 10.196 62.3534 10.452 62.8654 10.964C63.388 11.476 63.6494 12.1747 63.6494 13.06V18.308C63.6494 18.3613 63.628 18.4093 63.5854 18.452C63.5534 18.484 63.5107 18.5 63.4574 18.5H61.9854C61.932 18.5 61.884 18.484 61.8414 18.452C61.8094 18.4093 61.7934 18.3613 61.7934 18.308V13.444C61.7934 12.9533 61.6547 12.5587 61.3774 12.26C61.1 11.9507 60.732 11.796 60.2734 11.796C59.8147 11.796 59.4414 11.9453 59.1534 12.244C58.876 12.5427 58.7374 12.9373 58.7374 13.428V18.308C58.7374 18.3613 58.716 18.4093 58.6734 18.452C58.6414 18.484 58.5987 18.5 58.5454 18.5H57.0734C57.02 18.5 56.972 18.484 56.9294 18.452C56.8974 18.4093 56.8814 18.3613 56.8814 18.308V10.516C56.8814 10.4627 56.8974 10.42 56.9294 10.388C56.972 10.3453 57.02 10.324 57.0734 10.324H58.5454C58.5987 10.324 58.6414 10.3453 58.6734 10.388C58.716 10.42 58.7374 10.4627 58.7374 10.516V11.028C58.7374 11.06 58.748 11.0813 58.7694 11.092C58.7907 11.1027 58.8067 11.092 58.8174 11.06C59.2547 10.484 59.916 10.196 60.8014 10.196ZM70.5605 11.636C70.5605 11.6893 70.5392 11.7373 70.4965 11.78C70.4645 11.812 70.4218 11.828 70.3685 11.828H68.7365C68.6832 11.828 68.6565 11.8547 68.6565 11.908V15.764C68.6565 16.1693 68.7418 16.4627 68.9125 16.644C69.0938 16.8253 69.3765 16.916 69.7605 16.916H70.2405C70.2938 16.916 70.3365 16.9373 70.3685 16.98C70.4112 17.012 70.4325 17.0547 70.4325 17.108V18.308C70.4325 18.4253 70.3685 18.4947 70.2405 18.516L69.4085 18.532C68.5658 18.532 67.9365 18.388 67.5205 18.1C67.1045 17.812 66.8912 17.268 66.8805 16.468V11.908C66.8805 11.8547 66.8538 11.828 66.8005 11.828H65.8885C65.8352 11.828 65.7872 11.812 65.7445 11.78C65.7125 11.7373 65.6965 11.6893 65.6965 11.636V10.516C65.6965 10.4627 65.7125 10.42 65.7445 10.388C65.7872 10.3453 65.8352 10.324 65.8885 10.324H66.8005C66.8538 10.324 66.8805 10.2973 66.8805 10.244V8.372C66.8805 8.31867 66.8965 8.276 66.9285 8.244C66.9712 8.20133 67.0192 8.18 67.0725 8.18H68.4645C68.5178 8.18 68.5605 8.20133 68.5925 8.244C68.6352 8.276 68.6565 8.31867 68.6565 8.372V10.244C68.6565 10.2973 68.6832 10.324 68.7365 10.324H70.3685C70.4218 10.324 70.4645 10.3453 70.4965 10.388C70.5392 10.42 70.5605 10.4627 70.5605 10.516V11.636ZM73.9049 9.204C73.5742 9.204 73.3022 9.09733 73.0889 8.884C72.8755 8.67067 72.7689 8.39867 72.7689 8.068C72.7689 7.73733 72.8755 7.46533 73.0889 7.252C73.3022 7.03867 73.5742 6.932 73.9049 6.932C74.2355 6.932 74.5075 7.03867 74.7209 7.252C74.9342 7.46533 75.0409 7.73733 75.0409 8.068C75.0409 8.39867 74.9342 8.67067 74.7209 8.884C74.5075 9.09733 74.2355 9.204 73.9049 9.204ZM73.1369 18.5C73.0835 18.5 73.0355 18.484 72.9929 18.452C72.9609 18.4093 72.9449 18.3613 72.9449 18.308V10.5C72.9449 10.4467 72.9609 10.404 72.9929 10.372C73.0355 10.3293 73.0835 10.308 73.1369 10.308H74.6089C74.6622 10.308 74.7049 10.3293 74.7369 10.372C74.7795 10.404 74.8009 10.4467 74.8009 10.5V18.308C74.8009 18.3613 74.7795 18.4093 74.7369 18.452C74.7049 18.484 74.6622 18.5 74.6089 18.5H73.1369ZM81.487 10.196C82.351 10.196 83.039 10.452 83.551 10.964C84.0737 11.476 84.335 12.1747 84.335 13.06V18.308C84.335 18.3613 84.3137 18.4093 84.271 18.452C84.239 18.484 84.1963 18.5 84.143 18.5H82.671C82.6177 18.5 82.5697 18.484 82.527 18.452C82.495 18.4093 82.479 18.3613 82.479 18.308V13.444C82.479 12.9533 82.3403 12.5587 82.063 12.26C81.7857 11.9507 81.4177 11.796 80.959 11.796C80.5003 11.796 80.127 11.9453 79.839 12.244C79.5617 12.5427 79.423 12.9373 79.423 13.428V18.308C79.423 18.3613 79.4017 18.4093 79.359 18.452C79.327 18.484 79.2843 18.5 79.231 18.5H77.759C77.7057 18.5 77.6577 18.484 77.615 18.452C77.583 18.4093 77.567 18.3613 77.567 18.308V10.516C77.567 10.4627 77.583 10.42 77.615 10.388C77.6577 10.3453 77.7057 10.324 77.759 10.324H79.231C79.2843 10.324 79.327 10.3453 79.359 10.388C79.4017 10.42 79.423 10.4627 79.423 10.516V11.028C79.423 11.06 79.4337 11.0813 79.455 11.092C79.4763 11.1027 79.4923 11.092 79.503 11.06C79.9403 10.484 80.6017 10.196 81.487 10.196ZM91.7421 10.516C91.7421 10.4627 91.7581 10.42 91.7901 10.388C91.8328 10.3453 91.8808 10.324 91.9341 10.324H93.3901C93.4435 10.324 93.4861 10.3453 93.5181 10.388C93.5608 10.42 93.5821 10.4627 93.5821 10.516V18.308C93.5821 18.3613 93.5608 18.4093 93.5181 18.452C93.4861 18.484 93.4435 18.5 93.3901 18.5H91.9341C91.8808 18.5 91.8328 18.484 91.7901 18.452C91.7581 18.4093 91.7421 18.3613 91.7421 18.308V17.796C91.7421 17.764 91.7315 17.7427 91.7101 17.732C91.6888 17.7213 91.6675 17.732 91.6461 17.764C91.2088 18.3293 90.5528 18.612 89.6781 18.612C88.8675 18.612 88.1848 18.3773 87.6301 17.908C87.0861 17.4387 86.8141 16.772 86.8141 15.908V10.516C86.8141 10.4627 86.8301 10.42 86.8621 10.388C86.9048 10.3453 86.9528 10.324 87.0061 10.324H88.4781C88.5315 10.324 88.5741 10.3453 88.6061 10.388C88.6488 10.42 88.6701 10.4627 88.6701 10.516V15.38C88.6701 15.8813 88.7981 16.2813 89.0541 16.58C89.3208 16.8787 89.6888 17.028 90.1581 17.028C90.6381 17.028 91.0221 16.8787 91.3101 16.58C91.5981 16.2813 91.7421 15.8813 91.7421 15.38V10.516ZM103.102 13.492C103.145 13.7587 103.166 14.0573 103.166 14.388L103.15 14.884C103.15 15.012 103.086 15.076 102.958 15.076H97.9504C97.897 15.076 97.8704 15.1027 97.8704 15.156C97.9024 15.508 97.9504 15.748 98.0144 15.876C98.2704 16.644 98.8944 17.0333 99.8864 17.044C100.612 17.044 101.188 16.7453 101.614 16.148C101.657 16.084 101.71 16.052 101.774 16.052C101.817 16.052 101.854 16.068 101.886 16.1L102.878 16.916C102.974 16.9907 102.99 17.076 102.926 17.172C102.596 17.6413 102.153 18.004 101.598 18.26C101.054 18.516 100.446 18.644 99.7744 18.644C98.9424 18.644 98.233 18.4573 97.6464 18.084C97.0704 17.7107 96.649 17.188 96.3824 16.516C96.137 15.94 96.0144 15.14 96.0144 14.116C96.0144 13.4973 96.0784 12.996 96.2064 12.612C96.4197 11.8653 96.8197 11.2787 97.4064 10.852C98.0037 10.4147 98.7184 10.196 99.5504 10.196C101.652 10.196 102.836 11.2947 103.102 13.492ZM99.5504 11.796C99.1557 11.796 98.825 11.8973 98.5584 12.1C98.3024 12.292 98.121 12.564 98.0144 12.916C97.9504 13.0973 97.9077 13.332 97.8864 13.62C97.865 13.6733 97.8864 13.7 97.9504 13.7H101.198C101.252 13.7 101.278 13.6733 101.278 13.62C101.257 13.3533 101.225 13.1507 101.182 13.012C101.086 12.628 100.894 12.3293 100.606 12.116C100.329 11.9027 99.977 11.796 99.5504 11.796ZM111.906 18.5C111.788 18.5 111.714 18.4467 111.682 18.34L108.77 7.508L108.754 7.444C108.754 7.348 108.812 7.3 108.93 7.3H110.498C110.615 7.3 110.69 7.35333 110.722 7.46L112.546 14.756C112.556 14.788 112.572 14.804 112.594 14.804C112.615 14.804 112.631 14.788 112.642 14.756L114.386 7.46C114.418 7.35333 114.487 7.3 114.594 7.3H116.13C116.247 7.3 116.322 7.35333 116.354 7.46L118.21 14.772C118.22 14.804 118.236 14.82 118.258 14.82C118.279 14.82 118.295 14.804 118.306 14.772L120.098 7.46C120.13 7.35333 120.204 7.3 120.322 7.3H121.81C121.959 7.3 122.018 7.36933 121.986 7.508L119.218 18.34C119.186 18.4467 119.111 18.5 118.994 18.5H117.506C117.388 18.5 117.314 18.4467 117.282 18.34L115.41 10.708C115.399 10.676 115.383 10.66 115.362 10.66C115.34 10.6493 115.324 10.6653 115.314 10.708L113.522 18.34C113.49 18.4467 113.42 18.5 113.314 18.5H111.906ZM125.089 9.204C124.758 9.204 124.486 9.09733 124.273 8.884C124.059 8.67067 123.953 8.39867 123.953 8.068C123.953 7.73733 124.059 7.46533 124.273 7.252C124.486 7.03867 124.758 6.932 125.089 6.932C125.419 6.932 125.691 7.03867 125.905 7.252C126.118 7.46533 126.225 7.73733 126.225 8.068C126.225 8.39867 126.118 8.67067 125.905 8.884C125.691 9.09733 125.419 9.204 125.089 9.204ZM124.321 18.5C124.267 18.5 124.219 18.484 124.177 18.452C124.145 18.4093 124.129 18.3613 124.129 18.308V10.5C124.129 10.4467 124.145 10.404 124.177 10.372C124.219 10.3293 124.267 10.308 124.321 10.308H125.793C125.846 10.308 125.889 10.3293 125.921 10.372C125.963 10.404 125.985 10.4467 125.985 10.5V18.308C125.985 18.3613 125.963 18.4093 125.921 18.452C125.889 18.484 125.846 18.5 125.793 18.5H124.321ZM133.087 11.636C133.087 11.6893 133.065 11.7373 133.023 11.78C132.991 11.812 132.948 11.828 132.895 11.828H131.263C131.209 11.828 131.183 11.8547 131.183 11.908V15.764C131.183 16.1693 131.268 16.4627 131.439 16.644C131.62 16.8253 131.903 16.916 132.287 16.916H132.767C132.82 16.916 132.863 16.9373 132.895 16.98C132.937 17.012 132.959 17.0547 132.959 17.108V18.308C132.959 18.4253 132.895 18.4947 132.767 18.516L131.935 18.532C131.092 18.532 130.463 18.388 130.047 18.1C129.631 17.812 129.417 17.268 129.407 16.468V11.908C129.407 11.8547 129.38 11.828 129.327 11.828H128.415C128.361 11.828 128.313 11.812 128.271 11.78C128.239 11.7373 128.223 11.6893 128.223 11.636V10.516C128.223 10.4627 128.239 10.42 128.271 10.388C128.313 10.3453 128.361 10.324 128.415 10.324H129.327C129.38 10.324 129.407 10.2973 129.407 10.244V8.372C129.407 8.31867 129.423 8.276 129.455 8.244C129.497 8.20133 129.545 8.18 129.599 8.18H130.991C131.044 8.18 131.087 8.20133 131.119 8.244C131.161 8.276 131.183 8.31867 131.183 8.372V10.244C131.183 10.2973 131.209 10.324 131.263 10.324H132.895C132.948 10.324 132.991 10.3453 133.023 10.388C133.065 10.42 133.087 10.4627 133.087 10.516V11.636ZM139.295 10.196C140.159 10.196 140.847 10.452 141.359 10.964C141.882 11.476 142.143 12.1747 142.143 13.06V18.308C142.143 18.3613 142.122 18.4093 142.079 18.452C142.047 18.484 142.004 18.5 141.951 18.5H140.479C140.426 18.5 140.378 18.484 140.335 18.452C140.303 18.4093 140.287 18.3613 140.287 18.308V13.444C140.287 12.9533 140.148 12.5587 139.871 12.26C139.594 11.9507 139.226 11.796 138.767 11.796C138.308 11.796 137.935 11.9453 137.647 12.244C137.37 12.5427 137.231 12.9373 137.231 13.428V18.308C137.231 18.3613 137.21 18.4093 137.167 18.452C137.135 18.484 137.092 18.5 137.039 18.5H135.567C135.514 18.5 135.466 18.484 135.423 18.452C135.391 18.4093 135.375 18.3613 135.375 18.308V7.492C135.375 7.43867 135.391 7.396 135.423 7.364C135.466 7.32133 135.514 7.3 135.567 7.3H137.039C137.092 7.3 137.135 7.32133 137.167 7.364C137.21 7.396 137.231 7.43867 137.231 7.492V11.028C137.231 11.06 137.242 11.0813 137.263 11.092C137.284 11.1027 137.3 11.092 137.311 11.06C137.748 10.484 138.41 10.196 139.295 10.196ZM152.481 18.628C151.681 18.628 150.977 18.4733 150.369 18.164C149.761 17.844 149.292 17.396 148.961 16.82C148.631 16.244 148.465 15.5827 148.465 14.836V10.964C148.465 10.2067 148.631 9.54533 148.961 8.98C149.292 8.404 149.761 7.96133 150.369 7.652C150.977 7.332 151.681 7.172 152.481 7.172C153.271 7.172 153.964 7.32667 154.561 7.636C155.169 7.94533 155.639 8.36667 155.969 8.9C156.3 9.43333 156.465 10.036 156.465 10.708V10.836C156.465 10.8893 156.444 10.9373 156.401 10.98C156.369 11.012 156.327 11.028 156.273 11.028H154.817C154.764 11.028 154.716 11.012 154.673 10.98C154.641 10.9373 154.625 10.8893 154.625 10.836V10.756C154.625 10.18 154.428 9.70533 154.033 9.332C153.649 8.95867 153.132 8.772 152.481 8.772C151.831 8.772 151.308 8.96933 150.913 9.364C150.519 9.748 150.321 10.26 150.321 10.9V14.9C150.321 15.54 150.529 16.0573 150.945 16.452C151.361 16.836 151.9 17.028 152.561 17.028C153.201 17.028 153.703 16.8627 154.065 16.532C154.439 16.1907 154.625 15.7267 154.625 15.14V14.148C154.625 14.0947 154.599 14.068 154.545 14.068H152.577C152.524 14.068 152.476 14.052 152.433 14.02C152.401 13.9773 152.385 13.9293 152.385 13.876V12.692C152.385 12.6387 152.401 12.596 152.433 12.564C152.476 12.5213 152.524 12.5 152.577 12.5H156.273C156.327 12.5 156.369 12.5213 156.401 12.564C156.444 12.596 156.465 12.6387 156.465 12.692V14.74C156.465 15.9667 156.103 16.9213 155.377 17.604C154.663 18.2867 153.697 18.628 152.481 18.628ZM167.766 10.196C168.587 10.196 169.227 10.4467 169.686 10.948C170.155 11.4387 170.39 12.1267 170.39 13.012V18.308C170.39 18.3613 170.369 18.4093 170.326 18.452C170.294 18.484 170.251 18.5 170.198 18.5H168.742C168.689 18.5 168.641 18.484 168.598 18.452C168.566 18.4093 168.55 18.3613 168.55 18.308V13.396C168.55 12.9053 168.417 12.516 168.15 12.228C167.894 11.94 167.547 11.796 167.11 11.796C166.673 11.796 166.315 11.94 166.038 12.228C165.761 12.516 165.622 12.9 165.622 13.38V18.308C165.622 18.3613 165.601 18.4093 165.558 18.452C165.526 18.484 165.483 18.5 165.43 18.5H163.974C163.921 18.5 163.873 18.484 163.83 18.452C163.798 18.4093 163.782 18.3613 163.782 18.308V13.396C163.782 12.9053 163.649 12.516 163.382 12.228C163.115 11.94 162.763 11.796 162.326 11.796C161.921 11.796 161.585 11.9133 161.318 12.148C161.062 12.3827 160.913 12.7027 160.87 13.108V18.308C160.87 18.3613 160.849 18.4093 160.806 18.452C160.774 18.484 160.731 18.5 160.678 18.5H159.206C159.153 18.5 159.105 18.484 159.062 18.452C159.03 18.4093 159.014 18.3613 159.014 18.308V10.516C159.014 10.4627 159.03 10.42 159.062 10.388C159.105 10.3453 159.153 10.324 159.206 10.324H160.678C160.731 10.324 160.774 10.3453 160.806 10.388C160.849 10.42 160.87 10.4627 160.87 10.516V11.044C160.87 11.076 160.881 11.0973 160.902 11.108C160.923 11.1187 160.945 11.108 160.966 11.076C161.201 10.7773 161.489 10.5587 161.83 10.42C162.182 10.2707 162.571 10.196 162.998 10.196C163.521 10.196 163.979 10.3027 164.374 10.516C164.769 10.7293 165.073 11.0387 165.286 11.444C165.318 11.4867 165.355 11.4867 165.398 11.444C165.633 11.0173 165.958 10.7027 166.374 10.5C166.79 10.2973 167.254 10.196 167.766 10.196ZM176.04 10.196C176.712 10.196 177.304 10.3133 177.816 10.548C178.328 10.7827 178.722 11.108 179 11.524C179.277 11.9293 179.416 12.3933 179.416 12.916V18.308C179.416 18.3613 179.394 18.4093 179.352 18.452C179.32 18.484 179.277 18.5 179.224 18.5H177.752C177.698 18.5 177.65 18.484 177.608 18.452C177.576 18.4093 177.56 18.3613 177.56 18.308V17.796C177.56 17.764 177.549 17.748 177.528 17.748C177.506 17.7373 177.485 17.7427 177.464 17.764C176.941 18.34 176.184 18.628 175.192 18.628C174.392 18.628 173.73 18.4253 173.208 18.02C172.696 17.6147 172.44 17.012 172.44 16.212C172.44 15.38 172.728 14.7347 173.304 14.276C173.89 13.8067 174.712 13.572 175.768 13.572H177.48C177.533 13.572 177.56 13.5453 177.56 13.492V13.108C177.56 12.692 177.437 12.372 177.192 12.148C176.946 11.9133 176.578 11.796 176.088 11.796C175.682 11.796 175.352 11.8707 175.096 12.02C174.85 12.1587 174.696 12.356 174.632 12.612C174.6 12.74 174.525 12.7933 174.408 12.772L172.856 12.58C172.802 12.5693 172.754 12.5533 172.712 12.532C172.68 12.5 172.669 12.4627 172.68 12.42C172.765 11.7693 173.112 11.236 173.72 10.82C174.338 10.404 175.112 10.196 176.04 10.196ZM175.656 17.156C176.178 17.156 176.626 17.0173 177 16.74C177.373 16.4627 177.56 16.1107 177.56 15.684V14.932C177.56 14.8787 177.533 14.852 177.48 14.852H176.136C175.57 14.852 175.122 14.9587 174.792 15.172C174.472 15.3853 174.312 15.6893 174.312 16.084C174.312 16.4253 174.434 16.692 174.68 16.884C174.936 17.0653 175.261 17.156 175.656 17.156ZM182.975 9.204C182.644 9.204 182.372 9.09733 182.159 8.884C181.946 8.67067 181.839 8.39867 181.839 8.068C181.839 7.73733 181.946 7.46533 182.159 7.252C182.372 7.03867 182.644 6.932 182.975 6.932C183.306 6.932 183.578 7.03867 183.791 7.252C184.004 7.46533 184.111 7.73733 184.111 8.068C184.111 8.39867 184.004 8.67067 183.791 8.884C183.578 9.09733 183.306 9.204 182.975 9.204ZM182.207 18.5C182.154 18.5 182.106 18.484 182.063 18.452C182.031 18.4093 182.015 18.3613 182.015 18.308V10.5C182.015 10.4467 182.031 10.404 182.063 10.372C182.106 10.3293 182.154 10.308 182.207 10.308H183.679C183.732 10.308 183.775 10.3293 183.807 10.372C183.85 10.404 183.871 10.4467 183.871 10.5V18.308C183.871 18.3613 183.85 18.4093 183.807 18.452C183.775 18.484 183.732 18.5 183.679 18.5H182.207ZM186.829 18.5C186.776 18.5 186.728 18.484 186.685 18.452C186.653 18.4093 186.637 18.3613 186.637 18.308V7.492C186.637 7.43867 186.653 7.396 186.685 7.364C186.728 7.32133 186.776 7.3 186.829 7.3H188.301C188.354 7.3 188.397 7.32133 188.429 7.364C188.472 7.396 188.493 7.43867 188.493 7.492V18.308C188.493 18.3613 188.472 18.4093 188.429 18.452C188.397 18.484 188.354 18.5 188.301 18.5H186.829Z" fill="#30578E"/>
</g>
<defs>
<clipPath id="clip0_862_7867">
<rect width="24" height="24" fill="white"/>
</clipPath>
<clipPath id="clip1_862_7867">
<rect width="154" height="19" fill="white" transform="translate(36 2.5)"/>
</clipPath>
</defs>
</svg>
