<svg width="14" height="17" viewBox="0 0 14 17" fill="none" xmlns="http://www.w3.org/2000/svg">
<path d="M4.24437 7.16519C4.24437 5.65214 5.4781 4.42556 6.99998 4.42556C8.52186 4.42556 9.75559 5.65214 9.75559 7.16519C9.75559 8.67825 8.52186 9.90482 6.99998 9.90482C5.4781 9.90482 4.24437 8.67825 4.24437 7.16519Z" fill="#3E5B84"/>
<path fill-rule="evenodd" clip-rule="evenodd" d="M0.0249295 6.21887C0.316294 2.7046 3.27013 0 6.81689 0H7.18312C10.7299 0 13.6837 2.7046 13.9751 6.21887C14.1319 8.11099 13.5441 9.98978 12.3353 11.4595L8.27135 16.4008C7.61426 17.1997 6.38574 17.1997 5.72866 16.4008L1.66471 11.4595C0.455927 9.98978 -0.131944 8.11099 0.0249295 6.21887ZM6.99998 3.16111C4.77569 3.16111 2.97255 4.9538 2.97255 7.16519C2.97255 9.37658 4.77569 11.1693 6.99998 11.1693C9.22427 11.1693 11.0274 9.37658 11.0274 7.16519C11.0274 4.9538 9.22427 3.16111 6.99998 3.16111Z" fill="#3E5B84"/>
</svg>
