<svg width="40" height="40" viewBox="0 0 40 40" fill="none" xmlns="http://www.w3.org/2000/svg">
<rect width="40" height="40" rx="20" fill="white"/>
<path d="M32.4305 17.284L20.3728 6.5L8.31513 17.284L20.3728 28.068L32.4305 17.284Z" fill="#FFBC5A"/>
<path d="M32.5984 28.5C32.5984 25.5826 31.3026 22.7847 28.9961 20.7218C26.6895 18.6589 23.5612 17.5 20.2992 17.5C17.0373 17.5 13.9089 18.6589 11.6024 20.7218C9.29581 22.7847 8 25.5826 8 28.5L20.2992 28.5H32.5984Z" fill="#268FA2"/>
<path d="M26.2912 28.3589C26.2912 26.9002 25.6433 25.5012 24.49 24.4698C23.3367 23.4383 21.7725 22.8589 20.1416 22.8589C18.5106 22.8589 16.9464 23.4383 15.7931 24.4698C14.6398 25.5012 13.9919 26.9002 13.9919 28.3589L20.1415 28.3589H26.2912Z" fill="#FEEECD"/>
</svg>
