<svg width="14" height="14" viewBox="0 0 14 14" fill="none" xmlns="http://www.w3.org/2000/svg">
<path d="M7 0C5.61553 0 4.26215 0.410543 3.11101 1.17971C1.95987 1.94888 1.06266 3.04213 0.532846 4.32122C0.003033 5.6003 -0.13559 7.00776 0.134506 8.36563C0.404603 9.7235 1.07129 10.9708 2.05026 11.9497C3.02922 12.9287 4.2765 13.5954 5.63437 13.8655C6.99224 14.1356 8.3997 13.997 9.67879 13.4672C10.9579 12.9373 12.0511 12.0401 12.8203 10.889C13.5895 9.73785 14 8.38447 14 7C13.9975 5.14424 13.2593 3.36519 11.947 2.05297C10.6348 0.740745 8.85576 0.00245786 7 0ZM6.48667 10.9987C6.48667 10.8903 6.51883 10.7843 6.57908 10.6941C6.63933 10.6039 6.72497 10.5337 6.82516 10.4922C6.92536 10.4507 7.03561 10.4398 7.14198 10.461C7.24834 10.4821 7.34605 10.5343 7.42273 10.611C7.49942 10.6877 7.55164 10.7854 7.5728 10.8918C7.59396 10.9981 7.5831 11.1084 7.54159 11.2086C7.50009 11.3088 7.42981 11.3944 7.33964 11.4547C7.24947 11.5149 7.14345 11.5471 7.035 11.5471C6.88972 11.5466 6.75054 11.4887 6.64781 11.3859C6.54509 11.2832 6.48716 11.144 6.48667 10.9987ZM7.58333 7.525V9.04167C7.58333 9.19638 7.52188 9.34475 7.41248 9.45414C7.30308 9.56354 7.15471 9.625 7 9.625C6.84529 9.625 6.69692 9.56354 6.58752 9.45414C6.47813 9.34475 6.41667 9.19638 6.41667 9.04167V7C6.41712 6.84543 6.47872 6.69732 6.58802 6.58802C6.69732 6.47872 6.84543 6.41712 7 6.41667C7.72333 6.41667 8.45833 5.97917 8.45833 5.14792C8.45794 4.77028 8.30795 4.40817 8.04119 4.14087C7.77443 3.87357 7.41264 3.72283 7.035 3.72167C6.77103 3.72766 6.51368 3.80551 6.29064 3.94683C6.06761 4.08816 5.88732 4.28761 5.76917 4.52375C5.69734 4.66027 5.57445 4.76285 5.4273 4.80913C5.28014 4.85541 5.12066 4.84163 4.98362 4.77081C4.84658 4.69998 4.74311 4.57784 4.69575 4.43103C4.6484 4.28422 4.66101 4.12463 4.73084 3.98708C4.99054 3.46506 5.41927 3.04629 5.94725 2.79892C6.47524 2.55156 7.0714 2.49016 7.63872 2.62472C8.20604 2.75928 8.71112 3.08188 9.07177 3.54002C9.43242 3.99815 9.62741 4.56486 9.625 5.14792C9.62265 5.72212 9.41588 6.27671 9.04176 6.7123C8.66763 7.14789 8.1506 7.436 7.58333 7.525Z" fill="#3E5B84"/>
</svg>
