<svg width="20" height="26" viewBox="0 0 20 26" fill="none" xmlns="http://www.w3.org/2000/svg">
<path fill-rule="evenodd" clip-rule="evenodd" d="M3.81644 6.87796V7.35946H1.86227C1.28009 7.35946 0.785994 7.78644 0.701594 8.36246L0.416924 10.3053C-0.138974 14.0993 -0.138975 17.9541 0.416924 21.7481C0.666009 23.4481 2.03687 24.7624 3.74586 24.9396L4.56453 25.0245C8.17849 25.3993 11.8215 25.3993 15.4355 25.0245L16.2541 24.9396C17.9631 24.7624 19.334 23.4481 19.5831 21.7481C20.139 17.9541 20.139 14.0993 19.5831 10.3053L19.2984 8.36247C19.214 7.78644 18.7199 7.35946 18.1377 7.35946H16.1836V6.87796C16.1836 4.05599 14.273 1.59201 11.54 0.889223C10.5298 0.629455 9.47025 0.629455 8.46004 0.889223C5.72698 1.59201 3.81644 4.05598 3.81644 6.87796ZM11.0537 2.7804C10.3625 2.60267 9.63754 2.60267 8.94635 2.7804C7.07635 3.26126 5.76914 4.94713 5.76914 6.87796V7.35946H14.2309V6.87796C14.2309 4.94714 12.9237 3.26126 11.0537 2.7804ZM5.76914 9.31217C5.76914 8.77294 5.33202 8.33582 4.79279 8.33582C4.25357 8.33582 3.81644 8.77294 3.81644 9.31217V11.9158C3.81644 12.455 4.25357 12.8921 4.79279 12.8921C5.33202 12.8921 5.76914 12.455 5.76914 11.9158V9.31217ZM16.1836 9.31217C16.1836 8.77294 15.7464 8.33582 15.2072 8.33582C14.668 8.33582 14.2309 8.77294 14.2309 9.31217V11.9158C14.2309 12.455 14.668 12.8921 15.2072 12.8921C15.7464 12.8921 16.1836 12.455 16.1836 11.9158V9.31217Z" fill="#3E5B84"/>
</svg>
