<svg width="58" height="19" viewBox="0 0 58 19" fill="none" xmlns="http://www.w3.org/2000/svg">
<g clip-path="url(#clip0_862_5574)">
<rect width="58" height="19" fill="#B9D6FF"/>
<path d="M4.784 16.128C3.952 16.128 3.22667 15.9947 2.608 15.728C1.98933 15.4613 1.50933 15.088 1.168 14.608C0.837333 14.128 0.672 13.5627 0.672 12.912V12.512C0.672 12.4587 0.688 12.416 0.72 12.384C0.762667 12.3413 0.810667 12.32 0.864 12.32H2.288C2.34133 12.32 2.384 12.3413 2.416 12.384C2.45867 12.416 2.48 12.4587 2.48 12.512V12.816C2.48 13.3067 2.69867 13.7173 3.136 14.048C3.57333 14.368 4.17067 14.528 4.928 14.528C5.57867 14.528 6.06933 14.3893 6.4 14.112C6.73067 13.8347 6.896 13.4773 6.896 13.04C6.896 12.7413 6.80533 12.4907 6.624 12.288C6.44267 12.0747 6.18133 11.8827 5.84 11.712C5.50933 11.5413 5.008 11.328 4.336 11.072C3.57867 10.7947 2.96533 10.5333 2.496 10.288C2.02667 10.0427 1.632 9.712 1.312 9.296C1.00267 8.86933 0.848 8.34133 0.848 7.712C0.848 6.77333 1.18933 6.032 1.872 5.488C2.55467 4.944 3.46667 4.672 4.608 4.672C5.408 4.672 6.112 4.81067 6.72 5.088C7.33867 5.36533 7.81867 5.75467 8.16 6.256C8.50133 6.74667 8.672 7.31733 8.672 7.968V8.24C8.672 8.29333 8.65067 8.34133 8.608 8.384C8.576 8.416 8.53333 8.432 8.48 8.432H7.04C6.98667 8.432 6.93867 8.416 6.896 8.384C6.864 8.34133 6.848 8.29333 6.848 8.24V8.064C6.848 7.56267 6.64 7.14133 6.224 6.8C5.81867 6.448 5.25333 6.272 4.528 6.272C3.94133 6.272 3.48267 6.39467 3.152 6.64C2.832 6.88533 2.672 7.232 2.672 7.68C2.672 8 2.75733 8.26133 2.928 8.464C3.09867 8.66667 3.35467 8.85333 3.696 9.024C4.03733 9.184 4.56533 9.392 5.28 9.648C6.03733 9.936 6.64 10.1973 7.088 10.432C7.54667 10.6667 7.936 10.9973 8.256 11.424C8.58667 11.84 8.752 12.3627 8.752 12.992C8.752 13.952 8.39467 14.7147 7.68 15.28C6.976 15.8453 6.01067 16.128 4.784 16.128ZM15.1811 16.128C14.3918 16.128 13.6931 15.9733 13.0851 15.664C12.4771 15.3547 12.0025 14.9173 11.6611 14.352C11.3305 13.776 11.1651 13.1147 11.1651 12.368V4.992C11.1651 4.93867 11.1811 4.896 11.2131 4.864C11.2558 4.82133 11.3038 4.8 11.3571 4.8H12.8291C12.8825 4.8 12.9251 4.82133 12.9571 4.864C12.9998 4.896 13.0211 4.93867 13.0211 4.992V12.4C13.0211 13.0293 13.2185 13.5413 13.6131 13.936C14.0078 14.3307 14.5305 14.528 15.1811 14.528C15.8318 14.528 16.3545 14.3307 16.7491 13.936C17.1438 13.5413 17.3411 13.0293 17.3411 12.4V4.992C17.3411 4.93867 17.3571 4.896 17.3891 4.864C17.4318 4.82133 17.4798 4.8 17.5331 4.8H19.0051C19.0585 4.8 19.1011 4.82133 19.1331 4.864C19.1758 4.896 19.1971 4.93867 19.1971 4.992V12.368C19.1971 13.1147 19.0318 13.776 18.7011 14.352C18.3705 14.9173 17.9011 15.3547 17.2931 15.664C16.6851 15.9733 15.9811 16.128 15.1811 16.128ZM28.329 10.16C28.265 10.192 28.265 10.224 28.329 10.256C29.417 10.768 29.961 11.648 29.961 12.896C29.961 13.9093 29.6197 14.6827 28.937 15.216C28.265 15.7387 27.385 16 26.297 16H22.265C22.2117 16 22.1637 15.984 22.121 15.952C22.089 15.9093 22.073 15.8613 22.073 15.808V4.992C22.073 4.93867 22.089 4.896 22.121 4.864C22.1637 4.82133 22.2117 4.8 22.265 4.8H26.169C27.3317 4.8 28.2277 5.05067 28.857 5.552C29.4863 6.05333 29.801 6.81067 29.801 7.824C29.801 8.944 29.3103 9.72267 28.329 10.16ZM24.009 6.4C23.9557 6.4 23.929 6.42667 23.929 6.48V9.44C23.929 9.49333 23.9557 9.52 24.009 9.52H26.169C26.7343 9.52 27.177 9.38667 27.497 9.12C27.8277 8.84267 27.993 8.464 27.993 7.984C27.993 7.49333 27.8277 7.10933 27.497 6.832C27.177 6.544 26.7343 6.4 26.169 6.4H24.009ZM26.297 14.384C26.8517 14.384 27.289 14.2347 27.609 13.936C27.9397 13.6373 28.105 13.232 28.105 12.72C28.105 12.1973 27.9397 11.792 27.609 11.504C27.2783 11.2053 26.8303 11.056 26.265 11.056H24.009C23.9557 11.056 23.929 11.0827 23.929 11.136V14.304C23.929 14.3573 23.9557 14.384 24.009 14.384H26.297ZM39.8821 4.928C39.9355 4.84267 40.0101 4.8 40.1061 4.8H41.5781C41.6315 4.8 41.6741 4.82133 41.7061 4.864C41.7488 4.896 41.7701 4.93867 41.7701 4.992V15.808C41.7701 15.8613 41.7488 15.9093 41.7061 15.952C41.6741 15.984 41.6315 16 41.5781 16H40.1061C40.0528 16 40.0048 15.984 39.9621 15.952C39.9301 15.9093 39.9141 15.8613 39.9141 15.808V8.176C39.9141 8.144 39.8981 8.12267 39.8661 8.112C39.8448 8.10133 39.8288 8.112 39.8181 8.144L37.8181 11.216C37.7648 11.3013 37.6901 11.344 37.5941 11.344H36.8581C36.7621 11.344 36.6875 11.3013 36.6341 11.216L34.6181 8.16C34.6075 8.128 34.5861 8.11733 34.5541 8.128C34.5328 8.13867 34.5221 8.16 34.5221 8.192V15.808C34.5221 15.8613 34.5008 15.9093 34.4581 15.952C34.4261 15.984 34.3835 16 34.3301 16H32.8581C32.8048 16 32.7568 15.984 32.7141 15.952C32.6821 15.9093 32.6661 15.8613 32.6661 15.808V4.992C32.6661 4.93867 32.6821 4.896 32.7141 4.864C32.7568 4.82133 32.8048 4.8 32.8581 4.8H34.3301C34.4261 4.8 34.5008 4.84267 34.5541 4.928L37.1621 8.88C37.1835 8.90133 37.2048 8.912 37.2261 8.912C37.2475 8.912 37.2635 8.90133 37.2741 8.88L39.8821 4.928ZM44.9356 16C44.8823 16 44.8343 15.984 44.7916 15.952C44.7596 15.9093 44.7436 15.8613 44.7436 15.808V4.992C44.7436 4.93867 44.7596 4.896 44.7916 4.864C44.8343 4.82133 44.8823 4.8 44.9356 4.8H46.4076C46.461 4.8 46.5036 4.82133 46.5356 4.864C46.5783 4.896 46.5996 4.93867 46.5996 4.992V15.808C46.5996 15.8613 46.5783 15.9093 46.5356 15.952C46.5036 15.984 46.461 16 46.4076 16H44.9356ZM56.9311 4.8C56.9845 4.8 57.0271 4.82133 57.0591 4.864C57.1018 4.896 57.1231 4.93867 57.1231 4.992V6.224C57.1231 6.27733 57.1018 6.32533 57.0591 6.368C57.0271 6.4 56.9845 6.416 56.9311 6.416H53.9871C53.9338 6.416 53.9071 6.44267 53.9071 6.496V15.808C53.9071 15.8613 53.8858 15.9093 53.8431 15.952C53.8111 15.984 53.7685 16 53.7151 16H52.2431C52.1898 16 52.1418 15.984 52.0991 15.952C52.0671 15.9093 52.0511 15.8613 52.0511 15.808V6.496C52.0511 6.44267 52.0245 6.416 51.9711 6.416H49.1391C49.0858 6.416 49.0378 6.4 48.9951 6.368C48.9631 6.32533 48.9471 6.27733 48.9471 6.224V4.992C48.9471 4.93867 48.9631 4.896 48.9951 4.864C49.0378 4.82133 49.0858 4.8 49.1391 4.8H56.9311Z" fill="#30578E"/>
</g>
<defs>
<clipPath id="clip0_862_5574">
<rect width="58" height="19" fill="white"/>
</clipPath>
</defs>
</svg>
